<svg width="780" height="528" viewBox="0 0 780 528" fill="none" xmlns="http://www.w3.org/2000/svg">
<mask id="path-1-inside-1_171_49" fill="white">
<path d="M780 295.5C780 423.906 675.906 528 547.5 528L-200 528L-200 63L547.5 63C675.906 63 780 167.094 780 295.5Z"/>
</mask>
<path d="M784 295.5C784 425.563 678.563 531 548.5 531L-200 531V525L547.5 525C673.697 525 776 422.249 776 295.5H784ZM-200 59L547.5 59C678.115 59 784 164.885 784 295.5H776C776 169.303 673.697 67 547.5 67L-200 67V59ZM547.5 59C678.115 59 784 164.885 784 295.5C784 425.563 678.563 531 548.5 531L547.5 525C673.697 525 776 422.249 776 295.5C776 169.303 673.697 67 547.5 67V59ZM-200 528L-200 63L-200 528Z" fill="white" fill-opacity="0.3" mask="url(#path-1-inside-1_171_49)"/>
<circle cx="249.5" cy="62.5" r="57.5" fill="#5680FB" stroke="#333333" stroke-width="10"/>
</svg>
