<svg width="77" height="77" viewBox="0 0 77 77" fill="none" xmlns="http://www.w3.org/2000/svg">
<circle cx="38.5" cy="38.5" r="35.5" fill="#5680FB" stroke="#A1C400" stroke-width="6"/>
<path d="M36.5 61C36.5 62.3807 37.6193 63.5 39 63.5C40.3807 63.5 41.5 62.3807 41.5 61L36.5 61ZM40.7678 18.2322C39.7915 17.2559 38.2085 17.2559 37.2322 18.2322L21.3223 34.1421C20.346 35.1184 20.346 36.7014 21.3223 37.6777C22.2986 38.654 23.8816 38.654 24.8579 37.6777L39 23.5355L53.1421 37.6777C54.1184 38.654 55.7014 38.654 56.6777 37.6777C57.654 36.7014 57.654 35.1184 56.6777 34.1421L40.7678 18.2322ZM41.5 61L41.5 20L36.5 20L36.5 61L41.5 61Z" fill="white"/>
</svg>
