<svg width="452" height="191" viewBox="0 0 452 191" fill="none" xmlns="http://www.w3.org/2000/svg">
<path d="M396.342 116.792C396.293 116.931 395.849 117.069 395.849 117.069C395.849 117.069 395.454 117.257 395.405 117.069C395.361 116.886 395.336 116.792 395.361 116.65C395.385 116.511 395.267 116.393 395.43 116.231C395.593 116.068 395.735 115.836 395.829 115.86C395.918 115.88 396.317 115.929 396.362 116.043C396.411 116.161 396.456 116.137 396.48 116.349C396.505 116.556 396.387 116.65 396.342 116.792ZM394.754 125.631C394.868 125.794 394.591 126.262 394.591 126.262L394.428 126.307C394.428 126.307 394.266 126.168 394.192 126.03C394.123 125.887 393.985 126.005 393.822 126.03C393.659 126.05 393.842 126.237 393.842 126.4C393.842 126.563 394.054 126.706 394.266 127.1C394.473 127.499 394.286 127.662 394.172 127.894C394.054 128.126 393.565 127.85 393.516 127.662C393.472 127.475 393.329 127.593 393.166 127.406C393.003 127.219 392.816 127.056 392.584 126.75C392.352 126.449 392.535 126.262 392.535 125.956C392.535 125.655 392.702 125.423 392.865 125.305C393.028 125.187 393.097 125.354 393.166 125.354C393.236 125.354 393.402 125.167 393.447 124.935C393.492 124.699 393.423 124.536 393.354 124.466C393.284 124.397 393.284 124.023 393.284 123.884C393.284 123.742 393.447 123.766 393.822 123.953C394.196 124.141 394.192 124.487 394.266 124.861C394.335 125.236 394.636 125.468 394.754 125.631ZM391.766 127.919C391.697 128.244 391.583 128.639 391.534 128.713C391.489 128.782 391.045 128.945 391.045 128.945C390.858 128.851 390.483 128.501 390.459 128.22C390.439 127.943 390.182 127.707 390.227 127.52C390.276 127.337 390.113 127.149 390.345 127.08C390.577 127.007 390.345 126.75 390.789 126.962C391.233 127.174 391.277 127.125 391.416 127.125C391.558 127.125 391.697 127.149 391.746 127.312C391.79 127.475 391.839 127.593 391.766 127.919ZM388.318 126.986C388.293 127.149 388.057 126.962 387.943 127.243C387.825 127.52 387.825 127.687 387.825 127.87C387.825 128.057 387.524 128.175 387.524 128.175C387.336 127.801 387.056 127.707 386.938 127.312C386.824 126.913 386.754 126.844 386.705 126.636C386.661 126.425 386.449 126.144 386.661 126.005C386.868 125.867 387.125 125.631 387.198 125.517C387.267 125.399 387.194 125.142 387.43 125.33C387.662 125.517 387.735 125.631 387.968 125.818C388.2 126.005 388.387 125.61 388.407 126.075C388.432 126.543 388.338 126.82 388.318 126.986ZM385.867 125.211C385.724 125.444 385.378 125.423 385.26 125.61C385.142 125.794 385.167 126.237 384.955 126.38C384.747 126.518 384.678 126.543 384.185 126.563C383.697 126.588 383.811 126.844 383.489 127.056C383.489 127.056 383.046 127.288 382.927 127.288C382.809 127.288 382.695 127.125 382.671 126.799C382.647 126.474 382.858 126.706 382.879 126.563C382.903 126.425 382.972 126.474 383.021 126.38C383.066 126.286 383.229 126.099 383.347 125.887C383.465 125.68 383.253 125.631 383.09 125.444C382.927 125.26 382.528 125.492 382.341 125.468C382.158 125.444 382.296 125.818 382.134 126.05C381.971 126.286 381.458 126.217 381.226 126.144C380.99 126.075 380.896 125.773 380.851 125.399C380.802 125.024 380.876 124.629 380.851 124.373C380.827 124.116 381.083 124.255 381.458 124.186C381.832 124.116 381.739 123.929 381.596 123.697C381.458 123.461 381.319 123.534 381.038 123.392C380.758 123.253 380.664 122.598 380.664 122.598H381.364C382.064 122.598 381.34 122.064 381.364 121.828C381.389 121.596 381.922 121.902 382.227 121.877C382.533 121.853 382.553 122.366 382.598 122.598C382.647 122.834 382.716 123.115 382.834 123.298C382.948 123.485 383.298 123.322 383.603 123.184C383.905 123.042 383.953 123.204 384.255 123.274C384.56 123.347 384.536 123.603 384.536 123.86C384.536 124.116 384.979 123.978 385.354 123.978C385.724 123.978 385.794 124.255 385.936 124.466C386.074 124.674 386.005 124.979 385.867 125.211ZM379.589 120.851C379.382 120.778 379.149 120.57 378.983 120.359C378.82 120.151 378.681 120.102 378.518 119.87C378.356 119.638 377.981 119.589 377.606 119.333C377.236 119.076 377.256 119.264 376.861 119.219C376.467 119.17 376.186 119.219 375.791 119.125C375.392 119.032 375.253 118.706 375.066 118.4C374.879 118.095 374.716 118.026 374.435 117.818C374.154 117.607 373.804 117.281 373.596 116.955C373.385 116.63 373.853 116.556 374.085 116.581C374.321 116.605 374.415 116.744 374.834 117.069C375.253 117.399 375.392 117.537 375.555 117.725C375.717 117.912 376.116 118.12 376.629 118.144C377.142 118.168 377.212 118.331 377.517 118.519C377.818 118.706 377.912 118.657 378.168 118.889C378.425 119.125 378.799 119.219 378.869 119.239C378.938 119.264 379.312 119.402 379.939 119.801C380.57 120.196 380.013 120.102 380.245 120.245C380.477 120.383 381.014 120.949 381.177 121.153C381.47 121.515 380.546 121.153 380.363 121.083C380.171 121.014 379.801 120.921 379.589 120.851ZM379.776 122.879C379.593 122.879 379.475 122.858 379.125 122.671C378.775 122.484 379.149 122.435 379.125 122.297C379.101 122.158 379.149 122.158 379.288 121.971C379.426 121.784 379.589 121.995 379.732 122.016C379.87 122.04 379.964 122.577 379.964 122.671C379.964 122.671 379.964 122.879 379.776 122.879ZM372.803 102.89C372.615 102.841 372.546 102.727 372.359 102.466C372.172 102.21 372.009 102.047 371.939 101.815C371.87 101.583 372.009 101.465 371.964 101.302C371.915 101.139 371.87 100.764 371.87 100.439C371.87 100.113 371.988 100.227 372.216 100.158C372.452 100.089 372.408 100.463 372.408 100.65C372.408 100.838 372.733 101.395 372.733 101.558C372.733 101.721 372.896 101.627 373.108 101.603C373.316 101.583 373.177 101.395 373.128 101.114C373.083 100.838 373.108 101.021 373.108 100.838C373.108 100.65 373.108 100.414 373.621 100.557C374.13 100.695 374.154 101.07 374.272 101.159C374.39 101.253 374.341 101.465 374.317 101.652C374.297 101.839 374.667 102.026 374.736 102.189C374.736 102.189 374.928 102.609 374.834 102.816C374.736 103.028 374.667 102.841 374.39 102.771C374.109 102.702 374.016 102.702 373.947 102.678C373.877 102.653 373.523 102.796 373.364 102.89C373.197 102.979 372.99 102.934 372.803 102.89ZM371.821 91.7631C372.033 91.6206 372.22 91.527 372.22 91.2705C372.22 91.014 372.013 90.7331 372.151 90.4563C372.29 90.1754 372.428 89.8253 372.359 89.7316C372.29 89.638 371.964 89.4752 371.777 89.7316C371.589 89.9881 371.402 90.269 371.239 90.383C371.076 90.5011 370.775 90.4319 370.775 90.8064C370.775 91.1769 370.889 92.2964 370.865 92.4145C370.844 92.5285 370.775 93.0903 370.682 93.1595C370.588 93.2328 370.376 93.302 370.258 93.2084C370.144 93.1147 369.957 92.903 369.863 92.9722C369.77 93.0415 369.77 93.2043 369.468 93.1595C369.163 93.1147 369.326 93.0211 369 92.8583C368.674 92.6913 368.487 92.6018 368.512 92.3697C368.532 92.1336 368.418 91.9707 368.556 91.9219C368.699 91.8771 368.862 91.7631 368.976 91.9219C369.094 92.0888 369.444 92.2028 369.562 92.1336C369.676 92.0644 369.725 92.0196 369.794 91.6206C369.863 91.2257 369.794 91.014 369.863 90.6191C369.932 90.2202 369.863 89.7316 370.095 89.6136C370.331 89.4996 370.47 89.1006 370.608 89.0803C370.751 89.0558 370.82 88.4004 370.539 88.0299C370.258 87.6554 369.818 87.3745 369.818 87.3745C369.818 87.3745 369.912 86.9551 370.144 86.9551C370.376 86.9551 370.588 86.8859 370.682 87.004C370.775 87.118 370.515 87.0243 370.914 87.3989L371.308 87.7734C371.308 87.7734 371.496 87.4681 371.545 87.2605C371.589 87.0488 371.589 86.5602 371.614 86.3933C371.638 86.2305 371.752 86.0228 371.378 85.7664C371.007 85.5099 370.914 85.4366 370.889 85.3226C370.865 85.2045 370.702 84.7852 370.702 84.7852C370.702 84.5979 370.657 84.4351 370.633 84.2967C370.608 84.1583 370.682 83.8285 370.682 83.8285C370.682 83.8285 370.914 83.7593 371.007 83.8529C371.101 83.9466 371.239 84.0402 371.357 84.085C371.475 84.1338 371.752 84.085 371.846 84.1583C371.939 84.2275 372.058 83.9913 372.245 84.2478C372.428 84.5043 372.522 84.5532 372.615 84.8544C372.709 85.1598 372.803 85.1353 372.941 85.3918C373.083 85.6483 373.271 85.7175 373.291 85.8803C373.316 86.0473 373.572 87.9363 373.458 88.38C373.34 88.8238 373.385 88.9622 373.271 89.4059C373.153 89.8497 373.059 90.269 373.153 90.5011C373.246 90.7331 373.527 91.4822 373.552 91.5514C373.572 91.6206 373.666 92.4145 373.552 92.671C373.434 92.9275 373.503 93.3468 373.409 93.5341C373.316 93.7213 373.246 93.7213 373.246 93.9086C373.246 94.0918 373.271 94.2546 373.153 94.4216C373.035 94.5844 372.851 94.6048 372.595 94.6048C372.334 94.6048 372.127 94.6984 372.127 94.3483C372.127 93.9982 372.151 93.7905 372.151 93.5829C372.151 93.3712 372.245 93.1147 372.102 92.8583C371.964 92.6018 371.801 92.4837 371.777 92.2964C371.752 92.1132 371.614 91.9015 371.821 91.7631ZM370.05 99.1807C369.725 99.2255 369.981 99.3436 369.863 99.6448C369.745 99.9501 369.7 100.137 369.607 100.439C369.607 100.439 369.607 100.602 369.538 100.72C369.468 100.838 369.301 100.764 369.163 100.764C369.025 100.764 368.955 100.626 368.813 100.439C368.674 100.251 368.862 100.113 368.907 99.9501C368.955 99.7832 369.118 99.6 369.139 99.4128C369.163 99.2255 369.094 99.2743 368.976 99.1074C368.862 98.9446 369.045 98.5497 369.163 98.5008C369.281 98.456 369.375 98.5945 369.582 98.6433C369.794 98.6881 369.818 98.6677 370.169 98.6433C370.519 98.6189 370.352 98.7125 370.47 98.8306C370.588 98.9446 370.376 99.1319 370.05 99.1807ZM367.555 88.494C367.274 88.4492 367.506 88.3312 367.579 88.0503C367.649 87.7734 367.742 87.6798 367.974 87.4233C368.206 87.1668 368.092 87.1424 368.068 86.9103C368.043 86.6742 368.019 86.605 367.856 86.4422C367.693 86.2793 367.482 86.2549 367.274 86.0228C367.066 85.7867 367.343 85.5791 367.392 85.5099C367.437 85.4407 367.795 85.6564 367.974 85.7216C368.174 85.7867 368.418 85.6972 368.532 85.5547C368.65 85.4162 368.744 85.4162 368.813 85.2738C368.886 85.1353 368.955 85.1598 369.094 84.8544C369.236 84.5532 369.187 84.6672 369.212 84.3659C369.236 84.0606 369.631 84.085 369.888 84.0402C370.144 83.9913 369.932 84.1786 369.932 84.3415C369.932 84.5043 369.888 84.5776 369.863 84.716C369.839 84.8544 369.863 84.9969 369.932 85.115C370.002 85.229 370.026 85.461 369.981 85.6727C369.937 85.8803 369.676 85.9292 369.444 85.974C369.212 86.0228 369.163 86.0473 369 86.092C368.837 86.1368 368.605 86.3485 368.581 86.4666C368.556 86.5806 368.674 87.2116 368.63 87.3745C368.581 87.5373 368.581 87.6798 368.442 88.1235C368.3 88.5632 367.836 88.5429 367.555 88.494ZM366.924 83.1283C366.904 82.9654 366.83 82.3385 366.993 82.196C367.156 82.0576 367.225 82.1023 367.368 81.8947C367.506 81.683 367.555 81.4021 367.6 81.2637C367.649 81.1253 367.673 80.4943 367.649 80.3762C367.624 80.2622 367.298 79.8877 367.323 79.794C367.343 79.7004 367.156 79.2118 367.274 79.1426C367.392 79.0694 367.673 78.8821 367.787 78.8821C367.905 78.8821 367.836 78.4872 368.068 78.6745C368.3 78.8617 368.442 79.0694 368.487 79.2811C368.532 79.4887 368.532 79.6312 368.699 79.8388C368.862 80.0505 369.094 80.1686 369.094 80.5187C369.094 80.8688 369.281 81.284 369.326 81.5202C369.375 81.7522 369.326 82.2204 369.35 82.314C369.375 82.4077 369.558 82.4525 369.582 82.6397C369.607 82.827 369.932 83.4092 369.656 83.572C369.656 83.572 369.045 83.6901 369 83.5965C368.955 83.5028 368.744 83.1283 368.699 83.2016C368.65 83.2708 368.418 83.454 368.418 83.454C368.418 83.454 368.255 83.5272 368.113 83.5965C367.974 83.6657 367.856 83.7593 367.693 83.8285C367.53 83.9018 367.136 84.0158 367.136 83.7145C367.136 83.4092 366.948 83.2952 366.924 83.1283ZM368.63 78.4424C368.63 78.2999 368.723 78.2063 369 78.0679C369.281 77.9254 369.419 77.787 369.538 77.7422C369.656 77.6933 369.912 77.7625 369.981 77.7422C370.05 77.7177 370.258 77.6241 370.331 77.5061C370.401 77.3921 370.608 77.0664 370.682 76.8791C370.751 76.6918 370.983 76.8302 371.146 76.8058C371.308 76.7855 371.427 77.0867 371.427 77.0867C371.427 77.0867 371.427 77.5305 371.333 77.6933C371.239 77.8562 371.121 78.0434 371.121 78.1126C371.121 78.1859 371.121 78.6745 371.101 78.7437C371.101 78.7437 370.702 78.8617 370.449 78.7681C370.193 78.6745 370.144 78.7437 370.095 78.6256C370.05 78.5116 369.888 78.536 369.725 78.5116C369.558 78.4872 369.395 78.6745 369.281 78.7437C369.163 78.8129 369.045 78.7437 368.723 78.65C368.394 78.5564 368.63 78.5808 368.63 78.4424ZM368.699 76.1789C368.744 76.1056 368.931 76.0608 369.025 76.016C369.118 75.9672 369.236 75.9916 369.419 75.9672C369.607 75.9427 369.717 76.0323 369.717 76.0323L369.676 76.3173C369.676 76.3173 369.7 76.5738 369.656 76.761C369.607 76.9483 369.367 77.1234 369.257 77.2292C369.126 77.3595 368.768 77.1356 368.723 77.0419C368.674 76.9483 368.556 76.8302 368.556 76.6226C368.556 76.4109 368.65 76.2481 368.699 76.1789ZM371.614 79.4887C371.801 79.4195 371.801 79.5375 371.895 79.6068C371.988 79.676 372.033 80.0057 372.058 80.2133C372.078 80.425 372.127 80.5879 372.172 80.8892C372.216 81.1945 372.29 81.1945 372.29 81.3573C372.29 81.5202 372.428 81.8011 372.359 82.0331C372.29 82.2652 372.359 82.5461 372.359 82.827C372.359 83.1038 372.827 83.34 372.941 83.5517C372.941 83.5517 372.872 83.8529 372.778 83.8285C372.685 83.8081 372.359 83.7593 372.265 83.7349C372.172 83.7145 371.87 83.6209 371.801 83.5272C371.732 83.4336 371.707 83.4092 371.659 83.34C371.614 83.2708 371.308 83.34 371.308 83.34L371.146 83.6901C371.146 83.6901 370.682 83.6901 370.702 83.5965C370.726 83.5028 370.238 82.9899 370.193 82.8718C370.144 82.7578 370.026 82.082 370.002 81.8703C369.981 81.6586 369.839 81.4265 369.818 81.2637C369.794 81.1009 369.607 80.7019 369.489 80.3518C369.375 80.0057 369.212 79.794 369.212 79.4887C369.212 79.1874 369.326 79.3747 369.468 79.2322C369.607 79.0938 369.7 79.2322 369.912 79.2118C370.12 79.1874 370.307 79.3747 370.376 79.3747C370.449 79.3747 370.702 79.6068 370.844 79.7004C370.983 79.794 371.076 79.7452 371.17 79.7004C371.264 79.6556 371.427 79.562 371.614 79.4887ZM373.853 99.1319C373.947 99.0382 373.947 98.969 373.922 98.7614C373.898 98.5497 374.061 98.4805 374.061 98.4805C374.061 98.4805 374.39 98.6677 374.504 98.8062C374.622 98.9446 374.622 99.1563 374.692 99.2947C374.761 99.4372 374.81 99.7629 374.81 99.9013C374.81 100.04 375.16 100.207 375.461 100.439C375.461 100.439 375.53 100.557 375.416 100.744C375.298 100.927 375.416 100.744 375.278 100.744C375.135 100.744 375.111 100.72 374.879 100.671C374.647 100.626 374.553 100.602 374.39 100.488C374.227 100.369 374.179 100.3 374.109 100.158C374.04 100.019 373.971 100.019 373.804 99.7629C373.641 99.5064 373.621 99.4575 373.621 99.2743C373.621 99.0871 373.759 99.2255 373.853 99.1319ZM375.485 109.139C375.485 109.139 375.86 109.513 375.742 109.7C375.624 109.888 375.53 109.745 375.278 109.7C375.017 109.656 374.81 109.42 374.74 109.257C374.671 109.094 374.647 109 374.48 108.695C374.317 108.394 374.415 108.508 374.48 108.349C374.553 108.182 374.716 108.324 374.928 108.394C375.135 108.463 375.485 109.069 375.485 109.139ZM376.373 107.156C376.442 107.087 376.373 106.879 376.536 106.969C376.699 107.062 376.747 107.319 376.817 107.413C376.886 107.506 376.931 107.624 376.955 107.718C376.98 107.811 376.747 107.881 376.747 107.881L376.629 107.925C376.491 107.787 376.349 107.787 376.373 107.624C376.393 107.461 376.3 107.225 376.373 107.156ZM378.213 114.411C378.144 114.647 378.119 114.692 378.03 114.948C377.936 115.205 377.981 115.323 377.606 115.347C377.236 115.367 377.142 115.392 377.073 115.323C377 115.254 376.65 115.042 376.65 115.042C376.747 114.924 376.605 114.598 377.073 114.435C377.537 114.272 377.33 114.622 377.537 114.272C377.749 113.922 377.818 113.78 377.818 113.78C377.818 113.78 378.213 113.641 378.238 113.78C378.262 113.922 378.286 114.179 378.213 114.411ZM377.444 110.421C377.586 110.539 377.749 110.608 377.957 110.657C378.168 110.702 378.543 111.052 378.563 111.121C378.563 111.121 378.799 111.634 378.657 111.777C378.518 111.915 378.425 111.797 378.193 111.728C377.957 111.659 377.863 111.589 377.655 111.333C377.444 111.077 377.374 111.052 377.281 110.914C377.187 110.775 377.098 110.678 376.98 110.588C376.861 110.49 376.931 110.283 377.024 110.189C377.118 110.095 377.305 110.307 377.444 110.421ZM368.019 52.6396C368.043 52.432 368.068 52.3831 368.113 52.2447C368.161 52.1022 368.324 52.2447 368.394 52.2447C368.463 52.2447 368.487 52.5948 368.63 52.5948C368.768 52.5948 368.858 52.945 368.886 53.0142C369.008 53.3439 368.63 53.6208 368.463 53.6208C368.3 53.6208 368.137 53.3643 367.999 53.1526C367.856 52.945 367.999 52.8513 368.019 52.6396ZM369.607 42.8079C369.676 42.4577 369.818 42.6002 369.989 42.531C370.169 42.4577 370.482 42.9137 370.482 42.9137L370.413 43.0196C370.344 43.1254 370.095 43.1946 369.989 43.3005L369.676 43.333C369.362 43.3697 369.538 43.158 369.607 42.8079ZM370.844 59.4506C370.889 59.243 370.865 59.2186 370.889 59.1046C370.914 58.9865 371.007 58.9377 371.032 58.8237C371.052 58.7056 371.17 58.6608 371.288 58.5183C371.402 58.3799 371.638 58.6364 371.638 58.6364C371.638 58.6364 371.659 58.8237 371.614 58.9865C371.565 59.1494 371.614 59.1738 371.614 59.2878C371.614 59.4058 371.683 59.5239 371.707 59.6379C371.732 59.756 371.589 59.8944 371.496 59.9188C371.402 59.9432 371.194 60.1305 371.194 60.1305C370.889 60.3381 370.82 60.0124 370.775 59.8699C370.726 59.7315 370.796 59.6623 370.844 59.4506ZM371.589 49.6555C371.659 49.4926 372.013 49.5619 372.151 49.4682C372.29 49.3746 372.334 49.4234 372.359 49.3054C372.383 49.1873 372.664 49.1425 372.965 49.2117C373.271 49.2809 373.197 49.4926 373.291 49.7003C373.385 49.912 373.364 49.9568 373.34 50.2865C373.32 50.6122 373.409 50.5878 373.478 50.7262C373.552 50.8687 374.016 50.7506 374.154 50.7262C374.297 50.7058 374.928 51.288 374.928 51.288L374.997 51.5689C374.997 51.5689 374.854 51.5893 374.504 51.6381C374.154 51.6829 374.435 51.801 374.154 51.9435C373.877 52.0819 373.828 51.9435 373.621 51.9638C373.409 51.9882 373.291 52.3831 372.965 52.5012C372.64 52.6193 372.664 52.5012 372.29 52.5012C371.915 52.5012 372.196 52.1755 372.29 51.9882C372.383 51.801 372.334 51.7765 372.245 51.5445C372.151 51.3124 372.29 51.402 372.359 51.288C372.428 51.17 372.64 51.1496 372.64 51.0071C372.64 50.8687 372.522 50.5878 372.408 50.4494C372.29 50.3069 371.821 50.3557 371.496 50.0992C371.17 49.8428 371.52 49.8183 371.589 49.6555ZM372.615 37.8045C373.177 37.0024 373.177 35.146 373.071 34.1649C372.965 33.1878 372.827 33.1878 372.86 32.626C372.896 32.0642 373.177 30.9446 373.177 30.6311C373.177 30.3177 373.804 29.0556 373.947 28.8806C374.085 28.7096 374.435 28.7421 374.749 28.6729C375.066 28.6037 375.416 28.4287 375.624 28.2862C375.836 28.1477 376.393 28.6037 376.467 28.848C376.536 29.0922 376.605 29.4057 376.711 29.6174C376.817 29.8251 376.955 29.7558 377.167 30.1792C377.374 30.5945 376.988 30.7003 377.024 30.8062L377.48 31.1929C377.48 31.1929 377.444 31.4372 377.374 31.7181C377.305 31.995 377.167 32.0316 377.061 32.1374C376.955 32.2392 376.886 32.3125 376.572 32.3817C376.255 32.4509 375.836 32.4509 375.624 32.4509C375.416 32.4509 375.555 32.9395 375.416 33.0819C375.278 33.2204 375.241 33.3954 375.029 34.059C374.822 34.7267 375.449 34.4824 375.73 34.69C376.011 34.9017 375.836 35.2844 375.974 35.6345C376.116 35.9847 376.467 35.8788 376.747 35.948C377.024 36.0213 376.988 36.3714 376.78 36.5465C376.572 36.7215 376.711 36.86 376.674 37.4543C376.642 38.0487 376.572 37.8045 376.218 38.1912C375.872 38.5739 375.941 38.6797 375.799 38.8914C375.66 39.0991 375.872 39.8685 375.485 40.4995C375.103 41.1306 374.997 40.9189 374.61 40.8497C374.227 40.7804 374.016 40.6746 373.735 40.5321C373.458 40.3937 372.933 40.4995 372.371 40.3245C371.809 40.1494 371.809 39.9377 371.809 39.4125C371.809 38.8914 372.058 38.6105 372.615 37.8045ZM377.11 57.9809C377.098 58.0257 377.081 58.0583 377.073 58.0746C377.073 58.0746 377.004 58.4491 376.955 58.7992C376.935 58.9377 376.931 59.0313 376.906 59.1494C376.886 59.2633 376.837 59.3122 376.723 59.3814C376.605 59.4506 376.556 59.3366 376.511 59.243C376.467 59.1494 376.21 59.1046 376.161 58.9865C376.116 58.8684 376.092 58.7748 376.092 58.5916C376.092 58.4043 376.116 58.1926 376.116 58.0054C376.116 57.8181 376.3 57.7733 376.349 57.6797C376.393 57.586 376.511 57.5168 376.629 57.3988C376.747 57.2848 377.024 57.468 377.118 57.5413C377.187 57.5942 377.151 57.8344 377.11 57.9809ZM375.998 50.1929C376.092 49.9812 376.255 50.0748 376.56 50.0504C376.861 50.03 376.817 50.4697 376.817 50.5878C376.817 50.5878 377.024 50.8687 377.024 51.1007C377.024 51.3328 377 51.3572 376.955 51.5893C376.91 51.8254 376.98 51.919 376.955 52.2692C376.931 52.6193 376.674 52.6396 376.418 52.5012C376.161 52.3587 376.235 52.1999 376.161 52.0819C376.092 51.9638 375.929 51.6381 375.86 51.5689C375.791 51.4997 375.673 50.7262 375.766 50.5878C375.86 50.4494 375.905 50.4005 375.998 50.1929ZM375.86 45.4541C375.836 45.2465 375.998 45.1976 376.068 45.108C376.141 45.0103 376.235 45.1528 376.324 45.3157C376.418 45.4785 376.511 45.621 376.56 45.6902C376.605 45.7594 376.715 46.3172 376.723 46.4841C376.727 46.6184 376.324 46.9238 376.186 46.5981C376.043 46.2724 375.88 46.1788 375.905 45.9223C375.929 45.6658 375.88 45.6658 375.86 45.4541ZM373.316 44.7335C373.108 44.5218 373.316 44.4282 373.478 44.3142C373.641 44.1961 373.804 44.2409 374.085 44.2409C374.366 44.2409 374.46 44.3834 374.504 44.5218C374.553 44.6643 374.671 44.9208 374.761 45.0592C374.761 45.0592 374.692 45.2709 374.48 45.2465C374.272 45.222 374.154 45.1773 374.04 45.108C373.922 45.0348 373.523 44.9452 373.316 44.7335ZM373.877 47.9985C373.804 47.6729 374.016 47.624 374.085 47.3919C374.154 47.1599 374.203 47.3675 374.366 47.2291C374.529 47.0907 374.574 46.997 374.647 46.7406C374.716 46.4841 374.854 46.6917 375.017 46.7161C375.184 46.7406 375.253 46.9482 375.253 47.1355C375.253 47.3227 375.184 47.3431 375.086 47.4408C374.997 47.5304 374.761 47.5548 374.671 47.7868C374.671 47.7868 374.785 47.9741 374.761 48.0678C374.736 48.1614 374.761 48.1858 374.854 48.3487C374.948 48.5115 375.086 48.7924 375.111 48.9105C375.135 49.0245 374.692 49.4682 374.553 49.399C374.415 49.3298 374.415 49.1425 374.272 49.0489C374.134 48.9553 373.853 48.8168 373.877 48.6051C373.898 48.3975 373.947 48.3242 373.877 47.9985ZM376.068 55.8355C375.998 55.9535 375.604 55.9535 375.485 56.0472C375.367 56.1408 375.392 56.4665 375.416 56.5357C375.437 56.6049 375.485 56.8166 375.298 56.8858C375.111 56.955 374.667 56.7922 374.622 56.6985C374.574 56.6049 374.13 56.4909 374.109 56.3973C374.085 56.3036 373.991 56.0716 374.154 55.9291C374.317 55.7907 374.39 55.7662 374.39 55.6278C374.39 55.4853 374.227 55.2533 374.134 55.2289C374.036 55.2085 373.853 55.2289 373.735 55.3021C373.621 55.3713 373.458 55.4161 373.434 55.2777C373.409 55.1352 373.271 54.7851 373.271 54.7851C373.197 54.6019 373.083 54.2721 373.222 54.1337C373.364 53.9953 373.316 53.5271 373.364 53.4335C373.409 53.3399 373.596 53.177 373.735 53.1322C373.877 53.0834 374.272 52.8961 374.366 52.9205C374.46 52.945 374.435 53.0386 374.692 52.8961C374.948 52.7577 375.042 52.5704 375.111 52.5256C375.184 52.4768 375.111 52.2692 375.298 52.2692C375.485 52.2692 375.86 52.3139 375.836 52.546C375.811 52.7821 376.092 52.7821 375.697 53.0386C375.298 53.2951 374.948 53.3846 374.785 53.4335C374.622 53.4823 374.341 53.3643 374.341 53.69C374.341 54.0197 374.085 54.1582 374.553 54.1785C375.017 54.2029 375.066 53.69 375.51 54.0645C375.954 54.4391 376.023 54.5531 376.092 54.7159C376.161 54.8787 376.279 55.1149 376.3 55.3225C376.324 55.5342 376.137 55.7215 376.068 55.8355ZM375.811 58.099C375.791 58.2618 375.437 58.73 375.347 58.8481C375.253 58.9621 375.229 59.2186 375.253 59.3814C375.278 59.5443 375.253 59.6623 375.111 59.6867C374.972 59.7112 374.879 59.475 374.716 59.4303C374.553 59.3814 374.48 59.4995 374.39 59.2878C374.297 59.0801 374.203 59.0313 374.203 58.8929C374.203 58.7545 374.297 58.4491 374.297 58.4491C374.297 58.4491 374.154 57.7489 374.227 57.7041C374.297 57.6553 374.39 57.586 374.622 57.468C374.854 57.354 374.854 57.4476 375.111 57.5168C375.367 57.586 375.205 57.6349 375.367 57.586C375.53 57.5413 375.811 57.2604 375.905 57.5413C375.998 57.8181 375.836 57.9362 375.811 58.099ZM372.501 70.7643C372.522 70.6503 372.571 70.6014 372.615 70.5078C372.664 70.4142 372.827 70.3694 372.917 70.349C373.014 70.3246 373.177 70.4142 373.291 70.3938C373.409 70.3694 373.596 70.6014 373.596 70.6014L373.621 70.8579C373.641 71.1144 373.503 70.976 373.458 71.0452C373.409 71.1144 373.34 71.208 373.197 71.3505C373.059 71.4889 373.128 71.4645 373.128 71.5581C373.128 71.6558 372.799 71.6558 372.733 71.6762C372.334 71.7902 372.428 71.3261 372.408 71.1877C372.383 71.0452 372.477 70.8823 372.501 70.7643ZM431.223 44.8231C418.843 44.8231 408.812 34.7878 408.812 22.4115C408.812 16.5206 411.1 11.1793 414.812 7.17739C407.883 3.58666 400.25 1.16027 392.165 0.183201C392.417 0.460037 392.983 1.20505 392.983 1.20505C392.983 1.20505 392.877 1.93785 392.767 2.14955C392.662 2.35718 392.071 2.95564 391.583 3.16326C391.09 3.37089 391.131 3.51745 390.744 3.79429C390.357 4.07519 390.146 4.25025 389.832 4.53116C389.519 4.808 389.27 5.43495 389.27 5.85835C389.27 6.27767 389.409 6.66443 389.27 7.22217C389.132 7.78399 388.786 9.18038 388.786 9.18038C388.786 9.18038 388.643 9.63635 388.399 9.9539C388.151 10.2674 387.87 10.0557 387.589 10.2674C387.312 10.475 387.56 10.7233 387.56 11.2078C387.56 11.7004 388.012 12.0872 388.049 12.2948C388.086 12.5065 388.257 13.3818 388.224 13.5568C388.183 13.7278 387.312 14.082 387.21 14.1879C387.104 14.2896 387.17 14.6723 387.137 14.7822C387.104 14.8881 387.385 15.169 387.491 15.4458C387.589 15.7267 387.45 16.1786 387.345 16.2886C387.243 16.3944 386.856 16.9847 386.856 17.1964C386.856 17.4041 386.75 17.9659 386.506 18.4218C386.266 18.8737 386.156 19.4722 386.156 19.4722C386.156 19.4722 386.437 20.034 386.506 20.4126C386.579 20.7994 386.543 20.9378 386.473 21.1128C386.404 21.2879 386.437 21.8456 386.372 22.2324C386.298 22.6192 386.404 23.7387 386.372 24.0196C386.331 24.2965 386.685 24.5448 386.856 25.0333C387.031 25.5219 386.718 25.6644 386.653 26.1163C386.579 26.5722 386.75 27.2358 386.893 27.6592C387.031 28.0785 387.345 28.7747 387.385 29.1981C387.418 29.6174 387.104 30.5253 386.966 30.6311C386.824 30.737 386.437 30.5945 385.985 30.5253C385.533 30.4561 385.704 30.9487 385.46 31.1237C385.211 31.2947 385.533 31.6815 385.566 31.9217C385.598 32.17 385.741 32.7278 385.704 33.1878C385.667 33.6397 385.598 33.6031 385.386 34.2341C385.179 34.8692 385.492 37.1734 385.631 37.6294C385.769 38.0813 386.05 38.0813 386.437 38.122C386.824 38.1546 387.031 38.5413 387.031 38.5413C387.031 38.5413 387.279 39.0665 387.137 39.4125C386.999 39.7627 386.824 39.8359 386.506 40.1128C386.192 40.3937 386.437 40.7072 386.437 40.8456C386.437 40.9881 386.579 41.2323 386.999 41.5458C387.418 41.8674 387.524 41.9326 387.589 42.1076C387.666 42.2786 387.699 42.4944 387.45 42.9137C387.21 43.333 387.491 43.6465 387.699 43.96C387.906 44.2775 387.943 45.1203 387.943 45.1203C387.943 45.1203 387.837 45.3238 387.699 45.4663C387.56 45.6047 387.45 45.8856 387.243 46.0281C387.031 46.1665 387.137 46.5207 387.137 46.7569C387.137 47.0052 387.345 47.2535 387.45 47.3919C387.56 47.5304 387.491 47.7461 387.385 48.0922C387.279 48.4382 387.56 48.4789 387.699 48.5115C387.837 48.5441 388.362 48.6866 388.505 48.6866C388.643 48.6866 389.132 48.6866 389.519 48.5115C389.905 48.3364 390.215 48.6866 390.569 48.7924C390.919 48.8983 391.057 49.3868 391.163 49.5985C391.265 49.8061 391.025 50.1929 390.882 50.3313C390.744 50.4697 390.744 50.6773 390.744 51.0641C390.744 51.4509 390.671 51.6626 390.463 51.9068C390.251 52.1511 389.795 52.1511 389.584 51.9068C389.376 51.6626 388.713 51.5893 388.505 51.5893C388.289 51.5893 387.87 51.6951 387.524 51.6626C387.17 51.6259 386.718 51.6259 386.298 51.6951C385.879 51.7643 385.631 52.4646 385.631 52.4646C385.631 52.4646 386.372 52.8188 386.856 52.8513C387.345 52.8839 387.418 53.0956 387.626 53.1974C387.837 53.3032 388.33 53.6208 388.505 53.6574C388.676 53.69 388.892 54.3169 388.957 54.5653C389.022 54.8095 389.27 54.8747 389.73 55.123C390.182 55.3713 389.938 55.5098 389.905 55.864C389.865 56.21 389.624 56.3851 389.409 56.4583C389.205 56.5235 389.168 56.7352 389.022 56.8736C388.892 57.0161 388.989 57.1179 388.851 57.6105C388.713 58.1031 388.537 57.8914 388.257 57.9972C387.976 58.1031 387.837 58.4491 387.837 58.4491C387.837 58.4491 387.666 59.1494 387.666 59.5687C387.666 59.988 387.837 60.1631 387.837 60.1631C387.837 60.1631 387.943 60.4765 388.151 60.7574C388.362 61.0343 388.33 61.2134 388.33 61.4618C388.33 61.7019 388.257 61.877 388.086 62.0561C387.906 62.2271 387.731 62.4347 387.524 62.6464C387.312 62.8622 387.345 63.2083 387.345 63.2083C387.345 63.2083 387.768 63.5217 387.805 63.7009C387.837 63.8759 387.699 64.1161 387.524 64.1894C387.345 64.2586 386.929 64.2952 386.893 64.4662C386.856 64.6413 386.437 65.2357 386.091 65.4148C385.741 65.5858 385.598 65.4799 385.04 65.6917C384.479 65.8993 383.921 66.4977 383.571 66.6361C383.221 66.7786 383.571 66.8153 383.424 66.9863C383.29 67.1613 382.659 67.5114 382.309 67.7557C381.959 68 381.959 68.1058 381.678 68.3542C381.401 68.5944 381.185 69.7872 382.134 68.6351C382.378 68.3297 382.52 68.3867 382.765 68.0733C383.013 67.7557 383.359 67.7557 383.64 67.5114C383.921 67.2672 383.986 67.1613 384.336 66.8804C384.69 66.5995 384.898 66.7094 385.285 66.4977C385.667 66.286 385.985 66.3227 386.192 66.0092C386.404 65.6917 386.999 65.8341 387.312 65.8341C387.626 65.8341 387.906 66.2209 387.906 66.2209C387.906 66.2209 387.906 66.8478 387.805 66.9863C387.699 67.1288 387.385 67.5481 387.137 67.6214C386.893 67.6865 386.893 67.8616 386.824 67.9674C386.75 68.0733 386.718 68.9811 386.579 69.2987C386.437 69.6121 386.579 69.8198 386.612 69.9948C386.653 70.174 386.929 70.4874 387.031 70.5933C387.137 70.6991 387.064 71.2202 386.929 71.5011C386.787 71.778 386.156 72.0996 385.879 72.2706C385.598 72.4456 385.846 72.7591 385.667 73.1784C385.492 73.5978 385.146 73.3901 384.898 73.4594C384.654 73.5326 384.654 73.7403 384.654 74.2654C384.654 74.7906 384.373 75.4908 384.373 75.4908C384.373 75.4908 384.234 76.2969 384.027 76.643C383.811 76.9931 384.027 77.4491 384.027 77.5915C384.027 77.73 384.617 78.3569 384.792 78.7437C384.971 79.1304 385.073 79.1956 385.04 79.619C385.004 80.0383 384.93 80.3884 384.69 80.7019C384.446 81.0154 384.446 81.0154 383.986 81.2637C383.534 81.508 383.534 81.3695 383.326 81.508C383.111 81.6505 383.326 81.9965 383.326 82.2448V83.1161C383.326 83.4702 383.221 84.0606 382.834 84.0972C382.451 84.1338 382.414 83.5354 382.414 83.1893C382.414 82.8352 382.414 82.5909 382.451 82.1756C382.488 81.7482 382.451 81.8255 382.309 81.5446C382.17 81.2637 381.82 81.7482 381.82 81.7482C381.82 81.7482 381.82 82.3833 381.747 82.6967C381.678 83.0143 381.678 83.2585 381.539 83.3644C381.401 83.4702 381.152 83.1893 380.945 83.1893C380.733 83.1893 380.839 83.5028 380.904 83.7471C380.977 83.9913 380.733 84.3089 380.558 84.3415C380.387 84.3781 380.493 84.83 380.627 85.2534C380.774 85.6686 381.083 85.1475 381.332 84.9725C381.572 84.7974 381.678 84.7282 381.959 84.5491C382.239 84.3781 382.239 84.7282 382.488 85.2168C382.732 85.7094 381.853 85.7419 381.466 86.0228C381.083 86.3037 381.226 86.4422 381.051 86.7882C380.872 87.1424 380.558 87.5617 380.245 87.9485C379.931 88.3352 379.789 88.437 379.508 88.5429C379.227 88.6487 378.812 89.0273 378.494 89.4141C378.181 89.8008 378.461 90.1876 378.567 90.3952C378.669 90.6069 378.812 90.9204 378.987 91.2664C379.162 91.6206 379.125 91.9341 379.019 92.1824C378.913 92.4267 378.706 92.9478 378.706 93.0903C378.706 93.2287 378.848 93.5829 378.812 93.8272C378.775 94.0674 378.913 94.4541 378.881 94.6658C378.848 94.8735 379.125 95.2276 379.3 95.4027C379.471 95.5737 379.894 96.2047 380 96.6607C380.106 97.1126 380.212 97.4668 380.346 97.8535C380.493 98.2321 380.525 98.4805 380.452 98.8672C380.387 99.2499 380.806 99.7059 380.839 99.9827C380.872 100.264 381.152 100.158 381.364 99.9461C381.572 99.7385 381.747 99.8443 381.991 99.4942C382.239 99.1441 382.17 99.425 382.488 99.1441C382.797 98.8672 382.834 99.0708 383.013 99.0057C383.184 98.9324 383.424 99.0382 383.607 98.8998C383.778 98.7614 384.303 98.794 384.446 98.794C384.584 98.794 384.792 98.8672 385.004 99.1441C385.211 99.425 385.146 99.9135 385.106 100.125C385.073 100.333 385.285 100.471 385.533 101.139C385.769 101.803 385.492 101.839 385.317 102.185C385.146 102.539 384.898 102.572 384.898 102.747C384.898 102.926 385.146 103.341 385.106 103.451C385.073 103.553 385.285 104.078 385.285 104.217C385.285 104.359 385.285 104.636 385.211 104.746C385.146 104.852 385.106 105.263 385.004 105.336C384.898 105.41 384.792 105.756 384.723 105.898C384.654 106.036 384.898 106.317 385.004 106.456C385.106 106.598 385.423 106.81 385.533 106.981C385.631 107.156 385.631 107.404 385.741 107.543C385.846 107.681 386.298 107.889 386.543 108.137C386.787 108.381 387.031 108.589 386.966 109.114C386.893 109.643 387.243 109.957 387.418 110.022C387.589 110.095 389.409 110.128 390.532 110.063C391.652 109.99 395.988 109.99 396.655 109.924C397.323 109.851 397.848 110.45 398.65 110.828C399.452 111.215 400.543 111.667 400.543 111.667C400.543 111.667 400.295 111.98 400.12 112.127C399.941 112.261 399.595 112.542 399.35 112.615C399.102 112.689 399.143 113.067 399 113.141C398.862 113.21 398.723 113.454 398.723 113.454C398.723 113.454 398.581 113.702 398.337 113.943C398.088 114.187 397.848 114.297 397.567 114.329C397.29 114.366 397.25 114.468 396.936 114.541C396.623 114.61 396.448 114.574 396.13 114.684C395.817 114.781 395.784 114.928 395.536 115.03C395.291 115.135 395.222 115.274 394.905 115.449C394.587 115.62 394.624 115.486 394.489 115.449C394.343 115.416 394.062 115.38 393.928 115.38C393.785 115.38 393.822 115.587 393.504 115.868C393.191 116.149 392.942 115.942 392.808 116.149C392.662 116.361 392.702 117.448 392.702 117.448C392.702 117.448 392.531 117.969 392.458 118.107C392.385 118.246 392.458 118.808 392.352 119.333C392.25 119.862 392.177 120.175 392.071 120.42C391.969 120.66 391.896 121.466 391.823 121.747C391.758 122.028 391.823 122.834 391.823 123.461C391.823 124.092 391.652 124.23 391.477 124.548C391.302 124.857 390.606 125.138 390.39 125.106C390.182 125.073 389.624 125.138 389.519 125.036C389.409 124.935 388.676 124.686 388.432 124.511C388.183 124.34 387.731 124.3 387.279 124.124C386.824 123.953 386.543 123.815 386.156 123.392C385.769 122.972 385.317 122.728 384.971 122.586C384.617 122.447 384.654 122.618 384.479 122.553C384.303 122.484 384.092 122.52 383.852 122.272C383.607 122.028 382.691 121.295 382.52 121.153C382.345 121.014 381.926 120.872 381.82 120.733C381.714 120.595 381.364 120.526 381.185 120.526C381.014 120.526 381.12 119.752 381.12 119.752C381.12 119.752 381.433 119.789 381.678 119.752C381.926 119.72 382.064 119.895 382.345 120.033C382.626 120.175 382.94 120.452 382.94 120.452C382.94 120.452 383.465 120.346 383.746 119.964C384.027 119.581 383.746 119.964 383.64 119.54C383.534 119.125 383.147 119.333 382.691 118.983L382.659 118.881C382.626 118.775 382.17 118.946 382.17 118.946L381.893 118.637C381.612 118.319 381.433 118.913 381.291 118.881C381.152 118.844 380.525 118.665 380.42 118.462C380.314 118.246 380.314 118.14 380.452 117.619C380.595 117.094 380.774 117.582 380.872 117.407C380.977 117.236 381.051 117.236 381.12 116.886C381.185 116.536 380.945 116.609 380.904 116.328C380.872 116.047 381.051 115.693 380.806 115.661C380.558 115.62 380.387 115.62 380.212 115.486C380.033 115.343 380.139 115.062 380.033 114.997C379.931 114.928 379.614 115.486 379.333 115.62C379.056 115.766 379.019 115.62 378.738 115.522C378.461 115.416 378.706 115.209 378.738 114.928C378.775 114.647 378.913 114.61 378.987 114.224C379.056 113.841 378.881 113.662 378.881 113.662C378.881 113.662 378.913 113.316 378.946 113.067C378.987 112.823 379.162 112.615 379.194 112.302C379.227 111.98 379.508 112.127 379.752 112.021C380 111.915 380.525 111.883 380.774 111.569C381.014 111.248 381.332 110.901 381.612 110.69C381.893 110.482 382.064 110.584 382.309 110.376C382.553 110.169 382.553 110.128 382.626 109.957C382.691 109.782 383.078 109.888 383.497 109.888C383.921 109.888 384.373 109.432 384.303 109.114C384.234 108.801 384.198 108.557 384.165 108.381C384.133 108.21 384.165 107.889 384.092 107.612C384.027 107.331 383.852 107.299 383.672 107.091C383.497 106.879 383.253 106.879 382.972 106.737C382.691 106.598 382.659 106.631 382.414 106.529C382.17 106.423 381.991 106.248 381.788 106.179C381.572 106.106 381.612 106.383 381.612 106.383C381.612 106.383 382.207 106.81 382.345 106.879C382.488 106.944 382.903 107.156 383.253 107.437C383.607 107.718 383.424 107.889 383.392 108.17C383.359 108.451 383.147 108.381 383.147 108.381C383.147 108.381 382.691 108.381 382.553 108.345C382.414 108.308 382.064 108.21 381.926 108.031C381.788 107.856 381.572 107.783 381.572 107.783L381.226 107.612L381.678 108.308L382.028 108.418C382.378 108.524 382.134 108.837 382.028 109.114C381.926 109.395 381.645 109.57 381.507 109.676C381.364 109.782 381.258 109.814 381.083 109.924C380.904 110.022 380.872 110.303 380.558 110.726C380.501 110.808 380.468 110.853 380.448 110.881H380.452C380.452 110.885 380.44 110.901 380.42 110.934C380.281 111.142 379.752 111.007 379.752 111.007C379.752 111.007 379.544 110.901 379.471 110.726C379.406 110.547 379.125 110.69 379.056 110.515C378.987 110.344 378.913 110.201 378.913 110.201C378.913 110.201 378.6 109.643 378.567 109.432C378.531 109.224 378.987 109.289 378.987 109.183C378.987 109.082 378.848 108.976 378.775 108.732C378.706 108.487 378.812 108.451 378.775 108.137C378.738 107.824 378.6 107.856 378.181 107.824C377.761 107.783 377.826 107.718 377.725 107.543C377.619 107.368 377.619 107.368 377.619 107.091C377.619 106.81 377.513 106.912 377.374 106.663C377.236 106.423 377.236 106.456 377.094 106.248C376.955 106.036 377.094 105.825 377.199 105.479C377.305 105.129 377.619 105.198 377.9 104.949C378.181 104.705 378.148 104.184 378.148 103.867C378.148 103.553 378.148 103.867 378.038 103.659C377.932 103.451 377.761 103.765 377.619 103.867C377.48 103.972 377.415 103.972 377.236 103.94C377.061 103.903 376.955 103.94 376.886 103.797C376.813 103.659 376.813 103.622 376.707 103.378C376.605 103.134 376.467 103.622 376.467 103.622C376.467 103.622 376.393 103.83 376.19 103.903C375.974 103.972 376.08 103.692 376.015 103.516C375.941 103.341 376.015 103.203 375.974 103.097C375.941 102.991 375.941 102.71 375.734 102.397C375.681 102.324 375.652 102.287 375.636 102.271C375.648 102.295 375.681 102.364 375.628 102.332C375.522 102.258 375.38 102.153 375.416 101.978C375.453 101.803 375.522 101.493 375.522 101.383C375.522 101.277 375.693 101.383 375.909 101.383C376.112 101.383 376.292 101.383 376.499 101.42C376.707 101.452 376.853 101.697 376.853 101.697C376.853 101.697 377.374 101.733 377.48 101.558C377.586 101.383 377.448 100.858 377.586 100.687C377.725 100.504 377.586 100.687 377.761 100.545C377.932 100.406 377.867 100.333 377.826 100.194C377.794 100.052 377.932 99.9135 377.932 99.9135L378.181 99.771C378.181 99.771 378.6 99.8769 378.738 99.8117C378.881 99.7385 379.056 99.771 379.092 99.5308C379.125 99.2866 379.092 99.5308 379.019 99.3843C378.946 99.2499 378.775 99.3517 378.494 99.2499C378.213 99.1441 378.181 99.1074 378.005 98.9731C377.826 98.8265 378.038 98.794 378.005 98.5863C377.973 98.3746 377.973 98.4113 377.794 98.3054C377.619 98.1996 377.619 98.3746 377.619 98.4805C377.619 98.5863 377.549 99.1807 377.549 99.1807C377.549 99.1807 377.513 99.5634 377.48 99.8117C377.448 100.052 377.374 100.125 377.269 100.227C377.167 100.333 377.094 100.858 376.813 101.033C376.532 101.212 376.813 101.033 376.426 100.931C376.047 100.825 376.08 100.65 375.974 100.504C375.868 100.369 375.799 100.194 375.66 100.019C375.522 99.8443 375.587 99.3191 375.587 99.1807C375.587 99.0382 375.38 99.0057 375.241 98.8998C375.103 98.794 375.103 98.3746 375.135 98.2647C375.172 98.167 375.306 98.2647 375.453 98.2321C375.587 98.1996 375.868 98.3054 375.868 98.3054C375.868 98.3054 376.218 98.3054 376.255 98.0611C376.292 97.8128 376.255 98.0611 376.112 97.9838C375.974 97.9187 375.868 97.8861 375.868 97.7802C375.868 97.6744 375.628 97.6378 375.522 97.5726C375.416 97.4993 375.274 97.6378 375.135 97.6052C374.993 97.5726 374.895 97.6052 374.822 97.4261C374.749 97.251 374.716 97.2184 374.716 97.2184C374.716 97.2184 374.541 97.3935 374.468 97.2917C374.403 97.1859 374.227 97.2184 374.016 97.1859C373.808 97.1451 373.776 97.0474 373.67 96.8683C373.56 96.6933 373.527 96.6933 373.454 96.5548C373.389 96.4123 373.316 96.3798 373.173 96.2739C373.035 96.1721 372.786 96.1314 372.689 95.993C372.583 95.8546 372.827 95.818 372.86 95.7121C372.896 95.6103 373.108 95.3335 373.108 95.3335H373.316C373.527 95.3335 373.56 95.3335 373.56 95.1869C373.56 95.0526 373.808 95.0526 374.016 95.0526C374.227 95.0526 374.37 95.4027 374.614 95.5411C374.854 95.6795 374.854 95.7447 375.135 95.9604C375.416 96.1721 375.38 96.0663 375.587 96.1314C375.799 96.2047 375.868 96.3065 376.149 96.2739C376.426 96.2414 376.393 96.2047 376.393 96.2047L376.015 95.8546L375.693 95.7854C375.38 95.7121 375.241 95.2276 375.241 95.2276C375.241 95.2276 375.029 95.1218 374.96 95.0119C374.895 94.906 374.647 94.8409 374.508 94.6984C374.37 94.56 374.37 94.3116 374.37 94.1081C374.37 93.8923 374.574 93.9982 374.574 93.9982C374.574 93.9982 375.306 94.3849 375.416 94.3849C375.522 94.3849 375.836 94.6658 375.974 94.735C376.112 94.8083 376.467 94.7717 376.361 94.4948C376.255 94.2139 376.361 94.4948 376.19 94.3849C376.015 94.2791 375.836 94.2139 375.766 94.0348C375.693 93.8597 375.734 93.8597 375.587 93.6521C375.453 93.4404 375.209 93.5463 374.785 93.4404C374.37 93.3346 374.508 93.0211 374.508 92.8135C374.508 92.6018 374.541 92.5651 374.822 92.4267C375.103 92.2883 374.822 92.4267 374.96 92.4267C375.103 92.4267 375.306 92.3209 375.274 92.1824C375.241 92.04 375.135 91.9748 374.96 91.9015C374.785 91.8283 374.541 91.9341 374.508 91.8283C374.468 91.7265 374.468 91.3764 374.508 91.2664C374.541 91.1687 374.716 90.9896 374.716 90.9896C374.716 90.9896 374.993 90.782 375.103 90.7087C375.209 90.6395 375.306 90.6761 375.522 90.6761C375.734 90.6761 376.015 90.7453 376.218 90.782C376.426 90.8146 376.393 90.5336 376.361 90.4278C376.328 90.326 376.19 90.1143 376.19 90.1143C376.19 90.1143 375.693 90.0125 375.66 89.9067C375.628 89.8008 375.453 89.8008 375.416 89.5566C375.38 89.3082 375.453 88.7139 375.522 88.4696C375.538 88.4004 375.547 88.3759 375.547 88.3556C375.542 88.3556 375.542 88.3393 375.555 88.262C375.587 88.0543 375.66 88.0136 375.628 87.8752C375.587 87.7368 375.49 87.7001 375.49 87.7001L375.241 88.0869L374.993 89.0273C374.993 89.0273 374.993 89.5891 374.96 89.8008C374.928 90.0125 374.96 90.2527 374.895 90.3627C374.822 90.4685 374.716 90.5011 374.716 90.5011C374.716 90.5011 374.403 90.6069 374.293 90.6069C374.187 90.6069 374.016 90.7453 373.841 90.6069C373.67 90.4685 373.841 90.6069 373.808 90.3952C373.776 90.1876 373.735 90.0817 373.735 90.0817C373.735 90.0817 374.122 90.0125 374.26 89.9067C374.403 89.8008 374.293 89.6624 374.293 89.6624L373.983 89.3815V88.9948C373.983 88.893 373.91 88.6813 373.91 88.5103C373.91 88.3352 373.873 88.2294 373.841 87.981C373.808 87.7368 373.841 87.5617 373.841 87.4233C373.841 87.2808 373.947 86.1613 373.947 86.0554C373.947 85.9496 373.735 85.8478 373.56 85.29C373.389 84.7282 373.596 84.9033 373.56 84.6956C373.527 84.484 373.629 84.484 373.947 84.3415C374.26 84.203 374.435 84.1338 374.508 83.8896C374.529 83.8122 374.537 83.7837 374.537 83.7796C374.529 83.7715 374.492 83.8366 374.468 83.7471C374.435 83.6087 373.947 83.6453 373.702 83.3278C373.454 83.0143 373.596 83.0143 373.596 82.8026C373.596 82.5909 373.735 82.5583 373.873 82.4158C374.016 82.2774 374.333 82.3507 374.435 82.0698C374.541 81.7889 374.056 81.8581 373.776 81.7889C373.495 81.7156 373.173 81.1904 373.173 81.1904C373.173 81.1904 373.002 81.0886 372.969 80.9095C372.933 80.7385 372.754 80.7752 372.721 80.6286C372.689 80.4943 372.44 80.25 372.55 79.7574C372.583 79.619 372.591 79.5579 372.599 79.5375C372.599 79.5498 372.575 79.7004 372.615 79.619C372.689 79.4765 372.754 79.4113 372.721 79.2322C372.689 79.0571 372.269 79.1956 372.058 78.992C371.85 78.7762 372.196 78.4994 372.269 78.3569C372.334 78.2185 372.44 78.2551 372.754 78.1859C373.067 78.1086 373.108 78.1859 373.214 78.0109C373.316 77.8317 373.214 78.0109 373.14 77.8317C373.067 77.6567 372.786 77.6567 372.786 77.4857C372.786 77.3106 373.108 77.2048 373.108 77.0989C373.108 76.9931 373.421 76.9931 373.702 76.9239C373.983 76.8547 374.122 76.9605 374.541 76.8913C374.96 76.818 374.895 76.8913 375.135 76.5778C375.38 76.2603 374.403 76.3987 374.293 76.4313C374.187 76.472 373.808 76.3661 373.316 76.2236C372.827 76.0852 372.786 76.4313 372.583 76.4313C372.375 76.4313 371.882 76.3295 371.707 76.1911C371.532 76.0527 371.569 75.7718 371.74 75.4176C371.915 75.0715 371.74 75.4176 371.882 75.2466C372.021 75.0715 372.302 75.0308 372.44 74.8272C372.583 74.6196 372.786 74.7906 372.896 74.7906C373.002 74.7906 373.283 75.0308 373.421 75.1407C373.56 75.2466 373.91 75.1774 374.293 74.9982C374.679 74.8272 374.435 74.8272 374.37 74.7173C374.293 74.6196 373.808 74.4731 373.629 74.4405C373.454 74.4039 373.389 74.298 373.389 74.0171C373.389 73.7403 373.067 73.8787 372.721 73.7769C372.375 73.6711 372.615 73.5326 372.656 73.2517C372.689 72.9708 373.035 72.8975 373.214 72.7591C373.389 72.6207 373.873 71.953 373.873 71.953L374.122 71.778C374.122 71.778 374.333 71.7454 374.614 71.6396C374.895 71.5378 375.103 71.6396 375.103 71.3912C375.103 71.151 375.103 71.3912 374.993 71.2609C374.895 71.1144 374.508 71.1877 374.37 71.151C374.227 71.1144 374.187 71.0452 374.154 70.8742C374.122 70.6991 374.227 70.4508 374.333 70.3124C374.435 70.174 374.541 70.349 374.679 70.3124C374.822 70.2757 375.306 70.3124 375.38 70.1373C375.453 69.9582 375.209 69.9256 375.209 69.9256C375.209 69.9256 374.749 69.7506 374.435 69.6814C374.122 69.6121 374.227 69.3679 374.122 69.2254C374.016 69.087 373.702 68.9445 373.67 68.6676C373.629 68.3867 373.56 68.4193 373.495 68.2483C373.421 68.0733 372.896 68.2483 372.689 68.2483C372.477 68.2483 372.334 68.3867 372.334 68.3867C372.334 68.3867 372.55 68.6676 372.656 68.7735C372.754 68.8753 372.55 69.1928 372.44 69.1928C372.334 69.1928 371.948 69.1928 371.671 69.087C371.39 68.9811 371.15 68.9119 371.04 68.7735C370.934 68.6351 370.515 68.5944 370.344 68.4193C370.169 68.2483 369.957 68.3867 369.709 68.1791C369.468 67.9674 369.468 67.7924 369.395 67.5114C369.33 67.2346 369.428 67.2997 369.468 67.0595C369.501 66.8153 369.607 66.8478 369.676 66.742C369.749 66.6361 369.643 66.3919 369.428 66.3227C369.224 66.2535 369.428 66.3227 369.297 66.4285C369.151 66.5344 369.049 66.8478 368.911 67.0188C368.768 67.1939 368.736 67.2346 368.487 67.3405C368.243 67.4422 367.929 67.6214 367.575 67.6214C367.229 67.6214 367.123 67.8616 367.123 67.8616L367.372 68.1791C367.616 68.4926 367.51 68.5618 367.616 68.8753C367.718 69.1928 367.575 69.433 367.404 69.7139C367.229 69.9948 367.091 70.0315 366.985 70.0315C366.875 70.0315 366.598 69.9256 366.496 69.6814C366.391 69.433 366.069 69.2987 366.004 69.1195C365.935 68.9445 365.617 68.7002 365.584 68.4193C365.552 68.1425 365.617 68.1425 365.788 67.6214C365.967 67.0921 366.069 67.5481 366.142 67.373C366.215 67.1939 366.248 67.0595 366.317 66.7786C366.391 66.4977 366.704 66.5344 366.948 66.3919C367.193 66.2535 367.054 65.94 367.123 65.7934C367.193 65.6591 367.787 65.5858 367.824 65.4148C367.856 65.2357 368.21 65.0606 368.455 64.7146C368.695 64.3604 368.801 64.5395 368.87 64.397C368.943 64.2586 369.082 64.2952 369.082 64.2952C369.082 64.2952 369.574 64.222 369.607 64.0469C369.643 63.8759 369.709 63.7334 369.749 63.595C369.782 63.4566 370.063 63.42 370.201 63.3141C370.344 63.2083 370.449 63.2083 370.515 63.0332C370.588 62.8622 370.653 62.7889 370.551 62.6831C370.449 62.5813 370.307 62.6465 370.136 62.7564C369.957 62.8622 369.814 63.0332 369.468 63.1391C369.114 63.2408 369.114 63.2408 368.837 63.1024C368.556 62.9599 368.976 62.6464 368.943 62.508C368.911 62.3696 368.837 62.2597 368.837 62.2597C368.837 62.2597 368.911 61.7019 369.114 61.421C369.33 61.1401 369.33 61.4618 369.676 61.2501C370.03 61.0343 369.957 61.0343 370.136 60.8633C370.307 60.6882 370.307 60.8633 370.551 60.8267C370.796 60.7941 371.04 60.6882 371.321 60.7574C371.602 60.8267 371.321 60.7574 371.569 60.8633C371.813 60.9691 371.85 61.1808 372.229 61.075C372.615 60.9691 372.229 61.075 372.229 60.8999C372.229 60.7208 372.094 60.3015 372.058 60.0246C372.021 59.7437 372.163 59.817 372.196 59.6012C372.229 59.3936 372.334 59.2552 372.334 59.0761C372.334 58.901 372.375 58.6608 372.334 58.3107C372.302 57.9565 372.477 57.8914 372.689 57.6756C372.896 57.468 372.933 57.7489 373.214 57.8222C373.495 57.8914 373.283 58.1031 373.283 58.2049C373.283 58.3107 373.421 58.5916 373.527 58.6242C373.629 58.6608 373.495 59.0761 373.495 59.0761C373.495 59.0761 373.316 59.4628 373.173 59.6012C373.035 59.7437 372.656 59.9554 372.656 59.9554C372.656 59.9554 372.656 60.3748 372.689 60.4765C372.721 60.5824 373.348 60.4073 373.495 60.3748C373.629 60.3422 373.702 60.3422 373.873 60.2689C374.056 60.1956 374.227 59.988 374.468 59.9147C374.716 59.8496 374.749 60.1305 374.749 60.1305C374.749 60.1305 374.854 60.6882 374.854 60.8633C374.854 61.0343 374.647 61.2134 374.508 61.2826C374.37 61.3559 374.293 61.5635 374.293 61.877C374.293 62.1946 374.468 62.0561 374.614 62.0887C374.749 62.1213 374.785 62.508 374.716 62.7157C374.647 62.9274 374.574 63.1391 374.541 63.3467C374.508 63.5543 374.468 63.7701 374.468 63.8759C374.468 63.9818 374.895 64.1894 375.135 64.1894C375.38 64.1894 375.306 64.1894 375.306 64.0469C375.306 63.9085 375.241 63.7334 375.172 63.5217C375.103 63.3141 375.416 63.3141 375.416 63.3141C375.416 63.3141 375.693 63.3467 375.766 63.2083C375.836 63.0698 375.66 62.4347 375.66 62.4347L375.628 62.1538C375.587 61.877 375.587 61.7752 375.628 61.6368C375.66 61.4943 375.66 61.1808 375.868 61.0017C376.08 60.8267 375.868 61.0017 375.941 60.8267C376.015 60.6557 376.149 60.6557 376.292 60.6231C376.426 60.5824 376.393 60.8633 376.328 61.0017C376.255 61.1401 376.292 61.2501 376.255 61.421C376.218 61.5961 376.674 61.531 376.886 61.4618C377.094 61.3885 376.988 61.1808 377.094 61.0017C377.199 60.8267 377.236 60.8267 377.236 60.6882C377.236 60.5498 377.269 59.6745 377.269 59.6745C377.269 59.6745 377.415 59.5035 377.415 59.2226C377.415 58.9417 377.374 58.4165 377.374 58.1682C377.374 57.9239 377.761 57.3296 377.761 57.3296C377.761 57.3296 377.973 57.2237 378.038 57.1179C378.107 57.0161 378.107 56.9428 378.461 56.7026C378.812 56.4583 378.881 56.5968 378.987 56.5968C379.092 56.5968 379.333 56.7026 379.333 56.7026C379.333 56.7026 379.687 56.9835 380.033 57.1179C380.387 57.2604 380.839 57.3296 381.083 57.2237C381.332 57.1179 381.083 57.2237 381.014 57.0161C380.945 56.8044 380.42 56.837 380.281 56.7026C380.139 56.556 380 56.5968 379.894 56.4583C379.789 56.3158 379.687 56.3484 379.581 56.1774C379.471 55.9983 379.333 55.9983 378.775 55.8965C378.213 55.7907 378.213 56.1774 378.107 56.1408C378.005 56.1042 378.038 55.8232 378.075 55.5098C378.107 55.1963 378.286 55.2614 378.567 54.9154C378.848 54.5653 378.567 54.9154 378.388 54.5286C378.213 54.1419 378.388 54.5286 378.286 54.3902C378.181 54.2518 378.107 54.1093 378.148 53.8284C378.181 53.5516 378.6 53.7225 378.706 53.6574C378.812 53.5841 379.227 53.4457 379.581 53.2706C379.931 53.0956 379.968 53.0956 380.314 52.8513C380.668 52.603 381.185 51.976 381.185 51.976C381.185 51.976 381.507 51.8376 381.714 51.4834C381.926 51.1374 381.926 51.1048 381.926 50.8931C381.926 50.6773 382.17 50.5756 382.239 50.3313C382.309 50.087 382.378 50.087 382.488 49.9445C382.585 49.8061 382.626 49.7043 382.626 49.4926C382.626 49.2769 382.451 49.2769 382.451 49.2769C382.451 49.2769 382.239 49.6636 382.101 49.8061C381.959 49.9445 381.959 50.2254 381.645 50.5064C381.332 50.7832 381.332 50.8565 381.12 51.1374C380.904 51.4183 381.014 51.5201 380.872 51.8702C380.733 52.2244 380.452 52.2244 380 52.5053C379.544 52.7821 379.3 52.9165 378.913 53.1322C378.531 53.3439 378.494 53.063 378.461 52.8513C378.425 52.6396 378.005 52.5053 377.973 52.3261C377.932 52.1511 378.005 51.0641 378.107 50.7181C378.213 50.3639 378.461 50.6122 378.531 50.3639C378.6 50.1196 378.6 49.9853 378.6 49.6311C378.6 49.2769 378.913 49.2769 379.092 49.1792C379.268 49.0733 379.544 49.0733 379.719 48.9634C379.894 48.8657 379.894 48.825 380.212 48.825C380.525 48.825 380.733 49.2117 380.733 49.2117C380.733 49.2117 381.226 49.2117 381.291 49.0733C381.364 48.9308 381.083 48.7558 380.977 48.6174C380.872 48.4789 380.904 48.3364 380.904 48.3364C380.904 48.3364 380.42 48.1247 380.212 48.023C380 47.9171 379.65 47.9171 379.373 47.7461C379.092 47.567 379.373 47.3919 379.268 47.2169C379.162 47.0378 378.706 47.0378 378.669 46.7569C378.632 46.48 378.738 46.5859 379.092 46.305C379.439 46.0281 379.092 46.305 379.092 46.134C379.092 45.9589 379.125 45.8205 379.092 45.678C379.056 45.5396 378.738 45.5396 378.6 45.4663C378.461 45.3971 378.706 45.2261 378.706 45.0795C378.706 44.9452 379.125 44.9086 379.227 44.8719C379.333 44.8394 379.333 45.1203 379.333 45.1203C379.333 45.1203 379.646 45.3075 379.695 45.2139C379.748 45.1162 379.748 44.8353 379.748 44.8353C379.748 44.8353 379.797 44.5096 379.797 44.4078C379.797 44.3101 380.094 44.0781 380.122 43.9559C380.147 43.8297 379.894 43.8826 379.894 43.8826C379.894 43.8826 379.768 43.6791 379.768 43.5814C379.768 43.4796 379.797 43.3778 380.094 43.1254C380.395 42.873 380.546 42.7509 380.546 42.7509C380.546 42.7509 380.546 42.3193 380.525 42.1972C380.497 42.0669 380.171 42.0181 380.074 41.9163C379.972 41.8145 379.744 41.6191 379.695 41.269C379.646 40.9148 379.671 40.8659 379.719 40.4914C379.768 40.1087 380.045 39.7342 380.273 39.555C380.497 39.38 380.473 39.5021 380.574 39.4533C380.676 39.4044 380.778 39.2782 380.778 39.2782C380.778 39.2782 380.497 39.0258 380.473 38.7775C380.448 38.525 380.525 38.5739 380.525 38.4721C380.525 38.3703 380.574 38.2238 380.546 38.0202C380.525 37.8248 380.648 37.7475 380.725 37.6742C380.802 37.5928 380.9 37.723 381.002 37.8981C381.104 38.0691 381.303 37.9714 381.328 37.8737C381.356 37.7719 381.303 37.723 381.303 37.6213C381.303 37.5235 381.454 37.2711 381.555 36.9658C381.657 36.6645 381.152 35.9358 381.152 35.9358C381.152 35.9358 380.9 35.6834 380.749 35.3618C380.599 35.032 380.802 34.8814 380.827 34.5272C380.851 34.1812 380.9 34.002 381.303 33.9002C381.706 33.7985 381.657 33.4239 381.629 33.2733C381.604 33.1227 381.527 32.8458 381.376 32.5934C381.226 32.341 381.226 31.8891 381.303 31.6367C381.376 31.3843 381.425 31.4616 381.706 31.3354C381.979 31.2133 382.007 31.3639 382.211 31.3639C382.406 31.3639 382.406 31.7385 382.687 31.9624C382.96 32.1904 382.94 31.5634 382.887 31.4372C382.838 31.3151 382.858 31.2133 382.858 30.908C382.858 30.6067 382.809 30.5863 382.809 30.3339C382.809 30.0815 383.013 30.0042 382.989 29.8535C382.96 29.7029 382.96 29.65 382.809 29.4749C382.659 29.3039 382.455 29.5482 382.26 29.6011C382.06 29.65 381.959 29.65 381.726 29.6296C381.507 29.6011 381.124 29.5279 381.026 29.4261C380.929 29.3243 380.648 29.0515 380.627 28.7218C380.599 28.3961 381.075 28.1966 381.152 27.993C381.226 27.7936 381.629 27.0852 381.629 27.0852V26.6618C381.629 26.4867 381.356 26.3605 381.026 26.0348C380.701 25.7091 380.749 25.7295 380.599 25.4282C380.448 25.127 380.224 25.3061 380.021 25.2532C379.821 25.2043 379.719 25.2776 379.544 25.3265C379.365 25.3794 379.447 25.6806 379.292 26.0552C379.141 26.4379 379.166 26.9101 379.064 27.1625C378.962 27.4149 378.763 27.6389 378.466 27.7203C378.164 27.7936 378.014 27.7203 377.529 27.7203C377.057 27.7203 377.134 27.8913 376.78 27.8709C376.426 27.8424 376.247 27.818 376.173 27.7203C376.104 27.6185 375.498 27.6918 375.347 27.6674C375.196 27.6389 375.229 27.1422 375.229 27.1422C375.229 27.1422 375.274 26.8165 375.274 26.6781C375.274 26.5397 375.229 26.4419 375.184 26.3035C375.135 26.161 374.626 25.9778 374.626 25.9778L374.529 25.6969C374.435 25.416 374.39 25.184 374.248 24.8583C374.109 24.5326 374.248 23.9219 374.207 23.5026C374.154 23.0833 373.873 23.0385 373.69 22.7128C373.499 22.383 373.454 21.8741 373.454 21.7357C373.454 21.5932 373.784 21.2187 373.784 20.9378C373.784 20.6569 373.784 20.5185 373.735 20.3353C373.69 20.1439 373.828 19.863 373.971 19.5414C374.109 19.2157 374.293 19.118 374.293 18.8859C374.293 18.6539 374.626 18.2793 374.574 17.9984C374.529 17.7216 374.626 17.4855 374.626 17.2575C374.626 17.0214 374.716 16.5573 374.671 16.1786C374.618 15.8041 375.135 14.1268 375.184 13.9843C375.229 13.8459 375.274 13.8011 375.367 13.4754C375.465 13.1457 375.465 13.1945 375.604 13.0561C375.746 12.9177 376.027 12.8647 376.112 12.6815C376.21 12.4943 376.629 12.1197 376.629 11.9365C376.629 11.7452 376.723 11.562 376.723 11.3259C376.723 11.0979 377.049 10.8618 377.187 10.4872C377.33 10.1167 377.513 10.2592 377.566 9.97832C377.606 9.69742 377.606 9.22517 377.606 8.66742C377.606 8.37023 377.635 8.1341 377.651 7.95905V7.95498C377.672 7.80841 377.676 7.70257 377.651 7.6415C377.606 7.50308 377.468 6.84763 377.468 6.61965C377.468 6.38352 377.004 5.5408 376.813 5.02784C376.629 4.51895 376.674 4.3276 376.491 3.76579C376.304 3.20805 375.929 2.32461 375.929 2.32461C375.929 2.32461 375.974 1.80758 375.746 1.34347C375.673 1.20912 375.644 1.14806 375.632 1.13177C375.632 1.14399 375.665 1.24984 375.555 1.10735C375.555 1.10735 376.255 1.02999 376.426 1.02999C376.605 1.02999 376.853 1.0992 377.061 0.997425C377.269 0.891577 377.415 1.06256 377.448 0.569957C377.464 0.313476 377.444 0.130276 377.448 0C343.503 3.30168 316.971 31.9095 316.971 66.7216C316.971 103.753 346.992 133.769 384.023 133.769C387.902 133.769 391.701 133.423 395.405 132.788C395.243 132.584 395.141 132.389 394.962 132.373C394.709 132.348 394.31 132.328 393.96 132.328C393.61 132.328 392.934 132.259 392.934 132.259C392.934 132.259 392.397 132.723 392.002 132.165C391.603 131.603 391.277 131.603 391.163 131.603C391.045 131.603 390.74 131.908 390.764 131.558C390.789 131.208 390.459 130.883 390.345 130.883C390.227 130.883 389.787 130.952 389.6 131.07C389.413 131.184 389.156 131.184 388.713 131.184C388.269 131.184 387.849 131.159 387.801 131.09C387.756 131.021 387.174 130.695 387.593 130.646C388.012 130.602 388.737 130.553 388.92 130.508C389.107 130.459 389.364 130.321 389.6 130.113C389.832 129.901 389.694 129.69 390.019 129.69C390.345 129.69 390.764 129.808 390.996 129.853C391.233 129.901 391.652 129.901 391.864 129.877C392.071 129.853 392.022 129.388 392.446 129.388C392.865 129.388 393.683 129.507 393.753 129.596C393.822 129.69 394.029 129.946 394.217 130.064C394.404 130.182 395.035 130.296 395.222 130.345C395.405 130.39 395.548 130.203 395.499 130.113C395.454 130.019 394.38 129.25 394.567 129.177C394.754 129.108 395.011 128.827 395.243 129.038C395.479 129.25 395.825 129.413 395.943 129.413C396.061 129.413 395.617 128.806 396.224 128.989C396.83 129.177 397.343 129.156 397.343 129.388C397.343 129.62 397.763 129.995 397.95 129.971C398.137 129.946 398.463 129.832 398.695 129.877C398.931 129.926 399.183 129.783 399.371 130.019C399.558 130.252 399.7 130.439 400.051 130.508C400.401 130.577 400.564 130.089 400.84 129.926C401.121 129.763 401.96 129.572 401.121 129.226C400.283 128.875 400.515 128.896 399.839 128.639C399.163 128.383 399.375 128.432 398.438 127.988C397.506 127.544 397.274 127.381 397.111 127.357C396.944 127.337 395.849 127.031 395.804 126.168C395.756 125.305 395.735 124.861 395.918 124.487C396.106 124.116 396.175 123.815 396.712 123.624C397.25 123.441 398.601 122.928 398.951 122.81C399.302 122.691 399.631 122.598 399.7 122.39C399.77 122.178 399.888 121.714 399.7 121.503C399.513 121.295 399.326 120.921 398.882 120.99C398.438 121.059 397.95 120.965 397.6 121.177C397.25 121.385 396.667 121.458 396.317 121.572C395.967 121.69 395.173 121.69 395.173 121.69C395.173 121.69 394.404 120.802 394.473 120.196C394.542 119.589 394.428 119.219 394.754 118.795C395.08 118.376 394.778 118.282 395.267 118.144C395.756 118.006 395.544 118.075 396.085 117.7C396.619 117.326 397.783 116.161 398.32 115.836C398.858 115.51 398.837 115.742 398.931 115.18C399.025 114.622 398.789 114.366 398.951 114.317C399.118 114.272 399.444 114.061 399.721 114.272C400.002 114.48 400.189 114.553 400.213 114.855C400.234 115.156 400.234 115.412 400.421 115.53C400.608 115.648 400.91 115.905 401.215 115.762C401.52 115.624 401.589 115.437 401.87 115.254C402.147 115.066 402.404 114.879 402.497 114.879C402.591 114.879 403.34 115.274 403.34 115.274C403.34 115.274 403.804 115.017 403.804 115.579V130.801C431.178 122.358 451.07 96.8642 451.07 66.7216C451.07 57.126 449.051 48.0026 445.419 39.7505C441.552 42.9178 436.609 44.8231 431.223 44.8231Z" fill="white"/>
<path d="M1.19473 144.545C1.03189 144.545 0.926037 144.439 0.926037 144.277V132.829C0.926037 132.666 1.03189 132.556 1.19473 132.556H2.50156C2.66034 132.556 2.77026 132.666 2.77026 132.829V142.88H8.77923C8.94208 142.88 9.04793 142.99 9.04793 143.149V144.277C9.04793 144.439 8.94208 144.545 8.77923 144.545H1.19473ZM15.3012 140.36H19.0751L17.3774 134.453H17.0029L15.3012 140.36ZM22.0389 144.24C22.0918 144.423 22.0185 144.545 21.8231 144.545H20.5163C20.3738 144.545 20.2679 144.492 20.215 144.33L19.5311 141.96H14.8452L14.1653 144.33C14.1124 144.492 14.0025 144.545 13.86 144.545H12.5532C12.3577 144.545 12.2845 144.423 12.3415 144.24L15.7409 132.772C15.7734 132.629 15.9118 132.56 16.0543 132.56H18.326C18.4685 132.56 18.6029 132.629 18.6395 132.772L22.0389 144.24ZM27.0464 142.88H29.6682C31.4106 142.88 32.1353 142.355 32.1353 141.012C32.1353 139.749 31.4757 138.956 29.6682 138.956H27.0464V142.88ZM27.0464 137.388H29.6397C31.0279 137.388 31.6101 136.753 31.6101 135.691C31.6101 134.661 31.0279 134.225 29.6397 134.225H27.0464V137.388ZM25.4708 144.545C25.3121 144.545 25.2021 144.439 25.2021 144.277V132.829C25.2021 132.666 25.3121 132.56 25.4708 132.56H29.8107C32.5302 132.56 33.3607 133.981 33.3607 135.467C33.3607 136.574 32.8803 137.632 31.4228 137.97V138.15C33.2833 138.455 33.9958 139.607 33.9958 141.207C33.9958 143.393 32.7622 144.545 29.6682 144.545H25.4708ZM44.5278 138.597C44.5278 134.929 43.4163 134.152 41.8612 134.152C40.3019 134.152 39.1946 134.929 39.1946 138.597C39.1946 142.265 40.3019 143.043 41.8612 143.043C43.4163 143.043 44.5278 142.265 44.5278 138.597ZM37.4033 138.597C37.4033 134.026 38.934 132.381 41.8612 132.381C44.7842 132.381 46.315 134.026 46.315 138.597C46.315 143.169 44.7842 144.814 41.8612 144.814C38.934 144.814 37.4033 143.169 37.4033 138.597ZM51.9494 138.748H54.3229C55.931 138.748 56.8877 138.202 56.8877 136.484C56.8877 134.758 55.931 134.221 54.3229 134.221H51.9494V138.748ZM50.378 144.545C50.2151 144.545 50.1093 144.439 50.1093 144.277V132.829C50.1093 132.666 50.2151 132.56 50.378 132.56H54.4735C57.4251 132.56 58.6627 134.07 58.6627 136.484C58.6627 138.284 57.9706 139.591 56.3788 140.136L58.5365 144.232C58.6342 144.423 58.5365 144.545 58.3289 144.545H57.0139C56.8714 144.545 56.7737 144.484 56.7004 144.35L54.6526 140.413H51.9494V144.277C51.9494 144.439 51.8436 144.545 51.6807 144.545H50.378ZM64.6432 140.36H68.4171L66.7195 134.453H66.3449L64.6432 140.36ZM71.3809 144.24C71.4338 144.423 71.3605 144.545 71.1651 144.545H69.8583C69.7158 144.545 69.61 144.492 69.557 144.33L68.8772 141.96H64.1872L63.5073 144.33C63.4544 144.492 63.3445 144.545 63.202 144.545H61.8993C61.6998 144.545 61.6306 144.423 61.6835 144.24L65.0829 132.772C65.1195 132.629 65.2539 132.56 65.3963 132.56H67.668C67.8105 132.56 67.9449 132.629 67.9815 132.772L71.3809 144.24ZM78.2163 144.545C78.0535 144.545 77.9476 144.439 77.9476 144.277V134.225H74.5279C74.3691 134.225 74.2592 134.115 74.2592 133.952V132.829C74.2592 132.666 74.3691 132.556 74.5279 132.556H83.2075C83.3663 132.556 83.4762 132.666 83.4762 132.829V133.952C83.4762 134.115 83.3663 134.225 83.2075 134.225H79.7878V144.277C79.7878 144.439 79.6819 144.545 79.5191 144.545H78.2163ZM93.8698 138.597C93.8698 134.929 92.7584 134.152 91.2032 134.152C89.648 134.152 88.5366 134.929 88.5366 138.597C88.5366 142.265 89.648 143.043 91.2032 143.043C92.7584 143.043 93.8698 142.265 93.8698 138.597ZM86.7494 138.597C86.7494 134.026 88.2801 132.381 91.2032 132.381C94.1303 132.381 95.657 134.026 95.657 138.597C95.657 143.169 94.1303 144.814 91.2032 144.814C88.2801 144.814 86.7494 143.169 86.7494 138.597ZM101.296 138.748H103.665C105.277 138.748 106.234 138.202 106.234 136.484C106.234 134.758 105.277 134.221 103.665 134.221H101.296V138.748ZM99.72 144.545C99.5571 144.545 99.4513 144.439 99.4513 144.277V132.829C99.4513 132.666 99.5571 132.56 99.72 132.56H103.816C106.767 132.56 108.005 134.07 108.005 136.484C108.005 138.284 107.313 139.591 105.721 140.136L107.879 144.232C107.976 144.423 107.879 144.545 107.671 144.545H106.356C106.213 144.545 106.116 144.484 106.042 144.35L103.995 140.413H101.296V144.277C101.296 144.439 101.186 144.545 101.027 144.545H99.72ZM111.832 144.545C111.669 144.545 111.563 144.439 111.563 144.277V143.149C111.563 142.99 111.669 142.88 111.832 142.88H114.954V134.225H111.832C111.669 134.225 111.563 134.115 111.563 133.952V132.829C111.563 132.666 111.669 132.556 111.832 132.556H119.917C120.08 132.556 120.186 132.666 120.186 132.829V133.952C120.186 134.115 120.08 134.225 119.917 134.225H116.794V142.88H119.917C120.08 142.88 120.186 142.99 120.186 143.149V144.277C120.186 144.439 120.08 144.545 119.917 144.545H111.832ZM130.876 138.597C130.876 134.929 129.769 134.152 128.21 134.152C126.655 134.152 125.543 134.929 125.543 138.597C125.543 142.265 126.655 143.043 128.21 143.043C129.769 143.043 130.876 142.265 130.876 138.597ZM123.756 138.597C123.756 134.026 125.287 132.381 128.21 132.381C131.137 132.381 132.668 134.026 132.668 138.597C132.668 143.169 131.137 144.814 128.21 144.814C125.287 144.814 123.756 143.169 123.756 138.597ZM150.45 142.88H152.185C155.038 142.88 155.6 141.272 155.6 138.553C155.6 135.833 155.038 134.225 152.185 134.225H150.45V142.88ZM148.875 144.545C148.712 144.545 148.606 144.439 148.606 144.277V132.829C148.606 132.666 148.712 132.56 148.875 132.56H152.246C156.362 132.56 157.461 134.99 157.461 138.553C157.461 142.115 156.362 144.545 152.246 144.545H148.875ZM161.426 144.545C161.263 144.545 161.157 144.439 161.157 144.277V132.829C161.157 132.666 161.263 132.556 161.426 132.556H168.994C169.153 132.556 169.263 132.666 169.263 132.829V133.952C169.263 134.115 169.153 134.225 168.994 134.225H162.997V137.624H168.599C168.762 137.624 168.868 137.73 168.868 137.889V139.017C168.868 139.18 168.762 139.285 168.599 139.285H162.997V142.88H169.01C169.173 142.88 169.279 142.99 169.279 143.149V144.277C169.279 144.439 169.173 144.545 169.01 144.545H161.426ZM189.236 144.545C189.077 144.545 188.967 144.439 188.967 144.277V134.225H185.551C185.389 134.225 185.283 134.115 185.283 133.952V132.829C185.283 132.666 185.389 132.556 185.551 132.556H194.227C194.39 132.556 194.496 132.666 194.496 132.829V133.952C194.496 134.115 194.39 134.225 194.227 134.225H190.811V144.277C190.811 144.439 190.701 144.545 190.543 144.545H189.236ZM199.98 138.748H202.353C203.961 138.748 204.918 138.202 204.918 136.484C204.918 134.758 203.961 134.221 202.353 134.221H199.98V138.748ZM198.404 144.545C198.245 144.545 198.139 144.439 198.139 144.277V132.829C198.139 132.666 198.245 132.56 198.404 132.56H202.504C205.455 132.56 206.689 134.07 206.689 136.484C206.689 138.284 206.001 139.591 204.409 140.136L206.567 144.232C206.664 144.423 206.567 144.545 206.359 144.545H205.044C204.902 144.545 204.804 144.484 204.731 144.35L202.683 140.413H199.98V144.277C199.98 144.439 199.874 144.545 199.711 144.545H198.404ZM212.673 140.36H216.447L214.75 134.453H214.375L212.673 140.36ZM219.411 144.24C219.464 144.423 219.395 144.545 219.195 144.545H217.888C217.746 144.545 217.64 144.492 217.587 144.33L216.903 141.96H212.217L211.537 144.33C211.485 144.492 211.375 144.545 211.232 144.545H209.929C209.73 144.545 209.657 144.423 209.714 144.24L213.113 132.772C213.15 132.629 213.284 132.56 213.426 132.56H215.698C215.841 132.56 215.975 132.629 216.012 132.772L219.411 144.24ZM230.753 132.56C230.916 132.56 231.022 132.666 231.022 132.829V144.277C231.022 144.439 230.916 144.545 230.753 144.545H229.141C228.998 144.545 228.876 144.492 228.819 144.366L224.455 135.226V144.277C224.455 144.439 224.349 144.545 224.186 144.545H223.042C222.88 144.545 222.774 144.439 222.774 144.277V132.829C222.774 132.666 222.88 132.56 223.042 132.56H224.671C224.813 132.56 224.927 132.613 224.993 132.739L229.34 141.862V132.829C229.34 132.666 229.446 132.56 229.609 132.56H230.753ZM234.804 141.512C234.788 141.333 234.893 141.199 235.056 141.199H236.29C236.453 141.199 236.53 141.317 236.559 141.459C236.701 142.481 237.597 143.177 239.262 143.177C240.736 143.177 241.855 142.64 241.855 141.309C241.855 140.128 241.033 139.688 239.038 139.232C236.872 138.732 235.073 137.909 235.073 135.646C235.073 133.704 236.453 132.381 239.233 132.381C241.647 132.381 243.133 133.382 243.337 135.536C243.357 135.715 243.247 135.813 243.089 135.813H241.945C241.782 135.813 241.692 135.735 241.676 135.589C241.542 134.652 240.683 134.017 239.18 134.017C237.747 134.017 236.852 134.563 236.852 135.691C236.852 136.619 237.462 137.229 239.457 137.685C241.737 138.215 243.663 138.821 243.663 141.325C243.663 143.507 242.132 144.814 239.18 144.814C236.575 144.814 234.991 143.776 234.804 141.512ZM247.526 144.545C247.363 144.545 247.257 144.439 247.257 144.277V143.149C247.257 142.99 247.363 142.88 247.526 142.88H250.649V134.225H247.526C247.363 134.225 247.257 134.115 247.257 133.952V132.829C247.257 132.666 247.363 132.556 247.526 132.556H255.611C255.774 132.556 255.88 132.666 255.88 132.829V133.952C255.88 134.115 255.774 134.225 255.611 134.225H252.489V142.88H255.611C255.774 142.88 255.88 142.99 255.88 143.149V144.277C255.88 144.439 255.774 144.545 255.611 144.545H247.526ZM259.451 138.597C259.451 134.026 260.989 132.381 264.075 132.381C266.416 132.381 268.098 133.309 268.305 136.594C268.326 136.782 268.244 136.888 268.065 136.888H266.876C266.722 136.888 266.616 136.826 266.587 136.655C266.347 134.543 265.362 134.144 264.083 134.144C262.357 134.144 261.238 134.921 261.238 138.597C261.238 142.274 262.357 143.051 264.083 143.051C265.398 143.051 266.347 142.648 266.587 141.056C266.616 140.885 266.722 140.824 266.876 140.824H268.065C268.244 140.824 268.326 140.93 268.305 141.121C268.098 143.882 266.416 144.814 264.075 144.814C260.989 144.814 259.451 143.169 259.451 138.597ZM272.197 144.545C272.034 144.545 271.928 144.439 271.928 144.277V143.149C271.928 142.99 272.034 142.88 272.197 142.88H275.32V134.225H272.197C272.034 134.225 271.928 134.115 271.928 133.952V132.829C271.928 132.666 272.034 132.556 272.197 132.556H280.282C280.445 132.556 280.551 132.666 280.551 132.829V133.952C280.551 134.115 280.445 134.225 280.282 134.225H277.16V142.88H280.282C280.445 142.88 280.551 142.99 280.551 143.149V144.277C280.551 144.439 280.445 144.545 280.282 144.545H272.197ZM291.242 138.597C291.242 134.929 290.13 134.152 288.575 134.152C287.02 134.152 285.909 134.929 285.909 138.597C285.909 142.265 287.02 143.043 288.575 143.043C290.13 143.043 291.242 142.265 291.242 138.597ZM284.121 138.597C284.121 134.026 285.648 132.381 288.575 132.381C291.502 132.381 293.029 134.026 293.029 138.597C293.029 143.169 291.502 144.814 288.575 144.814C285.648 144.814 284.121 143.169 284.121 138.597ZM304.766 132.56C304.929 132.56 305.035 132.666 305.035 132.829V144.277C305.035 144.439 304.929 144.545 304.766 144.545H303.158C303.016 144.545 302.889 144.492 302.836 144.366L298.468 135.226V144.277C298.468 144.439 298.362 144.545 298.203 144.545H297.055C296.897 144.545 296.787 144.439 296.787 144.277V132.829C296.787 132.666 296.897 132.56 297.055 132.56H298.684C298.826 132.56 298.944 132.613 299.005 132.739L303.353 141.862V132.829C303.353 132.666 303.463 132.56 303.622 132.56H304.766ZM309.456 144.545C309.293 144.545 309.187 144.439 309.187 144.277V132.829C309.187 132.666 309.293 132.556 309.456 132.556H317.024C317.183 132.556 317.293 132.666 317.293 132.829V133.952C317.293 134.115 317.183 134.225 317.024 134.225H311.028V137.624H316.629C316.792 137.624 316.898 137.73 316.898 137.889V139.017C316.898 139.18 316.792 139.285 316.629 139.285H311.028V142.88H317.041C317.203 142.88 317.309 142.99 317.309 143.149V144.277C317.309 144.439 317.203 144.545 317.041 144.545H309.456ZM321.156 141.512C321.136 141.333 321.246 141.199 321.405 141.199H322.642C322.801 141.199 322.883 141.317 322.907 141.459C323.05 142.481 323.945 143.177 325.61 143.177C327.088 143.177 328.204 142.64 328.204 141.309C328.204 140.128 327.381 139.688 325.386 139.232C323.221 138.732 321.425 137.909 321.425 135.646C321.425 133.704 322.801 132.381 325.582 132.381C328 132.381 329.482 133.382 329.69 135.536C329.706 135.715 329.6 135.813 329.437 135.813H328.293C328.134 135.813 328.045 135.735 328.024 135.589C327.89 134.652 327.031 134.017 325.529 134.017C324.1 134.017 323.204 134.563 323.204 135.691C323.204 136.619 323.811 137.229 325.806 137.685C328.09 138.215 330.011 138.821 330.011 141.325C330.011 143.507 328.48 144.814 325.529 144.814C322.927 144.814 321.344 143.776 321.156 141.512ZM4.19922 167.392C4.04045 167.392 3.93053 167.282 3.93053 167.124V157.068H0.514853C0.352008 157.068 0.246159 156.958 0.246159 156.799V155.672C0.246159 155.509 0.352008 155.403 0.514853 155.403H9.19042C9.35326 155.403 9.45911 155.509 9.45911 155.672V156.799C9.45911 156.958 9.35326 157.068 9.19042 157.068H5.77474V167.124C5.77474 167.282 5.66482 167.392 5.50605 167.392H4.19922ZM13.3959 167.392C13.233 167.392 13.1272 167.282 13.1272 167.124V155.672C13.1272 155.509 13.233 155.403 13.3959 155.403H20.9641C21.1229 155.403 21.2328 155.509 21.2328 155.672V156.799C21.2328 156.958 21.1229 157.068 20.9641 157.068H14.9714V160.467H20.5692C20.7321 160.467 20.8379 160.573 20.8379 160.736V161.864C20.8379 162.023 20.7321 162.133 20.5692 162.133H14.9714V165.727H20.9804C21.1432 165.727 21.2491 165.833 21.2491 165.996V167.124C21.2491 167.282 21.1432 167.392 20.9804 167.392H13.3959ZM27.2784 161.595H29.6478C31.26 161.595 32.2167 161.05 32.2167 159.332C32.2167 157.605 31.26 157.068 29.6478 157.068H27.2784V161.595ZM25.7029 167.392C25.5441 167.392 25.4383 167.282 25.4383 167.124V155.672C25.4383 155.509 25.5441 155.403 25.7029 155.403H29.8025C32.7541 155.403 33.9876 156.913 33.9876 159.332C33.9876 161.127 33.2996 162.434 31.7078 162.979L33.8655 167.079C33.9632 167.266 33.8655 167.392 33.6579 167.392H32.3429C32.2004 167.392 32.1027 167.327 32.0294 167.193L29.9816 163.256H27.2784V167.124C27.2784 167.282 27.1726 167.392 27.0097 167.392H25.7029ZM39.6139 161.595H41.9874C43.5955 161.595 44.5522 161.05 44.5522 159.332C44.5522 157.605 43.5955 157.068 41.9874 157.068H39.6139V161.595ZM38.0384 167.392C37.8796 167.392 37.7738 167.282 37.7738 167.124V155.672C37.7738 155.509 37.8796 155.403 38.0384 155.403H42.138C45.0896 155.403 46.3231 156.913 46.3231 159.332C46.3231 161.127 45.6351 162.434 44.0433 162.979L46.201 167.079C46.2987 167.266 46.201 167.392 45.9934 167.392H44.6784C44.5359 167.392 44.4382 167.327 44.3649 167.193L42.3171 163.256H39.6139V167.124C39.6139 167.282 39.5081 167.392 39.3452 167.392H38.0384ZM50.1541 167.392C49.9912 167.392 49.8854 167.282 49.8854 167.124V165.996C49.8854 165.833 49.9912 165.727 50.1541 165.727H53.2766V157.068H50.1541C49.9912 157.068 49.8854 156.958 49.8854 156.799V155.672C49.8854 155.509 49.9912 155.403 50.1541 155.403H58.2393C58.4022 155.403 58.508 155.509 58.508 155.672V156.799C58.508 156.958 58.4022 157.068 58.2393 157.068H55.1168V165.727H58.2393C58.4022 165.727 58.508 165.833 58.508 165.996V167.124C58.508 167.282 58.4022 167.392 58.2393 167.392H50.1541ZM65.8767 167.392C65.718 167.392 65.608 167.282 65.608 167.124V157.068H62.1924C62.0336 157.068 61.9237 156.958 61.9237 156.799V155.672C61.9237 155.509 62.0336 155.403 62.1924 155.403H70.872C71.0308 155.403 71.1407 155.509 71.1407 155.672V156.799C71.1407 156.958 71.0308 157.068 70.872 157.068H67.4523V167.124C67.4523 167.282 67.3464 167.392 67.1836 167.392H65.8767ZM81.5343 161.44C81.5343 157.776 80.4229 156.995 78.8677 156.995C77.3125 156.995 76.2011 157.776 76.2011 161.44C76.2011 165.109 77.3125 165.886 78.8677 165.886C80.4229 165.886 81.5343 165.109 81.5343 161.44ZM74.4139 161.44C74.4139 156.869 75.9405 155.224 78.8677 155.224C81.7948 155.224 83.3215 156.869 83.3215 161.44C83.3215 166.012 81.7948 167.657 78.8677 167.657C75.9405 167.657 74.4139 166.012 74.4139 161.44ZM88.96 161.595H91.3294C92.9375 161.595 93.8942 161.05 93.8942 159.332C93.8942 157.605 92.9375 157.068 91.3294 157.068H88.96V161.595ZM87.3845 167.392C87.2216 167.392 87.1158 167.282 87.1158 167.124V155.672C87.1158 155.509 87.2216 155.403 87.3845 155.403H91.48C94.4316 155.403 95.6692 156.913 95.6692 159.332C95.6692 161.127 94.9771 162.434 93.3853 162.979L95.543 167.079C95.6407 167.266 95.543 167.392 95.3354 167.392H94.0204C93.8779 167.392 93.7802 167.327 93.7069 167.193L91.6592 163.256H88.96V167.124C88.96 167.282 88.8501 167.392 88.6872 167.392H87.3845ZM99.4961 167.392C99.3332 167.392 99.2274 167.282 99.2274 167.124V165.996C99.2274 165.833 99.3332 165.727 99.4961 165.727H102.619V157.068H99.4961C99.3332 157.068 99.2274 156.958 99.2274 156.799V155.672C99.2274 155.509 99.3332 155.403 99.4961 155.403H107.581C107.744 155.403 107.85 155.509 107.85 155.672V156.799C107.85 156.958 107.744 157.068 107.581 157.068H104.459V165.727H107.581C107.744 165.727 107.85 165.833 107.85 165.996V167.124C107.85 167.282 107.744 167.392 107.581 167.392H99.4961ZM113.989 163.203H117.763L116.061 157.3H115.687L113.989 163.203ZM120.723 167.087C120.776 167.266 120.707 167.392 120.511 167.392H119.204C119.058 167.392 118.952 167.34 118.899 167.177L118.219 164.807H113.529L112.849 167.177C112.796 167.34 112.691 167.392 112.548 167.392H111.241C111.046 167.392 110.973 167.266 111.025 167.087L114.425 155.619C114.462 155.476 114.596 155.403 114.738 155.403H117.01C117.157 155.403 117.291 155.476 117.324 155.619L120.723 167.087ZM124.554 167.392C124.391 167.392 124.281 167.282 124.281 167.124V155.672C124.281 155.509 124.391 155.403 124.554 155.403H125.857C126.019 155.403 126.125 155.509 126.125 155.672V165.727H132.138C132.297 165.727 132.407 165.833 132.407 165.996V167.124C132.407 167.282 132.297 167.392 132.138 167.392H124.554ZM136.755 167.392C136.592 167.392 136.486 167.282 136.486 167.124V155.672C136.486 155.509 136.592 155.403 136.755 155.403H144.323C144.482 155.403 144.592 155.509 144.592 155.672V156.799C144.592 156.958 144.482 157.068 144.323 157.068H138.326V160.467H143.928C144.091 160.467 144.197 160.573 144.197 160.736V161.864C144.197 162.023 144.091 162.133 143.928 162.133H138.326V165.727H144.339C144.502 165.727 144.608 165.833 144.608 165.996V167.124C144.608 167.282 144.502 167.392 144.339 167.392H136.755ZM148.455 164.359C148.435 164.18 148.545 164.046 148.704 164.046H149.937C150.1 164.046 150.182 164.16 150.206 164.307C150.353 165.324 151.244 166.02 152.909 166.02C154.387 166.02 155.503 165.487 155.503 164.152C155.503 162.971 154.68 162.531 152.685 162.076C150.519 161.575 148.72 160.752 148.72 158.489C148.72 156.547 150.1 155.224 152.881 155.224C155.299 155.224 156.781 156.225 156.988 158.383C157.005 158.558 156.899 158.66 156.736 158.66H155.592C155.433 158.66 155.344 158.578 155.323 158.436C155.189 157.496 154.33 156.86 152.828 156.86C151.399 156.86 150.503 157.406 150.503 158.534C150.503 159.466 151.11 160.073 153.105 160.528C155.389 161.058 157.31 161.664 157.31 164.172C157.31 166.354 155.779 167.657 152.828 167.657C150.226 167.657 148.643 166.619 148.455 164.359ZM175.121 165.727H176.856C179.709 165.727 180.271 164.115 180.271 161.396C180.271 158.676 179.709 157.068 176.856 157.068H175.121V165.727ZM173.546 167.392C173.383 167.392 173.277 167.282 173.277 167.124V155.672C173.277 155.509 173.383 155.403 173.546 155.403H176.917C181.033 155.403 182.132 157.837 182.132 161.396C182.132 164.958 181.033 167.392 176.917 167.392H173.546ZM186.097 167.392C185.934 167.392 185.828 167.282 185.828 167.124V155.672C185.828 155.509 185.934 155.403 186.097 155.403H193.665C193.824 155.403 193.934 155.509 193.934 155.672V156.799C193.934 156.958 193.824 157.068 193.665 157.068H187.668V160.467H193.27C193.433 160.467 193.539 160.573 193.539 160.736V161.864C193.539 162.023 193.433 162.133 193.27 162.133H187.668V165.727H193.682C193.844 165.727 193.95 165.833 193.95 165.996V167.124C193.95 167.282 193.844 167.392 193.682 167.392H186.097ZM210.902 167.392C210.74 167.392 210.634 167.282 210.634 167.124V155.672C210.634 155.509 210.74 155.403 210.902 155.403H212.209C212.368 155.403 212.478 155.509 212.478 155.672V165.727H218.491C218.65 165.727 218.756 165.833 218.756 165.996V167.124C218.756 167.282 218.65 167.392 218.491 167.392H210.902ZM225.009 163.203H228.783L227.085 157.3H226.711L225.009 163.203ZM231.747 167.087C231.799 167.266 231.726 167.392 231.531 167.392H230.224C230.081 167.392 229.976 167.34 229.923 167.177L229.243 164.807H224.553L223.873 167.177C223.82 167.34 223.71 167.392 223.568 167.392H222.265C222.065 167.392 221.996 167.266 222.049 167.087L225.448 155.619C225.485 155.476 225.619 155.403 225.762 155.403H228.034C228.176 155.403 228.31 155.476 228.347 155.619L231.747 167.087ZM247.506 167.392C247.347 167.392 247.237 167.282 247.237 167.124V165.906C247.237 165.78 247.274 165.691 247.347 165.585L253.69 157.068H247.685C247.526 157.068 247.416 156.958 247.416 156.799V155.672C247.416 155.509 247.526 155.403 247.685 155.403H255.453C255.611 155.403 255.721 155.509 255.721 155.672V156.889C255.721 157.011 255.685 157.105 255.611 157.211L249.269 165.727H255.632C255.791 165.727 255.9 165.833 255.9 165.996V167.124C255.9 167.282 255.791 167.392 255.632 167.392H247.506ZM266.571 161.44C266.571 157.776 265.459 156.995 263.904 156.995C262.349 156.995 261.238 157.776 261.238 161.44C261.238 165.109 262.349 165.886 263.904 165.886C265.459 165.886 266.571 165.109 266.571 161.44ZM259.451 161.44C259.451 156.869 260.977 155.224 263.904 155.224C266.827 155.224 268.358 156.869 268.358 161.44C268.358 166.012 266.827 167.657 263.904 167.657C260.977 167.657 259.451 166.012 259.451 161.44ZM280.095 155.403C280.258 155.403 280.364 155.509 280.364 155.672V167.124C280.364 167.282 280.258 167.392 280.095 167.392H278.487C278.345 167.392 278.218 167.339 278.165 167.209L273.797 158.07V167.124C273.797 167.282 273.691 167.392 273.528 167.392H272.384C272.222 167.392 272.116 167.282 272.116 167.124V155.672C272.116 155.509 272.222 155.403 272.384 155.403H274.013C274.155 155.403 274.273 155.456 274.335 155.582L278.682 164.705V155.672C278.682 155.509 278.788 155.403 278.951 155.403H280.095ZM286.686 163.203H290.464L288.763 157.3H288.388L286.686 163.203ZM293.424 167.087C293.477 167.266 293.408 167.392 293.208 167.392H291.901C291.759 167.392 291.653 167.34 291.6 167.177L290.92 164.807H286.234L285.55 167.177C285.498 167.34 285.392 167.392 285.249 167.392H283.942C283.743 167.392 283.674 167.266 283.727 167.087L287.126 155.619C287.163 155.476 287.297 155.403 287.439 155.403H289.711C289.854 155.403 289.988 155.476 290.025 155.619L293.424 167.087ZM308.821 164.359C308.801 164.18 308.911 164.046 309.069 164.046H310.303C310.466 164.046 310.547 164.16 310.572 164.307C310.714 165.324 311.61 166.02 313.275 166.02C314.749 166.02 315.868 165.487 315.868 164.152C315.868 162.971 315.046 162.531 313.051 162.076C310.885 161.575 309.086 160.752 309.086 158.489C309.086 156.547 310.466 155.224 313.246 155.224C315.66 155.224 317.146 156.225 317.354 158.383C317.37 158.558 317.264 158.66 317.102 158.66H315.958C315.795 158.66 315.705 158.578 315.689 158.436C315.555 157.496 314.696 156.86 313.193 156.86C311.764 156.86 310.869 157.406 310.869 158.534C310.869 159.466 311.475 160.073 313.47 160.528C315.75 161.058 317.676 161.664 317.676 164.172C317.676 166.354 316.145 167.657 313.193 167.657C310.592 167.657 309.008 166.619 308.821 164.359ZM321.307 163.443V155.672C321.307 155.509 321.413 155.403 321.576 155.403H322.883C323.041 155.403 323.151 155.509 323.151 155.672V163.285C323.151 164.921 323.99 165.898 325.586 165.898C327.178 165.898 328.016 164.921 328.016 163.285V155.672C328.016 155.509 328.122 155.403 328.285 155.403H329.592C329.751 155.403 329.861 155.509 329.861 155.672V163.443C329.861 166.244 328.257 167.657 325.586 167.657C322.907 167.657 321.307 166.244 321.307 163.443ZM335.674 161.595H338.044C339.656 161.595 340.612 161.05 340.612 159.332C340.612 157.605 339.656 157.068 338.044 157.068H335.674V161.595ZM334.099 167.392C333.94 167.392 333.83 167.282 333.83 167.124V155.672C333.83 155.509 333.94 155.403 334.099 155.403H338.198C341.15 155.403 342.383 156.913 342.383 159.332C342.383 161.127 341.695 162.434 340.103 162.979L342.257 167.079C342.355 167.266 342.257 167.392 342.054 167.392H340.739C340.592 167.392 340.494 167.327 340.425 167.193L338.377 163.256H335.674V167.124C335.674 167.282 335.568 167.392 335.405 167.392H334.099ZM9.47947 178.246C9.69116 178.246 9.76444 178.38 9.6586 178.568L5.77474 185.582V189.967C5.77474 190.126 5.66889 190.236 5.50605 190.236H4.19922C4.04045 190.236 3.93053 190.126 3.93053 189.967V185.574L0.050745 178.568C-0.0591756 178.38 0.014106 178.246 0.225803 178.246H1.60591C1.7484 178.246 1.85832 178.303 1.92753 178.425L4.85467 183.848L7.77774 178.425C7.85102 178.303 7.95687 178.246 8.09936 178.246H9.47947ZM27.6367 186.046H31.4106L29.7129 180.143H29.3384L27.6367 186.046ZM34.3744 189.93C34.4273 190.109 34.354 190.236 34.1586 190.236H32.8518C32.7093 190.236 32.6034 190.183 32.5505 190.02L31.8666 187.65H27.1807L26.5008 190.02C26.4479 190.183 26.338 190.236 26.1955 190.236H24.8927C24.6933 190.236 24.62 190.109 24.677 189.93L28.0764 178.462C28.113 178.319 28.2473 178.246 28.3898 178.246H30.6615C30.804 178.246 30.9384 178.319 30.975 178.462L34.3744 189.93ZM37.5824 186.291V178.515C37.5824 178.356 37.6923 178.246 37.8511 178.246H39.158C39.3208 178.246 39.4266 178.356 39.4266 178.515V186.128C39.4266 187.764 40.2694 188.741 41.8612 188.741C43.453 188.741 44.2957 187.764 44.2957 186.128V178.515C44.2957 178.356 44.4016 178.246 44.5603 178.246H45.8672C46.03 178.246 46.1359 178.356 46.1359 178.515V186.291C46.1359 189.092 44.5359 190.504 41.8612 190.504C39.1865 190.504 37.5824 189.092 37.5824 186.291ZM49.7673 187.202C49.751 187.023 49.8569 186.889 50.0197 186.889H51.2533C51.4161 186.889 51.4935 187.007 51.522 187.15C51.6644 188.167 52.5601 188.868 54.2252 188.868C55.6989 188.868 56.8185 188.33 56.8185 186.999C56.8185 185.814 55.9961 185.379 54.0013 184.923C51.8354 184.418 50.036 183.595 50.036 181.332C50.036 179.394 51.4161 178.067 54.1967 178.067C56.6109 178.067 58.0968 179.068 58.3044 181.226C58.3207 181.405 58.2149 181.503 58.052 181.503H56.9081C56.7452 181.503 56.6556 181.421 56.6394 181.279C56.505 180.343 55.646 179.708 54.1438 179.708C52.7107 179.708 51.8191 180.253 51.8191 181.377C51.8191 182.309 52.4257 182.916 54.4206 183.376C56.7004 183.901 58.6261 184.507 58.6261 187.015C58.6261 189.197 57.0953 190.504 54.1438 190.504C51.5382 190.504 49.9546 189.466 49.7673 187.202ZM65.8767 190.236C65.718 190.236 65.608 190.13 65.608 189.967V179.911H62.1924C62.0336 179.911 61.9237 179.805 61.9237 179.642V178.515C61.9237 178.356 62.0336 178.246 62.1924 178.246H70.872C71.0308 178.246 71.1407 178.356 71.1407 178.515V179.642C71.1407 179.805 71.0308 179.911 70.872 179.911H67.4523V189.967C67.4523 190.13 67.3464 190.236 67.1836 190.236H65.8767ZM76.6204 184.438H78.9939C80.602 184.438 81.5587 183.893 81.5587 182.175C81.5587 180.449 80.602 179.911 78.9939 179.911H76.6204V184.438ZM75.049 190.236C74.8861 190.236 74.7803 190.13 74.7803 189.967V178.515C74.7803 178.356 74.8861 178.246 75.049 178.246H79.1445C82.0961 178.246 83.3337 179.761 83.3337 182.175C83.3337 183.974 82.6416 185.281 81.0498 185.826L83.2075 189.922C83.3052 190.109 83.2075 190.236 82.9999 190.236H81.6849C81.5424 190.236 81.4447 190.174 81.3714 190.04L79.3237 186.103H76.6204V189.967C76.6204 190.13 76.5146 190.236 76.3517 190.236H75.049ZM89.3142 186.046H93.0922L91.3905 180.143H91.0159L89.3142 186.046ZM96.0519 189.93C96.1048 190.109 96.0356 190.236 95.8361 190.236H94.5293C94.3868 190.236 94.281 190.183 94.228 190.02L93.5482 187.65H88.8582L88.1783 190.02C88.1254 190.183 88.0196 190.236 87.8771 190.236H86.5703C86.3708 190.236 86.3016 190.109 86.3545 189.93L89.7539 178.462C89.7905 178.319 89.9249 178.246 90.0673 178.246H92.339C92.4815 178.246 92.6159 178.319 92.6525 178.462L96.0519 189.93ZM99.8788 190.236C99.72 190.236 99.6101 190.13 99.6101 189.967V178.515C99.6101 178.356 99.72 178.246 99.8788 178.246H101.186C101.348 178.246 101.454 178.356 101.454 178.515V188.57H107.467C107.626 188.57 107.736 188.676 107.736 188.839V189.967C107.736 190.13 107.626 190.236 107.467 190.236H99.8788ZM0.860899 24.8868H18.041V94.2058H54.8033V108.984H0.860899V24.8868ZM95.771 92.044V82.5543C92.6444 80.9909 89.2816 80.0301 83.7571 80.0301C77.5079 80.0301 74.023 83.2749 74.023 88.6813C74.023 94.328 77.1456 97.5726 83.0324 97.5726C88.4389 97.5726 93.0067 95.0485 95.771 92.044ZM57.5635 89.0396C57.5635 75.3443 68.1362 68.7369 81.4732 68.7369C87.6002 68.7369 92.0459 69.9378 95.771 71.7413V67.2957C95.771 60.33 92.0459 57.4476 84.836 57.4476C78.1105 57.4476 72.8221 58.8888 67.0533 62.0114L62.1313 49.9975C69.2191 46.5126 77.0275 44.591 87.7183 44.591C104.418 44.591 112.829 52.6396 112.829 67.4178V108.984H95.771V103.459C91.4434 107.18 85.5565 110.307 78.5909 110.307C66.8172 110.307 57.5635 103.578 57.5635 89.0396ZM133.128 90.6029V60.0857H120.393V45.9101H133.128V28.7299L149.949 21.4019V45.9101H168.689V60.0857H149.949V87.7205C149.949 93.7254 152.474 95.651 157.037 95.651C161.963 95.651 164.968 94.0877 168.453 92.1662L165.688 106.822C161.601 108.866 157.64 110.307 150.67 110.307C139.255 110.307 133.128 103.7 133.128 90.6029ZM180.104 103.219L185.271 90.3626C192.114 94.446 201.005 97.0922 208.093 97.0922C214.22 97.0922 216.985 95.0485 216.985 91.6858C216.985 88.319 215.543 86.9999 206.652 84.716C190.555 80.6327 181.545 75.8287 181.545 63.9329C181.545 51.919 190.193 44.591 205.813 44.591C216.382 44.591 223.954 46.993 231.042 50.9583L226.116 63.6927C219.028 59.7275 212.539 57.8059 205.093 57.8059C199.686 57.8059 197.403 59.6053 197.403 62.6098C197.403 65.7324 198.722 67.2957 207.613 69.5796C223.714 73.9031 232.724 77.7463 232.724 90.1225C232.724 104.058 223.112 110.307 207.613 110.307C196.922 110.307 187.791 107.665 180.104 103.219ZM275.971 92.044V82.5543C272.849 80.9909 269.482 80.0301 263.957 80.0301C257.708 80.0301 254.227 83.2749 254.227 88.6813C254.227 94.328 257.35 97.5726 263.237 97.5726C268.643 97.5726 273.207 95.0485 275.971 92.044ZM237.768 89.0396C237.768 75.3443 248.34 68.7369 261.673 68.7369C267.8 68.7369 272.246 69.9378 275.971 71.7413V67.2957C275.971 60.33 272.246 57.4476 265.04 57.4476C258.311 57.4476 253.026 58.8888 247.257 62.0114L242.331 49.9975C249.419 46.5126 257.228 44.591 267.922 44.591C284.618 44.591 293.029 52.6396 293.029 67.4178V108.984H275.971V103.459C271.648 107.18 265.757 110.307 258.791 110.307C247.017 110.307 237.768 103.578 237.768 89.0396Z" fill="white"/>
<path d="M428.086 8.21367C421.009 10.0194 415.917 17.7258 417.198 24.6905C419.344 36.3308 432.762 40.9739 441.345 33.0741C443.587 31.0104 445.284 27.7538 445.829 24.5616C446.821 18.4029 443.427 12.083 437.598 9.27773C435.42 8.24591 434.812 8.11693 432.218 8.0202C430.584 7.95571 428.727 8.05244 428.086 8.21367Z" fill="#A1C400"/>
</svg>
