<svg width="161" height="161" viewBox="0 0 161 161" fill="none" xmlns="http://www.w3.org/2000/svg">
<path d="M95.151 140.016C95.0938 140.182 94.5625 140.354 94.5625 140.354C94.5625 140.354 94.0885 140.578 94.0312 140.354C93.9792 140.13 93.9479 140.016 93.9792 139.849C94.0052 139.682 93.8646 139.542 94.0625 139.349C94.2552 139.151 94.4219 138.87 94.5365 138.901C94.651 138.927 95.125 138.984 95.1771 139.125C95.2344 139.26 95.2917 139.234 95.3177 139.49C95.349 139.74 95.2083 139.849 95.151 140.016ZM93.25 150.615C93.3906 150.812 93.0521 151.375 93.0521 151.375L92.8594 151.427C92.8594 151.427 92.6615 151.26 92.5781 151.094C92.4948 150.922 92.3281 151.062 92.1302 151.094C91.9375 151.12 92.1615 151.344 92.1615 151.542C92.1615 151.734 92.4115 151.901 92.6615 152.38C92.9167 152.854 92.6927 153.052 92.5521 153.328C92.4115 153.609 91.8229 153.276 91.7656 153.052C91.7135 152.828 91.5469 152.964 91.349 152.745C91.151 152.516 90.9271 152.323 90.651 151.958C90.3698 151.599 90.5938 151.375 90.5938 151.005C90.5938 150.646 90.7865 150.365 90.9844 150.224C91.1771 150.083 91.2656 150.281 91.349 150.281C91.4323 150.281 91.625 150.057 91.6823 149.776C91.7396 149.5 91.6562 149.302 91.5729 149.219C91.4896 149.135 91.4896 148.688 91.4896 148.521C91.4896 148.354 91.6823 148.38 92.1302 148.604C92.5781 148.828 92.5781 149.245 92.6615 149.693C92.7448 150.141 93.1094 150.422 93.25 150.615ZM89.6667 153.359C89.5885 153.75 89.4479 154.224 89.3906 154.312C89.3333 154.396 88.8021 154.589 88.8021 154.589C88.5781 154.479 88.1354 154.057 88.1042 153.724C88.0781 153.385 87.7656 153.104 87.8229 152.885C87.8802 152.661 87.6875 152.438 87.9635 152.349C88.2448 152.266 87.9635 151.958 88.4948 152.214C89.026 152.464 89.0833 152.406 89.25 152.406C89.4219 152.406 89.5885 152.432 89.6406 152.63C89.6979 152.828 89.7552 152.964 89.6667 153.359ZM85.5312 152.24C85.5052 152.438 85.224 152.214 85.0833 152.547C84.9427 152.885 84.9427 153.078 84.9427 153.302C84.9427 153.526 84.5781 153.667 84.5781 153.667C84.3594 153.219 84.0208 153.104 83.8802 152.63C83.7396 152.156 83.6562 152.073 83.599 151.818C83.5469 151.568 83.2917 151.234 83.5469 151.062C83.7969 150.896 84.1042 150.615 84.1927 150.479C84.2708 150.339 84.1875 150.031 84.4688 150.255C84.75 150.479 84.8333 150.615 85.1094 150.839C85.3906 151.062 85.6146 150.589 85.6406 151.151C85.6719 151.708 85.5573 152.042 85.5312 152.24ZM82.5938 150.115C82.4271 150.391 82.0104 150.365 81.8646 150.589C81.724 150.812 81.7552 151.344 81.5052 151.51C81.2552 151.682 81.1667 151.708 80.5833 151.734C79.9948 151.766 80.1354 152.073 79.7448 152.323C79.7448 152.323 79.2083 152.604 79.0677 152.604C78.9323 152.604 78.7917 152.406 78.7656 152.016C78.7344 151.625 78.9896 151.901 79.0156 151.734C79.0417 151.568 79.125 151.625 79.1823 151.51C79.2396 151.401 79.4323 151.177 79.5729 150.927C79.7135 150.672 79.4635 150.615 79.2656 150.391C79.0677 150.172 78.5938 150.448 78.3698 150.422C78.151 150.391 78.3177 150.839 78.1198 151.12C77.9271 151.401 77.3125 151.318 77.0312 151.234C76.75 151.151 76.6406 150.786 76.5833 150.339C76.526 149.891 76.6094 149.417 76.5833 149.109C76.5521 148.797 76.8646 148.969 77.3125 148.885C77.7552 148.797 77.6458 148.573 77.4792 148.297C77.3125 148.016 77.1406 148.099 76.8073 147.932C76.4688 147.766 76.3594 146.979 76.3594 146.979H77.1979C78.0365 146.979 77.1719 146.339 77.1979 146.057C77.224 145.781 77.8698 146.146 78.2344 146.115C78.599 146.089 78.625 146.703 78.6771 146.979C78.7344 147.26 78.8177 147.599 78.9583 147.823C79.099 148.047 79.5208 147.849 79.8802 147.682C80.2448 147.51 80.3021 147.708 80.6667 147.792C81.0312 147.875 81 148.182 81 148.49C81 148.797 81.5312 148.63 81.9792 148.63C82.4271 148.63 82.5104 148.969 82.6771 149.219C82.8438 149.469 82.7656 149.833 82.5938 150.115ZM75.0729 144.885C74.8229 144.797 74.5417 144.547 74.3438 144.297C74.151 144.047 73.9844 143.99 73.7865 143.708C73.5885 143.432 73.1406 143.375 72.6979 143.068C72.25 142.76 72.276 142.984 71.8021 142.927C71.3229 142.87 70.9896 142.927 70.5104 142.818C70.0417 142.703 69.8698 142.312 69.6458 141.948C69.4219 141.583 69.2292 141.5 68.8906 141.25C68.5573 140.995 68.1354 140.604 67.8854 140.214C67.6354 139.823 68.1927 139.74 68.474 139.766C68.7552 139.792 68.8646 139.964 69.3698 140.354C69.8698 140.745 70.0365 140.917 70.2344 141.141C70.4271 141.359 70.9062 141.615 71.5208 141.641C72.1354 141.667 72.2188 141.865 72.5833 142.089C72.9479 142.312 73.0573 142.255 73.3646 142.536C73.6719 142.818 74.1198 142.927 74.2083 142.953C74.2865 142.984 74.7344 143.151 75.4896 143.625C76.2448 144.099 75.5781 143.99 75.8542 144.156C76.1354 144.323 76.776 145.005 76.974 145.25C77.3281 145.682 76.2188 145.25 75.9948 145.167C75.7708 145.078 75.3229 144.969 75.0729 144.885ZM75.2969 147.318C75.0729 147.318 74.9323 147.286 74.5104 147.068C74.0938 146.844 74.5417 146.786 74.5104 146.62C74.4844 146.448 74.5417 146.448 74.7083 146.224C74.875 146.005 75.0729 146.255 75.2396 146.281C75.4062 146.312 75.5208 146.953 75.5208 147.068C75.5208 147.068 75.5208 147.318 75.2969 147.318ZM66.9323 123.349C66.7083 123.292 66.625 123.156 66.401 122.849C66.1771 122.536 65.9844 122.344 65.901 122.062C65.8177 121.781 65.9844 121.646 65.9271 121.448C65.875 121.255 65.8177 120.807 65.8177 120.417C65.8177 120.026 65.9531 120.161 66.2344 120.078C66.5156 119.995 66.4583 120.443 66.4583 120.667C66.4583 120.891 66.849 121.563 66.849 121.755C66.849 121.953 67.0469 121.839 67.2969 121.812C67.5469 121.781 67.3802 121.562 67.3229 121.224C67.2708 120.891 67.2969 121.115 67.2969 120.891C67.2969 120.667 67.2969 120.385 67.9115 120.552C68.526 120.724 68.5573 121.167 68.6979 121.281C68.8333 121.391 68.7812 121.646 68.75 121.87C68.724 122.094 69.1719 122.318 69.2552 122.51C69.2552 122.51 69.4792 123.016 69.3698 123.266C69.2552 123.516 69.1719 123.292 68.8333 123.208C68.5 123.125 68.3854 123.125 68.3021 123.099C68.2188 123.068 67.8021 123.24 67.6042 123.349C67.4115 123.464 67.1562 123.406 66.9323 123.349ZM65.7604 110.01C66.0104 109.844 66.2344 109.729 66.2344 109.422C66.2344 109.115 65.9844 108.781 66.151 108.443C66.3177 108.109 66.4896 107.693 66.401 107.578C66.3177 107.464 65.9271 107.271 65.7031 107.578C65.4792 107.885 65.2552 108.224 65.0625 108.359C64.8646 108.5 64.5 108.417 64.5 108.865C64.5 109.312 64.6406 110.656 64.6146 110.792C64.5833 110.932 64.5 111.604 64.3906 111.688C64.276 111.771 64.026 111.859 63.8854 111.745C63.7448 111.63 63.5208 111.38 63.4115 111.464C63.3021 111.547 63.3021 111.745 62.9323 111.688C62.5729 111.63 62.7656 111.521 62.375 111.323C61.9844 111.13 61.7604 111.016 61.7865 110.74C61.8177 110.458 61.6771 110.26 61.8438 110.208C62.0104 110.151 62.2083 110.01 62.3438 110.208C62.4896 110.401 62.9062 110.542 63.0469 110.458C63.1875 110.375 63.2448 110.318 63.3281 109.844C63.4115 109.37 63.3281 109.115 63.4115 108.641C63.4948 108.167 63.4115 107.578 63.6927 107.438C63.9688 107.297 64.1354 106.823 64.3073 106.792C64.474 106.766 64.5573 105.984 64.2188 105.536C63.8854 105.089 63.3542 104.755 63.3542 104.755C63.3542 104.755 63.4688 104.25 63.7448 104.25C64.026 104.25 64.276 104.167 64.3906 104.307C64.5 104.443 64.1927 104.333 64.6667 104.781L65.1458 105.229C65.1458 105.229 65.3698 104.865 65.4219 104.615C65.4792 104.365 65.4792 103.776 65.5052 103.578C65.5365 103.385 65.6771 103.13 65.2292 102.823C64.7812 102.516 64.6667 102.432 64.6406 102.292C64.6146 102.151 64.4167 101.651 64.4167 101.651C64.4167 101.427 64.3594 101.229 64.3333 101.062C64.3073 100.896 64.3906 100.5 64.3906 100.5C64.3906 100.5 64.6667 100.417 64.7812 100.531C64.8906 100.641 65.0625 100.755 65.2031 100.807C65.3385 100.865 65.6719 100.807 65.7865 100.896C65.901 100.979 66.0365 100.698 66.2604 101.005C66.4896 101.312 66.599 101.37 66.7083 101.734C66.8229 102.099 66.9323 102.068 67.099 102.375C67.2708 102.682 67.4948 102.766 67.5208 102.964C67.5469 103.161 67.8594 105.427 67.7188 105.953C67.5781 106.49 67.6354 106.656 67.4948 107.188C67.3542 107.719 67.2448 108.219 67.3542 108.5C67.4635 108.781 67.8021 109.677 67.8281 109.76C67.8594 109.844 67.9688 110.792 67.8281 111.104C67.6875 111.406 67.7708 111.911 67.6615 112.135C67.5469 112.359 67.4635 112.359 67.4635 112.583C67.4635 112.807 67.4948 113 67.3542 113.198C67.2135 113.396 66.9896 113.422 66.6823 113.422C66.375 113.422 66.1198 113.536 66.1198 113.115C66.1198 112.698 66.151 112.443 66.151 112.193C66.151 111.943 66.2604 111.63 66.0938 111.323C65.9271 111.016 65.7292 110.88 65.7031 110.656C65.6719 110.432 65.5052 110.177 65.7604 110.01ZM63.6354 118.901C63.2448 118.958 63.5469 119.099 63.4115 119.464C63.2708 119.828 63.2135 120.052 63.1042 120.417C63.1042 120.417 63.1042 120.609 63.0208 120.75C62.9323 120.891 62.7396 120.807 62.5729 120.807C62.401 120.807 62.3177 120.635 62.151 120.417C61.9844 120.193 62.2083 120.026 62.2656 119.828C62.3177 119.63 62.5156 119.406 62.5417 119.182C62.5729 118.958 62.4896 119.016 62.3438 118.823C62.2083 118.625 62.4323 118.151 62.5729 118.094C62.7083 118.036 62.8229 118.203 63.0729 118.26C63.3281 118.318 63.3542 118.286 63.776 118.26C64.1927 118.234 63.9948 118.344 64.1354 118.484C64.276 118.625 64.026 118.849 63.6354 118.901ZM60.6406 106.094C60.3073 106.042 60.5885 105.901 60.6719 105.562C60.7552 105.229 60.8646 105.115 61.1458 104.812C61.4271 104.5 61.2865 104.474 61.2552 104.193C61.2292 103.917 61.2031 103.828 61.0052 103.635C60.8073 103.438 60.5573 103.411 60.3073 103.13C60.0521 102.849 60.3906 102.599 60.4427 102.516C60.5052 102.432 60.9323 102.693 61.1458 102.766C61.3854 102.849 61.6771 102.74 61.8177 102.573C61.9531 102.401 62.0677 102.401 62.151 102.234C62.2344 102.068 62.3177 102.099 62.4896 101.734C62.6562 101.37 62.599 101.51 62.625 101.146C62.6563 100.781 63.1302 100.807 63.4375 100.755C63.7448 100.698 63.4948 100.922 63.4948 101.12C63.4948 101.312 63.4375 101.396 63.4115 101.562C63.3802 101.734 63.4115 101.901 63.4948 102.042C63.5781 102.177 63.6042 102.458 63.5521 102.714C63.4948 102.964 63.1875 103.016 62.9062 103.073C62.625 103.13 62.5729 103.161 62.375 103.214C62.1771 103.271 61.901 103.521 61.875 103.661C61.8438 103.802 61.9844 104.557 61.9271 104.755C61.875 104.948 61.875 105.115 61.7031 105.651C61.5365 106.177 60.9792 106.151 60.6406 106.094ZM59.8854 99.6615C59.8594 99.4688 59.776 98.7135 59.9688 98.5469C60.1667 98.375 60.25 98.4323 60.4167 98.1823C60.5885 97.9323 60.6406 97.5938 60.6979 97.4271C60.7552 97.2604 60.7812 96.5052 60.7552 96.3646C60.724 96.224 60.3333 95.776 60.3646 95.6667C60.3906 95.5521 60.1667 94.9635 60.3073 94.8802C60.4427 94.7969 60.7812 94.5729 60.9219 94.5729C61.0573 94.5729 60.9792 94.099 61.2552 94.3229C61.5365 94.5469 61.7031 94.7969 61.7604 95.0469C61.8177 95.3021 61.8177 95.4688 62.0104 95.7188C62.2083 95.974 62.4896 96.1094 62.4896 96.5312C62.4896 96.9531 62.7135 97.4531 62.7656 97.7344C62.8229 98.0104 62.7656 98.5729 62.7969 98.6823C62.8229 98.7969 63.0469 98.8542 63.0729 99.0729C63.1042 99.2969 63.4948 100 63.1562 100.193C63.1562 100.193 62.4323 100.333 62.375 100.224C62.3177 100.109 62.0677 99.6615 62.0104 99.75C61.9583 99.8333 61.6771 100.052 61.6771 100.052C61.6771 100.052 61.4792 100.141 61.3125 100.224C61.1458 100.307 61.0052 100.417 60.8073 100.5C60.6146 100.589 60.1406 100.724 60.1406 100.365C60.1406 100 59.9167 99.8594 59.8854 99.6615ZM61.9271 94.0417C61.9271 93.875 62.0417 93.7604 62.375 93.5938C62.7135 93.4271 62.8802 93.2604 63.0208 93.2031C63.1562 93.1458 63.4688 93.2292 63.5521 93.2031C63.6354 93.1771 63.8854 93.0625 63.9688 92.9219C64.0521 92.7812 64.3073 92.3906 64.3906 92.1667C64.474 91.9427 64.7552 92.1146 64.9479 92.0833C65.1458 92.0573 65.2865 92.4219 65.2865 92.4219C65.2865 92.4219 65.2865 92.9531 65.1719 93.1458C65.0625 93.3438 64.9219 93.5677 64.9219 93.651C64.9219 93.7344 64.9219 94.3229 64.8906 94.4062C64.8906 94.4062 64.4167 94.5469 64.1094 94.4323C63.8021 94.3229 63.7448 94.4062 63.6927 94.2656C63.6354 94.125 63.4375 94.1562 63.2448 94.125C63.0469 94.099 62.849 94.3229 62.7135 94.4062C62.5729 94.4896 62.4323 94.4062 62.0417 94.2917C61.651 94.1823 61.9271 94.2083 61.9271 94.0417ZM62.0104 91.3281C62.0677 91.2448 62.2917 91.1875 62.401 91.1354C62.5156 91.0781 62.6562 91.1042 62.8802 91.0781C63.1042 91.0469 63.2344 91.151 63.2344 91.151L63.1875 91.4948C63.1875 91.4948 63.2135 91.8073 63.1562 92.0312C63.099 92.2552 62.8125 92.4635 62.6823 92.5885C62.526 92.7448 62.0938 92.4792 62.0417 92.3646C61.9844 92.2552 61.8438 92.1146 61.8438 91.8594C61.8438 91.6094 61.9583 91.4167 62.0104 91.3281ZM65.5052 95.3021C65.7292 95.2188 65.7292 95.3594 65.8438 95.4427C65.9531 95.526 66.0104 95.9167 66.0417 96.1667C66.0677 96.4219 66.1198 96.6146 66.1771 96.9792C66.2344 97.3438 66.3177 97.3438 66.3177 97.5365C66.3177 97.7344 66.4896 98.0677 66.401 98.349C66.3177 98.6302 66.401 98.9635 66.401 99.2969C66.401 99.6354 66.9635 99.9167 67.099 100.167C67.099 100.167 67.0156 100.531 66.9062 100.5C66.7917 100.474 66.401 100.417 66.2917 100.391C66.1771 100.365 65.8177 100.25 65.7292 100.141C65.6458 100.026 65.6198 100 65.5625 99.9167C65.5052 99.8333 65.1458 99.9167 65.1458 99.9167L64.9479 100.333C64.9479 100.333 64.3906 100.333 64.4167 100.224C64.4427 100.109 63.8594 99.4948 63.8021 99.3594C63.7448 99.2135 63.6042 98.4063 63.5781 98.151C63.5469 97.901 63.3802 97.6198 63.3542 97.4271C63.3281 97.2292 63.1042 96.7552 62.9635 96.3333C62.8229 95.9167 62.625 95.6667 62.625 95.3021C62.625 94.9375 62.7656 95.1615 62.9323 94.9948C63.1042 94.8229 63.2135 94.9948 63.4688 94.9635C63.7188 94.9375 63.9427 95.1615 64.026 95.1615C64.1094 95.1615 64.4167 95.4427 64.5833 95.5521C64.7552 95.6667 64.8646 95.6094 64.9792 95.5521C65.0885 95.4948 65.2865 95.3854 65.5052 95.3021ZM68.1927 118.849C68.3021 118.734 68.3021 118.651 68.276 118.401C68.25 118.151 68.4427 118.062 68.4427 118.062C68.4427 118.062 68.8333 118.286 68.974 118.458C69.1146 118.625 69.1146 118.875 69.1979 119.042C69.2812 119.214 69.3385 119.604 69.3385 119.771C69.3385 119.938 69.7604 120.135 70.1198 120.417C70.1198 120.417 70.2031 120.552 70.0677 120.776C69.9271 121 70.0677 120.776 69.901 120.776C69.7292 120.776 69.7031 120.75 69.4219 120.693C69.1458 120.635 69.0312 120.609 68.8333 120.469C68.6406 120.333 68.5833 120.245 68.5 120.078C68.4167 119.911 68.3333 119.911 68.1354 119.604C67.9427 119.297 67.9167 119.24 67.9167 119.016C67.9167 118.792 68.0833 118.958 68.1927 118.849ZM70.151 130.844C70.151 130.844 70.599 131.292 70.4583 131.516C70.3177 131.74 70.2031 131.573 69.901 131.516C69.5885 131.464 69.3385 131.182 69.2552 130.984C69.1719 130.786 69.1458 130.677 68.9479 130.312C68.75 129.948 68.8646 130.089 68.9479 129.896C69.0312 129.698 69.2292 129.87 69.4792 129.953C69.7292 130.036 70.151 130.76 70.151 130.844ZM71.2135 128.469C71.2969 128.385 71.2135 128.13 71.4115 128.245C71.6042 128.359 71.6615 128.667 71.7448 128.776C71.8281 128.885 71.8854 129.026 71.9115 129.141C71.9375 129.25 71.6615 129.333 71.6615 129.333L71.5208 129.391C71.3542 129.224 71.1823 129.224 71.2135 129.026C71.2396 128.833 71.1302 128.552 71.2135 128.469ZM73.4219 137.167C73.3385 137.448 73.3125 137.5 73.1979 137.807C73.0885 138.115 73.1406 138.255 72.6979 138.286C72.25 138.312 72.1354 138.339 72.0521 138.255C71.9688 138.172 71.5469 137.922 71.5469 137.922C71.6615 137.781 71.4896 137.391 72.0521 137.193C72.6094 137 72.3594 137.417 72.6094 137C72.8646 136.578 72.9479 136.411 72.9479 136.411C72.9479 136.411 73.4219 136.245 73.4479 136.411C73.4792 136.578 73.5052 136.885 73.4219 137.167ZM72.5 132.385C72.6667 132.526 72.8646 132.609 73.1146 132.661C73.3646 132.719 73.8125 133.141 73.8438 133.224C73.8438 133.224 74.1198 133.839 73.9531 134.005C73.7865 134.172 73.6719 134.036 73.3958 133.948C73.1146 133.865 73 133.781 72.75 133.474C72.5 133.167 72.4167 133.141 72.3021 132.969C72.1927 132.802 72.0833 132.693 71.9375 132.578C71.7969 132.464 71.8854 132.214 71.9948 132.104C72.1094 131.99 72.3281 132.245 72.5 132.385ZM61.2031 63.1146C61.2292 62.8594 61.2552 62.8021 61.3125 62.6354C61.3698 62.4688 61.5625 62.6354 61.6458 62.6354C61.7344 62.6354 61.7604 63.0573 61.9271 63.0573C62.0938 63.0573 62.2031 63.4792 62.2344 63.5573C62.3854 63.9531 61.9271 64.2865 61.7344 64.2865C61.5365 64.2865 61.3385 63.9792 61.1719 63.7292C61.0052 63.474 61.1719 63.3646 61.2031 63.1146ZM63.1042 51.3229C63.1875 50.9062 63.3542 51.0729 63.5625 50.9896C63.776 50.9062 64.151 51.4479 64.151 51.4479L64.0677 51.5781C63.9844 51.7031 63.6927 51.7865 63.5625 51.9115L63.1875 51.9531C62.8073 51.9948 63.0208 51.7448 63.1042 51.3229ZM64.5833 71.276C64.6406 71.026 64.6146 71 64.6406 70.8594C64.6667 70.7188 64.7812 70.6615 64.8073 70.526C64.8333 70.3802 64.974 70.3281 65.1146 70.1615C65.2552 69.9896 65.5365 70.2969 65.5365 70.2969C65.5365 70.2969 65.5625 70.526 65.5052 70.7188C65.4531 70.9167 65.5052 70.9427 65.5052 71.0833C65.5052 71.224 65.5938 71.3646 65.6198 71.5C65.6458 71.6406 65.4792 71.8073 65.3698 71.8385C65.2552 71.8646 65.0052 72.0885 65.0052 72.0885C64.6406 72.3385 64.5573 71.9479 64.5 71.7812C64.4479 71.6146 64.526 71.5312 64.5833 71.276ZM65.4792 59.5312C65.5625 59.3333 65.9844 59.4219 66.151 59.3073C66.3177 59.1979 66.375 59.2552 66.401 59.1146C66.4323 58.974 66.7656 58.9167 67.1302 59C67.4948 59.0833 67.4115 59.3385 67.5208 59.5885C67.6354 59.8385 67.6042 59.8958 67.5781 60.2865C67.5521 60.6771 67.6615 60.651 67.7448 60.8177C67.8281 60.9844 68.3854 60.849 68.5573 60.8177C68.724 60.7917 69.4792 61.4896 69.4792 61.4896L69.5625 61.8229C69.5625 61.8229 69.3958 61.8542 68.974 61.9062C68.5573 61.9635 68.8906 62.1042 68.5573 62.2708C68.2188 62.4427 68.1667 62.2708 67.9167 62.3021C67.6615 62.3281 67.5208 62.8021 67.1302 62.9427C66.7396 63.0833 66.7656 62.9427 66.3177 62.9427C65.875 62.9427 66.2083 62.5521 66.3177 62.3281C66.4323 62.1042 66.375 62.0781 66.2604 61.7969C66.151 61.5156 66.3177 61.6302 66.401 61.4896C66.4896 61.349 66.7396 61.3229 66.7396 61.1562C66.7396 60.9844 66.599 60.651 66.4583 60.4844C66.3177 60.3177 65.7604 60.3698 65.3698 60.0625C64.9792 59.7552 65.3958 59.7292 65.4792 59.5312ZM66.7083 45.3229C67.3802 44.3646 67.3802 42.1406 67.2552 40.9635C67.1302 39.7865 66.9635 39.7865 67.0052 39.1198C67.0469 38.4479 67.3802 37.1042 67.3802 36.724C67.3802 36.349 68.1354 34.8385 68.3021 34.6302C68.474 34.4219 68.8906 34.4583 69.2708 34.3802C69.6458 34.2917 70.0677 34.0833 70.3177 33.9167C70.5677 33.75 71.2396 34.2917 71.3229 34.5885C71.4115 34.8802 71.4948 35.2604 71.6146 35.5104C71.7448 35.7604 71.9115 35.6771 72.1615 36.1823C72.4167 36.6823 71.9531 36.8125 71.9948 36.9375L72.5417 37.3958C72.5417 37.3958 72.5 37.6927 72.4167 38.026C72.3281 38.3594 72.1615 38.4062 72.0365 38.5312C71.9115 38.6562 71.8281 38.7396 71.4479 38.8229C71.0729 38.9062 70.5677 38.9062 70.3177 38.9062C70.0677 38.9062 70.2344 39.4948 70.0677 39.6615C69.901 39.8333 69.8594 40.0417 69.6042 40.8385C69.3542 41.6354 70.1094 41.3385 70.4427 41.5938C70.7812 41.8438 70.5677 42.3073 70.7344 42.724C70.9062 43.1458 71.3229 43.0156 71.6615 43.1042C71.9948 43.1875 71.9531 43.6042 71.7031 43.8177C71.4479 44.026 71.6146 44.1927 71.5781 44.9062C71.5365 45.6198 71.4479 45.3229 71.0312 45.7865C70.6146 46.25 70.6979 46.375 70.526 46.625C70.3594 46.8802 70.6146 47.8021 70.151 48.5573C69.6875 49.3125 69.5625 49.0573 69.099 48.974C68.6406 48.8906 68.3854 48.7656 68.0521 48.599C67.7188 48.4323 67.0885 48.5573 66.4167 48.3438C65.7448 48.1354 65.7448 47.8854 65.7448 47.2552C65.7448 46.625 66.0417 46.2917 66.7083 45.3229ZM72.099 69.5104C72.0833 69.5677 72.0625 69.6094 72.0521 69.625C72.0521 69.625 71.9688 70.0729 71.9115 70.4948C71.8906 70.6615 71.8854 70.776 71.8542 70.9167C71.8281 71.0521 71.7708 71.1094 71.6302 71.1927C71.4948 71.276 71.4375 71.1406 71.3802 71.026C71.3229 70.9167 71.0156 70.8594 70.9583 70.7188C70.9062 70.5781 70.875 70.4688 70.875 70.2448C70.875 70.0208 70.9062 69.7656 70.9062 69.5417C70.9062 69.3229 71.1302 69.2656 71.1823 69.151C71.2396 69.0417 71.3802 68.9583 71.5208 68.8177C71.6615 68.6771 71.9948 68.901 72.1094 68.9844C72.1927 69.0469 72.1458 69.3385 72.099 69.5104ZM70.7656 60.1771C70.8802 59.9219 71.0729 60.0365 71.4375 60.0052C71.8021 59.9792 71.7448 60.5104 71.7448 60.651C71.7448 60.651 71.9948 60.9844 71.9948 61.2656C71.9948 61.5469 71.9688 61.5729 71.9115 61.8542C71.8542 62.1302 71.9375 62.2448 71.9115 62.6667C71.8854 63.0833 71.5781 63.1146 71.2708 62.9427C70.9583 62.776 71.0469 62.5833 70.9583 62.4427C70.875 62.3021 70.6823 61.9062 70.599 61.8229C70.5104 61.7396 70.375 60.8177 70.4844 60.651C70.599 60.4844 70.6562 60.4271 70.7656 60.1771ZM70.599 54.5C70.5677 54.2448 70.7656 54.1927 70.849 54.0781C70.9323 53.9635 71.0469 54.1354 71.1562 54.3281C71.2708 54.526 71.3802 54.6927 71.4375 54.776C71.4948 54.8646 71.625 55.5313 71.6302 55.7292C71.6406 55.8958 71.1562 56.2604 70.9896 55.8698C70.8229 55.4792 70.625 55.3646 70.6562 55.0573C70.6823 54.75 70.625 54.75 70.599 54.5ZM67.5469 53.6302C67.2969 53.3802 67.5469 53.2656 67.7448 53.1302C67.9427 52.9896 68.1354 53.0469 68.474 53.0469C68.8073 53.0469 68.9219 53.2135 68.974 53.3802C69.0312 53.5469 69.1719 53.8542 69.2812 54.0208C69.2812 54.0208 69.1979 54.276 68.9479 54.2448C68.6979 54.2188 68.5573 54.1615 68.4167 54.0781C68.276 53.9948 67.8021 53.8854 67.5469 53.6302ZM68.2188 57.5469C68.1354 57.1563 68.3854 57.099 68.474 56.8177C68.5573 56.5417 68.6094 56.7917 68.8073 56.625C69 56.4583 69.0573 56.3438 69.1458 56.0365C69.2292 55.7292 69.3958 55.9792 69.5885 56.0104C69.7865 56.0365 69.8698 56.2865 69.8698 56.5104C69.8698 56.7344 69.7865 56.7656 69.6719 56.875C69.5625 56.9896 69.2812 57.0156 69.1719 57.2917C69.1719 57.2917 69.3125 57.5156 69.2812 57.6302C69.2552 57.7396 69.2812 57.7708 69.3958 57.9635C69.5052 58.1615 69.6719 58.5 69.7031 58.6406C69.7292 58.776 69.1979 59.3073 69.0312 59.224C68.8646 59.1406 68.8646 58.9167 68.6979 58.8073C68.5312 58.6927 68.1927 58.526 68.2188 58.2708C68.25 58.0208 68.3021 57.9375 68.2188 57.5469ZM70.849 66.9427C70.7656 67.0833 70.2917 67.0833 70.151 67.1979C70.0104 67.3073 70.0417 67.6979 70.0677 67.7812C70.0938 67.8646 70.151 68.1198 69.9271 68.2031C69.7031 68.2865 69.1719 68.0885 69.1146 67.9792C69.0573 67.8646 68.526 67.7292 68.5 67.6146C68.474 67.5 68.3594 67.224 68.5573 67.0573C68.75 66.8854 68.8333 66.8594 68.8333 66.6927C68.8333 66.526 68.6406 66.2448 68.5312 66.2135C68.4167 66.1875 68.1927 66.2135 68.0521 66.3021C67.9115 66.3854 67.7188 66.4427 67.6875 66.2708C67.6615 66.1042 67.4948 65.6823 67.4948 65.6823C67.4115 65.4583 67.2708 65.0677 67.4375 64.901C67.6042 64.7344 67.5469 64.1719 67.6042 64.0625C67.6615 63.9479 67.8854 63.7552 68.0521 63.6979C68.2188 63.6458 68.6979 63.4167 68.8073 63.4479C68.9167 63.474 68.8906 63.5885 69.1979 63.4167C69.5052 63.25 69.6198 63.026 69.7031 62.974C69.7865 62.9167 69.7031 62.6667 69.9271 62.6667C70.151 62.6667 70.599 62.7188 70.5677 63C70.5417 63.2813 70.8802 63.2813 70.401 63.5885C69.9271 63.8958 69.5052 64.0052 69.3125 64.0625C69.1146 64.1198 68.7812 63.9792 68.7812 64.3698C68.7812 64.7604 68.474 64.9323 69.0312 64.9583C69.5885 64.9844 69.6458 64.3698 70.1771 64.8177C70.7083 65.2656 70.7917 65.4062 70.875 65.599C70.9583 65.7969 71.099 66.0781 71.1302 66.3281C71.1562 66.5781 70.9323 66.8021 70.849 66.9427ZM70.5417 69.6562C70.5104 69.849 70.0938 70.4115 69.9844 70.5521C69.8698 70.6927 69.8438 71 69.8698 71.1927C69.901 71.3906 69.8698 71.5312 69.7031 71.5573C69.5365 71.5885 69.4219 71.3073 69.2292 71.25C69.0312 71.1927 68.9479 71.3333 68.8333 71.0833C68.724 70.8333 68.6094 70.776 68.6094 70.6042C68.6094 70.4375 68.724 70.0729 68.724 70.0729C68.724 70.0729 68.5573 69.2344 68.6406 69.1823C68.724 69.125 68.8333 69.0417 69.1146 68.901C69.3958 68.7604 69.3958 68.875 69.7031 68.9583C70.0104 69.0417 69.8125 69.099 70.0104 69.0417C70.2031 68.9844 70.5417 68.651 70.6562 68.9844C70.7656 69.3229 70.5677 69.4583 70.5417 69.6562ZM66.5677 84.8438C66.599 84.7031 66.6562 84.6458 66.7083 84.5365C66.7656 84.4219 66.9635 84.3646 67.0729 84.3385C67.1875 84.3125 67.3802 84.4219 67.5208 84.3958C67.6615 84.3646 67.8854 84.6458 67.8854 84.6458L67.9115 84.9531C67.9375 85.2604 67.7708 85.0938 67.7188 85.1771C67.6615 85.2604 67.5781 85.375 67.4115 85.5417C67.2448 85.7083 67.3229 85.6771 67.3229 85.7917C67.3229 85.9062 66.9271 85.9062 66.849 85.9323C66.375 86.0729 66.4896 85.5104 66.4583 85.3438C66.4323 85.1771 66.5417 84.9792 66.5677 84.8438ZM136.969 53.7396C122.13 53.7396 110.099 41.7083 110.099 26.8698C110.099 19.8073 112.844 13.4063 117.302 8.60938C108.99 4.30729 99.8385 1.39583 90.1458 0.223958C90.4479 0.557292 91.125 1.44792 91.125 1.44792C91.125 1.44792 91 2.32813 90.8698 2.58333C90.7448 2.82813 90.0312 3.54688 89.4479 3.79688C88.8594 4.04688 88.9062 4.21875 88.4427 4.55208C87.9792 4.89063 87.724 5.09896 87.349 5.43229C86.974 5.77083 86.6771 6.52083 86.6771 7.02604C86.6771 7.52604 86.8438 7.98958 86.6771 8.66146C86.5104 9.33333 86.0938 11.0104 86.0938 11.0104C86.0938 11.0104 85.9271 11.5573 85.6302 11.9375C85.3333 12.3125 84.9948 12.0573 84.6615 12.3125C84.3281 12.5625 84.625 12.8594 84.625 13.4427C84.625 14.0313 85.1667 14.4948 85.2135 14.7448C85.2552 15 85.4583 16.0469 85.4219 16.2552C85.375 16.4583 84.3281 16.8854 84.2083 17.0104C84.0781 17.1302 84.1562 17.5938 84.1198 17.724C84.0781 17.849 84.4167 18.1875 84.5417 18.5208C84.6615 18.8594 84.4948 19.401 84.3646 19.5312C84.25 19.6562 83.7812 20.3698 83.7812 20.6146C83.7812 20.8698 83.6562 21.5417 83.3594 22.0885C83.0729 22.6302 82.9427 23.349 82.9427 23.349C82.9427 23.349 83.2812 24.0208 83.3594 24.474C83.4479 24.9375 83.4115 25.1042 83.3229 25.3125C83.2396 25.5208 83.2812 26.1927 83.1979 26.6562C83.1094 27.1198 83.2396 28.4635 83.1979 28.7969C83.151 29.1302 83.5781 29.4271 83.7812 30.0104C83.9896 30.6042 83.6146 30.7708 83.5365 31.3125C83.4479 31.8594 83.6562 32.6562 83.8229 33.1615C83.9896 33.6667 84.3646 34.5 84.4167 35.0052C84.4531 35.5104 84.0781 36.599 83.9115 36.724C83.7448 36.8542 83.2812 36.6823 82.7344 36.599C82.1927 36.5156 82.401 37.1042 82.1042 37.3125C81.8125 37.526 82.1927 37.9844 82.2344 38.276C82.2708 38.5677 82.4427 39.2396 82.401 39.7917C82.3542 40.3333 82.2708 40.2865 82.0208 41.0469C81.7708 41.8073 82.1458 44.5677 82.3125 45.1146C82.4792 45.6562 82.8177 45.6562 83.2812 45.7031C83.7448 45.7448 83.9896 46.2083 83.9896 46.2083C83.9896 46.2083 84.2865 46.8385 84.1198 47.2552C83.9531 47.6719 83.7448 47.7604 83.3594 48.0938C82.9844 48.4323 83.2812 48.8073 83.2812 48.974C83.2812 49.1406 83.4479 49.4375 83.9531 49.8125C84.4531 50.1979 84.5833 50.276 84.6615 50.4844C84.75 50.6927 84.7917 50.9479 84.4948 51.4479C84.2083 51.9531 84.5417 52.3281 84.7917 52.7031C85.0365 53.0885 85.0833 54.0938 85.0833 54.0938C85.0833 54.0938 84.9583 54.3438 84.7917 54.5104C84.625 54.6771 84.4948 55.0156 84.25 55.1823C83.9896 55.349 84.1198 55.7708 84.1198 56.0625C84.1198 56.3542 84.3646 56.651 84.4948 56.8177C84.625 56.9896 84.5417 57.2396 84.4167 57.6562C84.2865 58.0729 84.625 58.1198 84.7917 58.1615C84.9583 58.2031 85.5885 58.3698 85.7552 58.3698C85.9271 58.3698 86.5104 58.3698 86.974 58.1615C87.4375 57.9531 87.8073 58.3698 88.2344 58.5C88.651 58.625 88.8177 59.2083 88.9427 59.4635C89.0677 59.7135 88.776 60.1771 88.6094 60.3438C88.4427 60.5104 88.4427 60.7604 88.4427 61.224C88.4427 61.6875 88.3542 61.9427 88.1094 62.2292C87.849 62.526 87.3073 62.526 87.0521 62.2292C86.8073 61.9427 86.0052 61.8542 85.7552 61.8542C85.5 61.8542 84.9948 61.9792 84.5833 61.9427C84.1562 61.8958 83.6146 61.8958 83.1094 61.9792C82.6094 62.0625 82.3125 62.901 82.3125 62.901C82.3125 62.901 83.1979 63.3229 83.7812 63.3646C84.3646 63.401 84.4531 63.6562 84.7031 63.7812C84.9583 63.9062 85.5469 64.2865 85.7552 64.3281C85.9635 64.3698 86.2188 65.1198 86.3021 65.4167C86.3802 65.7135 86.6771 65.7917 87.224 66.0885C87.7708 66.3854 87.474 66.5521 87.4375 66.974C87.3854 67.3906 87.099 67.599 86.8438 67.6875C86.5938 67.7656 86.5521 68.0208 86.3802 68.1875C86.2188 68.3594 86.3385 68.4792 86.1719 69.0677C86.0052 69.6615 85.7969 69.4062 85.4583 69.5312C85.125 69.6615 84.9583 70.0729 84.9583 70.0729C84.9583 70.0729 84.75 70.9167 84.75 71.4167C84.75 71.9219 84.9583 72.1302 84.9583 72.1302C84.9583 72.1302 85.0833 72.5052 85.3333 72.8385C85.5885 73.1771 85.5469 73.3906 85.5469 73.6875C85.5469 73.974 85.4583 74.1823 85.2552 74.3958C85.0365 74.6042 84.8281 74.8542 84.5833 75.1094C84.3281 75.3646 84.3646 75.7812 84.3646 75.7812C84.3646 75.7812 84.875 76.1562 84.9167 76.3698C84.9583 76.5781 84.7917 76.8698 84.5833 76.9531C84.3646 77.0417 83.8698 77.0833 83.8229 77.2917C83.7812 77.5 83.2812 78.2083 82.8646 78.4271C82.4427 78.6302 82.2708 78.5052 81.6042 78.7604C80.9323 79.0104 80.2604 79.724 79.8438 79.8906C79.4219 80.0625 79.8438 80.1042 79.6667 80.3125C79.5104 80.5156 78.75 80.9427 78.3281 81.2292C77.9115 81.526 77.9115 81.651 77.5781 81.9479C77.2396 82.2344 76.9844 83.6667 78.1198 82.2865C78.4167 81.9219 78.5833 81.9896 78.8802 81.6146C79.1719 81.2292 79.5885 81.2292 79.9271 80.9427C80.2604 80.6458 80.3385 80.5156 80.7656 80.1823C81.1875 79.849 81.4323 79.974 81.8958 79.724C82.3542 79.474 82.7344 79.5104 82.9844 79.1354C83.2396 78.7604 83.9531 78.9271 84.3281 78.9271C84.7031 78.9271 85.0365 79.3906 85.0365 79.3906C85.0365 79.3906 85.0365 80.1458 84.9167 80.3125C84.7917 80.4792 84.4167 80.9844 84.1198 81.0677C83.8229 81.151 83.8229 81.3594 83.7448 81.4844C83.6562 81.6146 83.6146 82.6979 83.4479 83.0833C83.2812 83.4583 83.4479 83.7083 83.4896 83.9167C83.5365 84.1302 83.8698 84.5052 83.9896 84.6302C84.1198 84.7604 84.0312 85.3854 83.8698 85.7188C83.6979 86.0573 82.9427 86.4375 82.6094 86.6458C82.2708 86.8542 82.5677 87.2292 82.3542 87.7344C82.1458 88.2344 81.7292 87.9896 81.4323 88.0677C81.1406 88.1562 81.1406 88.4062 81.1406 89.0365C81.1406 89.6667 80.8021 90.5052 80.8021 90.5052C80.8021 90.5052 80.6354 91.474 80.3854 91.8906C80.1302 92.3073 80.3854 92.8542 80.3854 93.026C80.3854 93.1927 81.099 93.9427 81.3073 94.4062C81.5208 94.8698 81.6406 94.9479 81.6042 95.4531C81.5625 95.9531 81.474 96.3802 81.1875 96.7552C80.8906 97.1302 80.8906 97.1302 80.3385 97.4271C79.7969 97.7188 79.7969 97.5521 79.5469 97.7188C79.2917 97.8906 79.5469 98.3073 79.5469 98.599V99.6458C79.5469 100.068 79.4219 100.781 78.9583 100.823C78.5 100.87 78.4531 100.151 78.4531 99.7344C78.4531 99.3125 78.4531 99.0156 78.5 98.5208C78.5417 98.0104 78.5 98.099 78.3281 97.7604C78.1667 97.4271 77.7448 98.0104 77.7448 98.0104C77.7448 98.0104 77.7448 98.7708 77.6562 99.1458C77.5781 99.526 77.5781 99.8177 77.4062 99.9427C77.2396 100.068 76.9427 99.7344 76.6979 99.7344C76.4427 99.7344 76.5677 100.109 76.651 100.406C76.7344 100.693 76.4427 101.078 76.2344 101.12C76.026 101.156 76.151 101.703 76.3125 102.214C76.4896 102.708 76.8646 102.083 77.1562 101.875C77.4479 101.661 77.5781 101.578 77.9115 101.365C78.2448 101.156 78.2448 101.578 78.5417 102.167C78.8385 102.755 77.7812 102.797 77.3229 103.13C76.8646 103.469 77.0312 103.635 76.8229 104.052C76.6094 104.474 76.2344 104.979 75.8594 105.438C75.4792 105.901 75.3073 106.026 74.9688 106.151C74.6354 106.281 74.1406 106.734 73.7552 107.198C73.3802 107.661 73.7135 108.125 73.8438 108.375C73.9635 108.63 74.1406 109.005 74.3438 109.422C74.5573 109.844 74.5156 110.219 74.3854 110.516C74.2604 110.812 74.0104 111.432 74.0104 111.609C74.0104 111.771 74.1771 112.193 74.1406 112.49C74.0938 112.776 74.2604 113.24 74.2188 113.495C74.1771 113.74 74.5156 114.167 74.724 114.375C74.9323 114.583 75.4323 115.339 75.5625 115.885C75.6875 116.427 75.8177 116.849 75.9792 117.312C76.151 117.771 76.1927 118.062 76.1042 118.531C76.026 118.99 76.526 119.536 76.5677 119.87C76.6094 120.208 76.9427 120.078 77.1979 119.823C77.4479 119.573 77.6562 119.703 77.9479 119.281C78.2448 118.865 78.1667 119.198 78.5417 118.865C78.9167 118.531 78.9583 118.776 79.1719 118.698C79.3802 118.609 79.6667 118.734 79.8854 118.568C80.0938 118.401 80.724 118.443 80.8906 118.443C81.0573 118.443 81.3073 118.531 81.5625 118.865C81.8125 119.198 81.7292 119.781 81.6823 120.036C81.6406 120.286 81.8958 120.453 82.1927 121.255C82.4792 122.052 82.1458 122.094 81.9375 122.505C81.7292 122.932 81.4323 122.974 81.4323 123.177C81.4323 123.396 81.7292 123.896 81.6823 124.026C81.6406 124.146 81.8958 124.776 81.8958 124.943C81.8958 125.115 81.8958 125.448 81.8125 125.573C81.7292 125.703 81.6823 126.198 81.5625 126.286C81.4323 126.375 81.3073 126.792 81.224 126.958C81.1406 127.125 81.4323 127.458 81.5625 127.63C81.6823 127.797 82.0677 128.052 82.1927 128.26C82.3125 128.469 82.3125 128.766 82.4427 128.932C82.5677 129.099 83.1094 129.349 83.4115 129.641C83.6979 129.938 83.9896 130.188 83.9115 130.818C83.8229 131.448 84.25 131.823 84.4531 131.906C84.6615 131.99 86.8438 132.031 88.1875 131.953C89.5312 131.865 94.7292 131.865 95.5312 131.786C96.3281 131.698 96.9583 132.417 97.9219 132.87C98.8854 133.333 100.188 133.875 100.188 133.875C100.188 133.875 99.8906 134.255 99.6823 134.427C99.4688 134.589 99.0521 134.927 98.7604 135.01C98.4635 135.099 98.5104 135.557 98.3385 135.646C98.1719 135.724 98.0052 136.021 98.0052 136.021C98.0052 136.021 97.8385 136.312 97.5417 136.604C97.25 136.896 96.9583 137.026 96.6198 137.068C96.2865 137.115 96.2396 137.234 95.8646 137.323C95.4896 137.401 95.2812 137.359 94.8958 137.49C94.5208 137.609 94.4844 137.786 94.1875 137.906C93.8906 138.031 93.8125 138.203 93.4271 138.406C93.0521 138.615 93.0938 138.453 92.9323 138.406C92.7552 138.37 92.4219 138.328 92.2604 138.328C92.0885 138.328 92.1354 138.578 91.75 138.911C91.375 139.25 91.0781 139 90.9167 139.25C90.7448 139.505 90.7917 140.802 90.7917 140.802C90.7917 140.802 90.5833 141.427 90.4948 141.594C90.4062 141.766 90.4948 142.438 90.3698 143.068C90.25 143.698 90.1615 144.073 90.0312 144.37C89.9115 144.656 89.8229 145.625 89.7344 145.958C89.6562 146.297 89.7344 147.26 89.7344 148.01C89.7344 148.771 89.5312 148.938 89.3229 149.318C89.1094 149.693 88.276 150.026 88.0208 149.984C87.7708 149.948 87.099 150.026 86.974 149.906C86.8438 149.776 85.9635 149.484 85.6667 149.276C85.375 149.068 84.8281 149.021 84.2865 148.812C83.7448 148.604 83.4115 148.438 82.9427 147.932C82.4792 147.432 81.9375 147.135 81.5208 146.964C81.099 146.797 81.1406 147.005 80.9323 146.927C80.724 146.844 80.4688 146.885 80.1771 146.594C79.8854 146.297 78.7865 145.417 78.5833 145.25C78.375 145.078 77.8698 144.911 77.7448 144.745C77.6146 144.578 77.1979 144.495 76.9844 144.495C76.776 144.495 76.901 143.568 76.901 143.568C76.901 143.568 77.2812 143.609 77.5781 143.568C77.8698 143.531 78.0417 143.74 78.375 143.906C78.7083 144.073 79.0833 144.411 79.0833 144.411C79.0833 144.411 79.7188 144.281 80.0521 143.823C80.3854 143.359 80.0521 143.823 79.9271 143.318C79.7969 142.818 79.3333 143.068 78.7865 142.646L78.75 142.526C78.7083 142.396 78.1667 142.604 78.1667 142.604L77.8281 142.229C77.4948 141.849 77.2812 142.562 77.1146 142.526C76.9427 142.484 76.1927 142.266 76.0625 142.021C75.9375 141.766 75.9375 141.635 76.1042 141.01C76.2708 140.385 76.4896 140.964 76.6094 140.76C76.7344 140.552 76.8229 140.552 76.901 140.13C76.9844 139.708 76.6979 139.797 76.651 139.464C76.6094 139.125 76.8229 138.703 76.526 138.661C76.2344 138.615 76.026 138.615 75.8177 138.453C75.599 138.281 75.7292 137.943 75.599 137.865C75.4792 137.786 75.099 138.453 74.7604 138.615C74.4271 138.792 74.3854 138.615 74.0521 138.495C73.7135 138.37 74.0104 138.12 74.0521 137.786C74.0938 137.448 74.2604 137.401 74.3438 136.938C74.4271 136.484 74.2188 136.266 74.2188 136.266C74.2188 136.266 74.2604 135.849 74.3021 135.557C74.3438 135.26 74.5573 135.01 74.5938 134.635C74.6354 134.255 74.9688 134.427 75.2656 134.302C75.5625 134.172 76.1927 134.13 76.4896 133.755C76.776 133.375 77.1562 132.958 77.4948 132.703C77.8281 132.453 78.0417 132.573 78.3281 132.328C78.6198 132.078 78.6198 132.031 78.7083 131.823C78.7865 131.615 79.2552 131.745 79.7552 131.745C80.2604 131.745 80.8021 131.193 80.724 130.818C80.6354 130.443 80.5938 130.146 80.5521 129.938C80.5156 129.729 80.5521 129.349 80.4688 129.01C80.3854 128.677 80.1771 128.635 79.9635 128.385C79.7552 128.13 79.4583 128.13 79.125 127.964C78.7865 127.797 78.75 127.839 78.4531 127.714C78.1667 127.589 77.9479 127.38 77.7031 127.292C77.4479 127.208 77.4948 127.542 77.4948 127.542C77.4948 127.542 78.2083 128.052 78.375 128.13C78.5417 128.214 79.0469 128.469 79.4583 128.807C79.8854 129.141 79.6667 129.349 79.625 129.682C79.5885 130.016 79.3333 129.938 79.3333 129.938C79.3333 129.938 78.7865 129.938 78.6198 129.891C78.4531 129.849 78.0417 129.729 77.8698 129.516C77.7031 129.307 77.4479 129.219 77.4479 129.219L77.0312 129.01L77.5781 129.849L77.9896 129.979C78.4167 130.104 78.1198 130.484 77.9896 130.818C77.8698 131.151 77.5365 131.365 77.3698 131.49C77.1979 131.615 77.0729 131.656 76.8646 131.786C76.651 131.906 76.6094 132.24 76.2344 132.75C76.1667 132.844 76.125 132.896 76.099 132.932H76.1042C76.1042 132.938 76.0938 132.958 76.0625 133C75.8958 133.25 75.2656 133.089 75.2656 133.089C75.2656 133.089 75.0208 132.958 74.9323 132.75C74.849 132.536 74.5156 132.703 74.4271 132.495C74.3438 132.286 74.2604 132.12 74.2604 132.12C74.2604 132.12 73.8854 131.448 73.8438 131.193C73.8021 130.943 74.3438 131.026 74.3438 130.896C74.3438 130.776 74.1771 130.651 74.0938 130.354C74.0104 130.062 74.1406 130.016 74.0938 129.641C74.0521 129.266 73.8854 129.307 73.3802 129.266C72.875 129.219 72.9583 129.141 72.8385 128.932C72.7083 128.724 72.7083 128.724 72.7083 128.385C72.7083 128.052 72.5833 128.172 72.4115 127.88C72.2448 127.589 72.2448 127.63 72.0781 127.38C71.9115 127.125 72.0781 126.87 72.2031 126.453C72.3333 126.036 72.7083 126.12 73.0417 125.823C73.3802 125.526 73.3385 124.901 73.3385 124.521C73.3385 124.146 73.3385 124.521 73.2135 124.276C73.0833 124.026 72.875 124.401 72.7083 124.521C72.5417 124.651 72.4583 124.651 72.2448 124.609C72.0365 124.568 71.9115 124.609 71.8281 124.443C71.7396 124.276 71.7396 124.234 71.6146 123.938C71.4948 123.641 71.3281 124.234 71.3281 124.234C71.3281 124.234 71.2396 124.479 70.9896 124.568C70.7344 124.651 70.8646 124.312 70.7812 124.104C70.6979 123.896 70.7812 123.729 70.7344 123.604C70.6979 123.474 70.6979 123.141 70.4479 122.766C70.3854 122.677 70.3542 122.63 70.3333 122.609C70.3438 122.641 70.3854 122.724 70.3177 122.682C70.1927 122.594 70.026 122.469 70.0625 122.26C70.1094 122.052 70.1927 121.677 70.1927 121.547C70.1927 121.422 70.401 121.547 70.6562 121.547C70.901 121.547 71.1198 121.547 71.3698 121.589C71.6146 121.63 71.7865 121.922 71.7865 121.922C71.7865 121.922 72.4115 121.964 72.5417 121.755C72.6719 121.547 72.5 120.917 72.6719 120.708C72.8385 120.495 72.6719 120.708 72.875 120.542C73.0833 120.375 73.0052 120.286 72.9583 120.12C72.9167 119.953 73.0833 119.781 73.0833 119.781L73.3802 119.615C73.3802 119.615 73.8854 119.74 74.0521 119.661C74.2188 119.573 74.4271 119.615 74.474 119.328C74.5156 119.031 74.474 119.328 74.3854 119.151C74.3021 118.99 74.0938 119.109 73.7552 118.99C73.4219 118.865 73.3802 118.818 73.1719 118.656C72.9583 118.479 73.2135 118.443 73.1719 118.193C73.1302 117.938 73.1302 117.984 72.9167 117.859C72.7083 117.729 72.7083 117.938 72.7083 118.062C72.7083 118.193 72.6198 118.901 72.6198 118.901C72.6198 118.901 72.5833 119.365 72.5417 119.661C72.5 119.953 72.4115 120.036 72.2865 120.161C72.1667 120.286 72.0781 120.917 71.7396 121.125C71.4062 121.339 71.7396 121.125 71.2812 121.005C70.8229 120.875 70.8646 120.667 70.7344 120.495C70.6094 120.333 70.526 120.12 70.3594 119.911C70.1927 119.703 70.2708 119.073 70.2708 118.901C70.2708 118.734 70.026 118.698 69.8594 118.568C69.6875 118.443 69.6875 117.938 69.7292 117.807C69.776 117.688 69.9375 117.807 70.1094 117.771C70.2708 117.729 70.6094 117.859 70.6094 117.859C70.6094 117.859 71.0312 117.859 71.0729 117.562C71.1198 117.266 71.0729 117.562 70.901 117.474C70.7344 117.396 70.6094 117.354 70.6094 117.224C70.6094 117.099 70.3177 117.057 70.1927 116.979C70.0625 116.891 69.8958 117.057 69.7292 117.016C69.5573 116.979 69.4427 117.016 69.3542 116.802C69.2656 116.594 69.224 116.557 69.224 116.557C69.224 116.557 69.0156 116.766 68.9271 116.641C68.849 116.516 68.6406 116.557 68.3854 116.516C68.1406 116.469 68.099 116.349 67.974 116.13C67.8438 115.922 67.8021 115.922 67.7135 115.755C67.6354 115.589 67.5469 115.547 67.3802 115.422C67.2135 115.297 66.9167 115.255 66.7969 115.083C66.6667 114.917 66.9635 114.875 67.0052 114.75C67.0417 114.625 67.2969 114.292 67.2969 114.292H67.5469C67.8021 114.292 67.8438 114.292 67.8438 114.12C67.8438 113.958 68.1406 113.958 68.3854 113.958C68.6406 113.958 68.8125 114.375 69.1042 114.542C69.3906 114.708 69.3906 114.786 69.7292 115.047C70.0625 115.297 70.026 115.172 70.2708 115.255C70.526 115.339 70.6094 115.458 70.9427 115.422C71.2812 115.38 71.2396 115.339 71.2396 115.339L70.7812 114.917L70.401 114.839C70.026 114.75 69.8594 114.167 69.8594 114.167C69.8594 114.167 69.599 114.036 69.5208 113.911C69.4427 113.781 69.1458 113.703 68.9792 113.536C68.8125 113.37 68.8125 113.073 68.8125 112.823C68.8125 112.568 69.0573 112.698 69.0573 112.698C69.0573 112.698 69.9375 113.156 70.0625 113.156C70.1927 113.156 70.5677 113.495 70.7344 113.573C70.901 113.661 71.3281 113.62 71.1979 113.286C71.0729 112.948 71.1979 113.286 70.9896 113.156C70.7812 113.031 70.5677 112.948 70.4896 112.734C70.401 112.531 70.4479 112.531 70.2708 112.276C70.1094 112.026 69.8177 112.151 69.3125 112.026C68.8125 111.896 68.9792 111.521 68.9792 111.271C68.9792 111.016 69.0156 110.979 69.3542 110.812C69.6875 110.641 69.3542 110.812 69.5208 110.812C69.6875 110.812 69.9375 110.682 69.8958 110.516C69.8594 110.349 69.7292 110.266 69.5208 110.177C69.3125 110.094 69.0156 110.219 68.9792 110.094C68.9271 109.969 68.9271 109.547 68.9792 109.422C69.0156 109.297 69.224 109.083 69.224 109.083C69.224 109.083 69.5573 108.839 69.6875 108.75C69.8177 108.667 69.9375 108.708 70.1927 108.708C70.4479 108.708 70.7812 108.797 71.0312 108.839C71.2812 108.875 71.2396 108.542 71.1979 108.411C71.1562 108.292 70.9896 108.036 70.9896 108.036C70.9896 108.036 70.401 107.917 70.3594 107.786C70.3177 107.661 70.1094 107.661 70.0625 107.365C70.026 107.073 70.1094 106.359 70.1927 106.062C70.2135 105.984 70.224 105.948 70.224 105.932C70.2188 105.932 70.2188 105.911 70.2292 105.818C70.2708 105.568 70.3594 105.521 70.3177 105.354C70.2708 105.182 70.151 105.146 70.151 105.146L69.8594 105.609L69.5573 106.734C69.5573 106.734 69.5573 107.406 69.5208 107.661C69.4792 107.917 69.5208 108.203 69.4427 108.333C69.3542 108.458 69.224 108.5 69.224 108.5C69.224 108.5 68.849 108.63 68.724 108.63C68.5938 108.63 68.3854 108.797 68.1771 108.63C67.974 108.458 68.1771 108.63 68.1406 108.375C68.099 108.125 68.0521 107.995 68.0521 107.995C68.0521 107.995 68.5156 107.917 68.6823 107.786C68.849 107.661 68.724 107.495 68.724 107.495L68.3438 107.156V106.693C68.3438 106.573 68.2604 106.318 68.2604 106.109C68.2604 105.901 68.2188 105.776 68.1771 105.479C68.1406 105.182 68.1771 104.979 68.1771 104.812C68.1771 104.641 68.3073 103.297 68.3073 103.172C68.3073 103.042 68.0521 102.922 67.8438 102.25C67.6354 101.578 67.8854 101.786 67.8438 101.542C67.8021 101.286 67.9219 101.286 68.3073 101.12C68.6823 100.948 68.8906 100.87 68.9792 100.573C69.0052 100.479 69.0104 100.448 69.0104 100.443C69.0052 100.432 68.9583 100.51 68.9271 100.406C68.8906 100.24 68.3073 100.281 68.0104 99.901C67.7135 99.526 67.8854 99.526 67.8854 99.2708C67.8854 99.0156 68.0521 98.9792 68.2188 98.8073C68.3854 98.6406 68.7708 98.7292 68.8906 98.3906C69.0156 98.0573 68.4323 98.1406 68.099 98.0573C67.7604 97.9688 67.3802 97.3385 67.3802 97.3385C67.3802 97.3385 67.1719 97.2188 67.1302 97.0052C67.0885 96.7969 66.875 96.8385 66.8333 96.6667C66.7969 96.5052 66.5 96.2135 66.6302 95.6198C66.6667 95.4531 66.6823 95.3802 66.6875 95.3594C66.6875 95.3698 66.6615 95.5521 66.7083 95.4531C66.7969 95.2865 66.875 95.2031 66.8333 94.9896C66.7969 94.7812 66.2917 94.9479 66.0365 94.7031C65.7865 94.4479 66.2031 94.1094 66.2917 93.9427C66.375 93.776 66.5 93.8229 66.875 93.7344C67.25 93.6458 67.2969 93.7344 67.4271 93.526C67.5469 93.3125 67.4271 93.526 67.3385 93.3125C67.25 93.1042 66.9167 93.1042 66.9167 92.8958C66.9167 92.6875 67.2969 92.5625 67.2969 92.4323C67.2969 92.3073 67.6719 92.3073 68.0104 92.224C68.3438 92.1458 68.5156 92.2656 69.0156 92.1823C69.5208 92.099 69.4427 92.1823 69.7292 91.8073C70.026 91.4271 68.849 91.5938 68.724 91.6354C68.5938 91.6823 68.1406 91.5521 67.5469 91.3854C66.9635 91.2188 66.9167 91.6354 66.6667 91.6354C66.4219 91.6354 65.8281 91.5104 65.6198 91.3438C65.4115 91.1771 65.4531 90.8438 65.6615 90.4167C65.8698 90.0052 65.6615 90.4167 65.8281 90.2135C65.9948 90.0052 66.3333 89.9531 66.5 89.7083C66.6667 89.4583 66.9167 89.6667 67.0417 89.6667C67.1719 89.6667 67.5052 89.9531 67.6719 90.0833C67.8438 90.2135 68.2604 90.1302 68.724 89.9167C69.1875 89.7083 68.8906 89.7083 68.8125 89.5833C68.724 89.4583 68.1406 89.2865 67.9219 89.2448C67.7135 89.2031 67.6354 89.0781 67.6354 88.7396C67.6354 88.4062 67.25 88.5729 66.8333 88.4531C66.4219 88.3229 66.7083 88.1562 66.7552 87.8229C66.7969 87.4844 67.2135 87.401 67.4271 87.2292C67.6354 87.0625 68.2188 86.2656 68.2188 86.2656L68.5156 86.0573C68.5156 86.0573 68.7708 86.0156 69.1042 85.8906C69.4427 85.7656 69.6875 85.8906 69.6875 85.5938C69.6875 85.3073 69.6875 85.5938 69.5573 85.4323C69.4427 85.2552 68.9792 85.3438 68.8125 85.3073C68.6406 85.2552 68.5938 85.1771 68.5521 84.9688C68.5156 84.7604 68.6406 84.4635 68.7708 84.2969C68.8906 84.1302 69.0156 84.3385 69.1875 84.2969C69.3542 84.25 69.9375 84.2969 70.026 84.0885C70.1094 83.875 69.8177 83.8333 69.8177 83.8333C69.8177 83.8333 69.2656 83.625 68.8906 83.5417C68.5156 83.4583 68.6406 83.1615 68.5156 82.9948C68.3854 82.8281 68.0104 82.6615 67.974 82.3229C67.9219 81.9896 67.8438 82.0312 67.7604 81.8229C67.6719 81.6146 67.0417 81.8229 66.7969 81.8229C66.5417 81.8229 66.375 81.9896 66.375 81.9896C66.375 81.9896 66.6302 82.3229 66.7552 82.4531C66.875 82.5729 66.6302 82.9531 66.5 82.9531C66.375 82.9531 65.9115 82.9531 65.5729 82.8281C65.2396 82.6979 64.9479 82.6198 64.8229 82.4531C64.6927 82.2865 64.1927 82.2344 63.9844 82.0312C63.776 81.8229 63.5208 81.9896 63.224 81.7396C62.9375 81.4844 62.9375 81.276 62.849 80.9427C62.7708 80.6042 62.8906 80.6875 62.9375 80.3958C62.9792 80.1042 63.1042 80.1458 63.1875 80.0156C63.2708 79.8906 63.1458 79.599 62.8906 79.5104C62.6406 79.4323 62.8906 79.5104 62.7292 79.6406C62.5521 79.7656 62.4323 80.1458 62.2656 80.349C62.099 80.5573 62.0573 80.6042 61.7604 80.7344C61.4688 80.8542 61.0885 81.0677 60.6667 81.0677C60.2552 81.0677 60.125 81.3594 60.125 81.3594L60.4219 81.7396C60.7135 82.1146 60.5885 82.1979 60.7135 82.5729C60.8333 82.9531 60.6667 83.2448 60.4583 83.5781C60.2552 83.9167 60.0833 83.9635 59.9583 83.9635C59.8281 83.9635 59.4948 83.8333 59.375 83.5417C59.2448 83.2448 58.8646 83.0833 58.7812 82.8698C58.7031 82.6615 58.3177 82.3646 58.276 82.0312C58.2396 81.6927 58.3177 81.6927 58.526 81.0677C58.7448 80.4375 58.8646 80.9844 58.9479 80.776C59.0365 80.5573 59.0781 80.3958 59.1562 80.0625C59.2448 79.724 59.6198 79.7656 59.9167 79.599C60.2031 79.4323 60.0469 79.0573 60.125 78.8802C60.2031 78.7188 60.9219 78.6302 60.9635 78.4271C61 78.2083 61.4271 78 61.7188 77.5885C62.0104 77.1615 62.1354 77.3802 62.2188 77.2031C62.3073 77.0417 62.474 77.0833 62.474 77.0833C62.474 77.0833 63.0625 76.9948 63.1042 76.7865C63.1458 76.5781 63.224 76.4115 63.2708 76.2448C63.3125 76.0729 63.6458 76.0365 63.8177 75.9062C63.9844 75.7812 64.1094 75.7812 64.1927 75.5729C64.2812 75.3646 64.3594 75.276 64.2292 75.151C64.1094 75.0312 63.9427 75.1094 63.7344 75.2344C63.5208 75.3646 63.3542 75.5729 62.9375 75.6979C62.5104 75.8229 62.5104 75.8229 62.1771 75.651C61.8438 75.4844 62.3438 75.1094 62.3073 74.9427C62.2656 74.776 62.1771 74.6458 62.1771 74.6458C62.1771 74.6458 62.2656 73.974 62.5104 73.6406C62.7708 73.3021 62.7708 73.6875 63.1875 73.4323C63.6094 73.1771 63.5208 73.1771 63.7344 72.9688C63.9427 72.7604 63.9427 72.9688 64.2292 72.9271C64.526 72.8854 64.8229 72.7604 65.1562 72.8385C65.4948 72.9271 65.1562 72.8385 65.4531 72.9688C65.75 73.099 65.7865 73.349 66.2448 73.224C66.7083 73.099 66.2448 73.224 66.2448 73.0156C66.2448 72.8021 66.0833 72.2969 66.0365 71.9635C65.9948 71.625 66.1667 71.7135 66.2031 71.4583C66.2448 71.2083 66.375 71.0417 66.375 70.8281C66.375 70.6198 66.4219 70.3281 66.375 69.9062C66.3333 69.4844 66.5417 69.4062 66.7969 69.151C67.0417 68.901 67.0885 69.2344 67.4271 69.3229C67.7604 69.4062 67.5052 69.6615 67.5052 69.7812C67.5052 69.9062 67.6719 70.2448 67.8021 70.2812C67.9219 70.3281 67.7604 70.8281 67.7604 70.8281C67.7604 70.8281 67.5469 71.2917 67.3802 71.4583C67.2135 71.625 66.7552 71.8802 66.7552 71.8802C66.7552 71.8802 66.7552 72.3854 66.7969 72.5052C66.8333 72.6302 67.5885 72.4219 67.7604 72.3854C67.9219 72.3438 68.0104 72.3438 68.2188 72.2552C68.4323 72.1667 68.6406 71.9219 68.9271 71.8333C69.224 71.7552 69.2656 72.0885 69.2656 72.0885C69.2656 72.0885 69.3906 72.7604 69.3906 72.9688C69.3906 73.1771 69.1458 73.3906 68.9792 73.474C68.8125 73.5573 68.724 73.8073 68.724 74.1823C68.724 74.5677 68.9271 74.3958 69.1042 74.4375C69.2656 74.4792 69.3125 74.9427 69.224 75.1875C69.1458 75.4427 69.0573 75.6979 69.0156 75.9479C68.9792 76.1979 68.9271 76.4531 68.9271 76.5781C68.9271 76.7083 69.4427 76.9531 69.7292 76.9531C70.026 76.9531 69.9375 76.9531 69.9375 76.7865C69.9375 76.6198 69.8594 76.4115 69.776 76.1562C69.6875 75.9062 70.0625 75.9062 70.0625 75.9062C70.0625 75.9062 70.401 75.9479 70.4896 75.7812C70.5677 75.6146 70.3594 74.8542 70.3594 74.8542L70.3177 74.5156C70.2708 74.1823 70.2708 74.0625 70.3177 73.8958C70.3594 73.724 70.3594 73.349 70.6094 73.1354C70.8646 72.9271 70.6094 73.1354 70.6979 72.9271C70.7812 72.7188 70.9427 72.7188 71.1198 72.6771C71.2812 72.6302 71.2396 72.9688 71.1562 73.1354C71.0729 73.3021 71.1198 73.4323 71.0729 73.6406C71.0312 73.849 71.5729 73.7656 71.8281 73.6875C72.0781 73.599 71.9479 73.349 72.0781 73.1354C72.2031 72.9271 72.2448 72.9271 72.2448 72.7604C72.2448 72.5938 72.2865 71.5469 72.2865 71.5469C72.2865 71.5469 72.4583 71.3385 72.4583 71C72.4583 70.6667 72.4115 70.0365 72.4115 69.7396C72.4115 69.4427 72.875 68.7344 72.875 68.7344C72.875 68.7344 73.1302 68.6042 73.2135 68.4792C73.2917 68.3594 73.2917 68.2708 73.7135 67.9792C74.1406 67.6875 74.2188 67.8542 74.3438 67.8542C74.474 67.8542 74.7604 67.9792 74.7604 67.9792C74.7604 67.9792 75.1875 68.3177 75.599 68.4792C76.026 68.651 76.5677 68.7344 76.8646 68.6042C77.1562 68.4792 76.8646 68.6042 76.776 68.3594C76.6979 68.1042 76.0625 68.1406 75.8958 67.9792C75.7292 67.8073 75.5625 67.8542 75.4323 67.6875C75.3073 67.5156 75.1875 67.5573 75.0573 67.349C74.9323 67.1354 74.7604 67.1354 74.0938 67.0156C73.4219 66.8854 73.4219 67.349 73.2917 67.3125C73.1719 67.2656 73.2135 66.9271 73.2552 66.5521C73.2917 66.1771 73.5052 66.2552 73.8438 65.8385C74.1771 65.4167 73.8438 65.8385 73.6302 65.375C73.4219 64.9115 73.6302 65.375 73.5052 65.2083C73.3802 65.0417 73.2917 64.875 73.3385 64.5365C73.3802 64.2031 73.8854 64.4115 74.0104 64.3281C74.1406 64.2396 74.6354 64.0729 75.0573 63.8698C75.4792 63.6563 75.5208 63.6562 75.9375 63.3646C76.3594 63.0677 76.9844 62.3177 76.9844 62.3177C76.9844 62.3177 77.3698 62.151 77.6146 61.724C77.8698 61.3125 77.8698 61.2708 77.8698 61.0156C77.8698 60.7604 78.1667 60.6406 78.2448 60.3438C78.3281 60.0469 78.4167 60.0469 78.5417 59.8802C78.6615 59.7135 78.7083 59.5938 78.7083 59.3385C78.7083 59.0833 78.5 59.0833 78.5 59.0833C78.5 59.0833 78.2448 59.5469 78.0781 59.7135C77.9115 59.8802 77.9115 60.2135 77.5365 60.5521C77.1562 60.8854 77.1562 60.974 76.901 61.3125C76.651 61.6458 76.776 61.7656 76.6094 62.1875C76.4427 62.6094 76.1042 62.6094 75.5625 62.9479C75.0208 63.2812 74.724 63.4427 74.2604 63.6979C73.8021 63.9531 73.7552 63.6198 73.7135 63.3646C73.6771 63.1094 73.1719 62.9479 73.1302 62.7344C73.0833 62.526 73.1719 61.224 73.2917 60.8073C73.4219 60.3854 73.7135 60.6771 73.8021 60.3854C73.8854 60.0885 73.8854 59.9271 73.8854 59.5052C73.8854 59.0833 74.2604 59.0833 74.474 58.9583C74.6823 58.8333 75.0208 58.8333 75.224 58.7083C75.4323 58.5833 75.4323 58.5365 75.8177 58.5365C76.1927 58.5365 76.4427 59 76.4427 59C76.4427 59 77.0312 59 77.1146 58.8333C77.1979 58.6667 76.8646 58.4583 76.7344 58.2865C76.6094 58.1198 76.651 57.9531 76.651 57.9531C76.651 57.9531 76.0625 57.6979 75.8177 57.5781C75.5625 57.4479 75.1458 57.4479 74.8125 57.2396C74.474 57.026 74.8125 56.8177 74.6823 56.6094C74.5573 56.3958 74.0104 56.3958 73.9635 56.0625C73.9219 55.724 74.0521 55.8542 74.474 55.5156C74.8906 55.1823 74.474 55.5156 74.474 55.3125C74.474 55.1042 74.5156 54.9323 74.474 54.7656C74.4271 54.599 74.0521 54.599 73.8854 54.5104C73.7135 54.4323 74.0104 54.224 74.0104 54.0469C74.0104 53.8854 74.5156 53.8385 74.6354 53.7969C74.7604 53.7604 74.7604 54.0938 74.7604 54.0938C74.7604 54.0938 75.1406 54.3229 75.1979 54.2083C75.2604 54.0885 75.2604 53.75 75.2604 53.75C75.2604 53.75 75.3177 53.3646 75.3177 53.2396C75.3177 53.1198 75.6771 52.8438 75.7083 52.6979C75.7344 52.5521 75.4323 52.6094 75.4323 52.6094C75.4323 52.6094 75.2865 52.3698 75.2865 52.25C75.2865 52.125 75.3177 52.0052 75.6771 51.7031C76.0365 51.401 76.2188 51.2552 76.2188 51.2552C76.2188 51.2552 76.2188 50.7396 76.1927 50.5938C76.1562 50.4375 75.7708 50.375 75.651 50.2552C75.526 50.1302 75.2552 49.901 75.1979 49.4792C75.1406 49.0521 75.1667 48.9948 75.224 48.5469C75.2865 48.0885 75.6146 47.6406 75.8906 47.4219C76.1562 47.2135 76.1302 47.3646 76.2552 47.3021C76.375 47.2396 76.4948 47.0938 76.4948 47.0938C76.4948 47.0938 76.1562 46.7917 76.1302 46.4896C76.099 46.1875 76.1927 46.25 76.1927 46.125C76.1927 46.0052 76.2552 45.8281 76.2188 45.5833C76.1927 45.349 76.3385 45.2552 76.4323 45.1667C76.5208 45.0729 76.6406 45.2292 76.7656 45.4375C76.8802 45.6458 77.125 45.526 77.151 45.4115C77.1875 45.2865 77.125 45.2292 77.125 45.1094C77.125 44.9844 77.3073 44.6823 77.4271 44.3229C77.5469 43.9583 76.9427 43.0885 76.9427 43.0885C76.9427 43.0885 76.6406 42.7865 76.4583 42.3958C76.2812 42 76.5208 41.8177 76.5521 41.3958C76.5833 40.9792 76.6406 40.7656 77.125 40.6458C77.6094 40.526 77.5469 40.0729 77.5156 39.8906C77.4896 39.7135 77.3958 39.3802 77.2135 39.0781C77.0312 38.776 77.0312 38.2344 77.125 37.9323C77.2135 37.6302 77.2708 37.724 77.6094 37.5677C77.9375 37.4219 77.9688 37.6042 78.2135 37.6042C78.4479 37.6042 78.4479 38.0521 78.7812 38.3229C79.1094 38.599 79.0833 37.8438 79.026 37.6927C78.9635 37.5417 78.9896 37.4219 78.9896 37.0573C78.9896 36.6979 78.9323 36.6719 78.9323 36.3698C78.9323 36.0677 79.1719 35.974 79.1458 35.7917C79.1094 35.6094 79.1094 35.5521 78.9323 35.3438C78.75 35.1302 78.5052 35.4271 78.2708 35.4896C78.0312 35.5521 77.9115 35.5521 77.6354 35.526C77.3698 35.4896 76.9115 35.401 76.7917 35.2812C76.6771 35.1615 76.3385 34.8333 76.3125 34.4375C76.2812 34.0469 76.849 33.8073 76.9427 33.5625C77.0312 33.3229 77.5156 32.474 77.5156 32.474V31.9635C77.5156 31.7604 77.1875 31.6042 76.7917 31.2135C76.401 30.8229 76.4583 30.849 76.2812 30.4896C76.099 30.125 75.8281 30.3385 75.5885 30.2812C75.3438 30.2188 75.224 30.3073 75.0208 30.3698C74.8021 30.4271 74.8958 30.7917 74.7135 31.2396C74.5365 31.6979 74.5625 32.2656 74.4427 32.5677C74.3177 32.8698 74.0781 33.1406 73.724 33.2344C73.3594 33.3229 73.1771 33.2344 72.599 33.2344C72.0312 33.2344 72.125 33.4427 71.7031 33.4167C71.2812 33.3802 71.0625 33.3542 70.9792 33.2344C70.8906 33.1146 70.1667 33.2031 69.9844 33.1719C69.8021 33.1406 69.8438 32.5417 69.8438 32.5417C69.8438 32.5417 69.8958 32.1563 69.8958 31.9844C69.8958 31.8177 69.8438 31.7031 69.7865 31.5365C69.7292 31.3698 69.1198 31.1458 69.1198 31.1458L69.0052 30.8125C68.8906 30.474 68.8385 30.1927 68.6667 29.8073C68.5 29.4167 68.6667 28.6823 68.6146 28.1823C68.5521 27.6771 68.2188 27.625 67.9948 27.2344C67.7708 26.8385 67.7135 26.2292 67.7135 26.0573C67.7135 25.8906 68.1146 25.4427 68.1146 25.1042C68.1146 24.7708 68.1146 24.6042 68.0521 24.3802C67.9948 24.1563 68.1667 23.8177 68.3333 23.4271C68.5 23.0417 68.724 22.9271 68.724 22.6458C68.724 22.3698 69.1198 21.9167 69.0573 21.5833C69.0052 21.25 69.1198 20.9635 69.1198 20.6927C69.1198 20.4063 69.224 19.849 69.1719 19.401C69.1094 18.9531 69.7292 16.9375 69.7865 16.7708C69.8438 16.6042 69.8958 16.5469 70.0104 16.1615C70.125 15.7656 70.125 15.8229 70.2917 15.6562C70.4583 15.4896 70.7969 15.4271 70.901 15.2083C71.0208 14.9844 71.5208 14.5365 71.5208 14.3125C71.5208 14.0833 71.6354 13.8646 71.6354 13.5833C71.6354 13.3073 72.026 13.026 72.1927 12.5729C72.3594 12.1302 72.5833 12.3021 72.6406 11.9635C72.6979 11.6302 72.6979 11.0625 72.6979 10.3958C72.6979 10.0365 72.7292 9.75521 72.75 9.54688V9.54167C72.7708 9.36458 72.776 9.23958 72.75 9.16667C72.6979 9 72.526 8.21354 72.526 7.9375C72.526 7.65625 71.9688 6.65104 71.7396 6.03125C71.5208 5.42187 71.5729 5.19271 71.3542 4.52083C71.1302 3.84896 70.6823 2.78646 70.6823 2.78646C70.6823 2.78646 70.7344 2.17187 70.4583 1.61458C70.375 1.45312 70.3385 1.38021 70.3281 1.35938C70.3281 1.375 70.3646 1.5 70.2292 1.33333C70.2292 1.33333 71.0729 1.23958 71.2812 1.23958C71.4948 1.23958 71.7865 1.31771 72.0365 1.19792C72.2865 1.06771 72.4583 1.28125 72.5 0.6875C72.5208 0.380208 72.5 0.156251 72.5 0C31.8073 3.96354 0 38.2604 0 79.9948C0 124.385 35.9896 160.375 80.3854 160.375C85.0365 160.375 89.5938 159.958 94.0312 159.198C93.8385 158.953 93.7135 158.719 93.5 158.698C93.1927 158.672 92.7188 158.646 92.3021 158.646C91.8802 158.646 91.0677 158.557 91.0677 158.557C91.0677 158.557 90.4271 159.12 89.9479 158.448C89.474 157.776 89.0833 157.776 88.9427 157.776C88.8021 157.776 88.4375 158.141 88.4688 157.719C88.4948 157.302 88.1042 156.911 87.9635 156.911C87.8229 156.911 87.2917 156.995 87.0677 157.135C86.8438 157.271 86.5365 157.271 86.0052 157.271C85.474 157.271 84.974 157.245 84.9167 157.161C84.8594 157.078 84.1615 156.688 84.6667 156.63C85.1667 156.573 86.0365 156.516 86.2604 156.464C86.4844 156.406 86.7865 156.24 87.0677 155.99C87.349 155.734 87.1823 155.484 87.5729 155.484C87.9635 155.484 88.4688 155.625 88.75 155.677C89.026 155.734 89.5312 155.734 89.7812 155.708C90.0365 155.677 89.9792 155.12 90.4792 155.12C90.9844 155.12 91.9635 155.26 92.0469 155.37C92.1302 155.484 92.3802 155.792 92.6094 155.932C92.8281 156.068 93.5833 156.214 93.8073 156.266C94.0312 156.323 94.2031 156.099 94.1458 155.99C94.0885 155.875 92.8021 154.953 93.026 154.87C93.25 154.786 93.5573 154.448 93.8385 154.698C94.1146 154.953 94.5365 155.146 94.6771 155.146C94.8177 155.146 94.2812 154.422 95.0104 154.646C95.7396 154.87 96.3542 154.839 96.3542 155.12C96.3542 155.401 96.8594 155.844 97.0833 155.818C97.3073 155.792 97.6979 155.651 97.9792 155.708C98.2552 155.76 98.5625 155.594 98.7865 155.875C99.0104 156.156 99.1771 156.38 99.599 156.464C100.016 156.547 100.214 155.958 100.547 155.76C100.885 155.568 101.891 155.344 100.885 154.927C99.875 154.505 100.156 154.531 99.349 154.224C98.5365 153.917 98.7865 153.974 97.6667 153.443C96.5469 152.911 96.2708 152.714 96.0781 152.688C95.8802 152.661 94.5625 152.297 94.5052 151.26C94.4531 150.224 94.4271 149.693 94.651 149.245C94.8698 148.797 94.9531 148.438 95.599 148.214C96.2448 147.99 97.8646 147.375 98.2812 147.234C98.7031 147.094 99.0938 146.979 99.1771 146.729C99.2604 146.479 99.401 145.922 99.1771 145.667C98.9531 145.417 98.7292 144.969 98.1979 145.052C97.6667 145.135 97.0833 145.026 96.6615 145.276C96.2448 145.526 95.5417 145.609 95.125 145.75C94.7031 145.891 93.7552 145.891 93.7552 145.891C93.7552 145.891 92.8281 144.828 92.9167 144.099C92.9948 143.375 92.8594 142.927 93.25 142.422C93.6406 141.922 93.276 141.807 93.8646 141.641C94.4531 141.474 94.1979 141.557 94.8438 141.109C95.4896 140.661 96.8854 139.266 97.526 138.87C98.1719 138.479 98.1458 138.76 98.2552 138.089C98.3698 137.417 98.0885 137.109 98.2812 137.052C98.4792 137 98.8698 136.745 99.2083 136.995C99.5417 137.25 99.7656 137.333 99.7917 137.698C99.8229 138.062 99.8229 138.37 100.047 138.505C100.271 138.646 100.63 138.953 100.995 138.786C101.359 138.62 101.443 138.396 101.781 138.172C102.115 137.948 102.422 137.724 102.536 137.724C102.646 137.724 103.542 138.203 103.542 138.203C103.542 138.203 104.099 137.891 104.099 138.562V156.812C136.917 146.693 160.766 116.13 160.766 79.9948C160.766 68.4896 158.344 57.5521 153.99 47.6562C149.354 51.4531 143.432 53.7396 136.969 53.7396Z" fill="white"/>
<path d="M153.666 26.8698C153.666 36.0885 146.192 43.5677 136.968 43.5677C127.75 43.5677 120.271 36.0885 120.271 26.8698C120.271 17.6458 127.75 10.1719 136.968 10.1719C146.192 10.1719 153.666 17.6458 153.666 26.8698Z" fill="#A1C400"/>
</svg>
