<svg width="980" height="465" viewBox="0 0 980 465" fill="none" xmlns="http://www.w3.org/2000/svg">
<mask id="path-1-inside-1_64_111" fill="white">
<path d="M0 232.5C0 104.094 104.094 0 232.5 0H980V465H232.5C104.094 465 0 360.906 0 232.5Z"/>
</mask>
<path d="M-4 232.5C-4 102.437 101.437 -3 231.5 -3H980V3H232.5C106.303 3 4 105.751 4 232.5H-4ZM980 469H232.5C101.885 469 -4 363.115 -4 232.5H4C4 358.697 106.303 461 232.5 461H980V469ZM232.5 469C101.885 469 -4 363.115 -4 232.5C-4 102.437 101.437 -3 231.5 -3L232.5 3C106.303 3 4 105.751 4 232.5C4 358.697 106.303 461 232.5 461V469ZM980 0V465V0Z" fill="white" fill-opacity="0.3" mask="url(#path-1-inside-1_64_111)"/>
</svg>
